G04 start of page 3 for group 8 layer_idx 1 *
G04 Title: Zuul, bottom_copper *
G04 Creator: pcb-rnd 2.1.1 *
G04 CreationDate: 2019-04-12 16:05:21 UTC *
G04 For:  *
G04 Format: Gerber/RS-274X *
G04 PCB-Dimensions: 220472 334646 *
G04 PCB-Coordinate-Origin: lower left *
%MOIN*%
%FSLAX25Y25*%
%LNBOTTOM_COPPER*%
%ADD58C,0.0420*%
%ADD57C,0.0354*%
%ADD56C,0.1000*%
%ADD55C,0.0630*%
%ADD54C,0.1570*%
%ADD53C,0.0380*%
%ADD52C,0.0394*%
%ADD51C,0.1083*%
%ADD50C,0.0300*%
%ADD49C,0.1260*%
%ADD48C,0.0669*%
%ADD47C,0.0720*%
%ADD46C,0.0394*%
%ADD45C,0.1200*%
%ADD44C,0.0800*%
%ADD43C,0.0594*%
%ADD42C,0.1670*%
%ADD41C,0.0600*%
%ADD40C,0.2441*%
%ADD39C,0.0450*%
%ADD38C,0.0787*%
%ADD37C,0.0200*%
%ADD36C,0.0100*%
%ADD35C,0.0001*%
G54D35*G36*
X201693Y78675D02*X202135Y78492D01*
X204386Y77951D01*
X206693Y77770D01*
X209000Y77951D01*
X211251Y78492D01*
X213389Y79377D01*
X215363Y80587D01*
X217123Y82090D01*
X218504Y83707D01*
Y1969D01*
X201693D01*
Y78675D01*
G37*
G36*
X214977Y308697D02*X215363Y308933D01*
X217123Y310436D01*
X218504Y312054D01*
Y101332D01*
X217123Y102949D01*
X215363Y104453D01*
X214977Y104689D01*
Y109396D01*
X215268Y109871D01*
X215509Y110453D01*
X215656Y111065D01*
X215693Y111693D01*
X215656Y112321D01*
X215509Y112933D01*
X215268Y113514D01*
X214977Y113990D01*
Y119396D01*
X215268Y119871D01*
X215509Y120453D01*
X215656Y121065D01*
X215693Y121693D01*
X215656Y122321D01*
X215509Y122933D01*
X215268Y123514D01*
X214977Y123990D01*
Y129396D01*
X215268Y129871D01*
X215509Y130453D01*
X215656Y131065D01*
X215693Y131693D01*
X215656Y132321D01*
X215509Y132933D01*
X215268Y133514D01*
X214977Y133990D01*
Y139562D01*
X214980Y139563D01*
X215048Y139602D01*
X215109Y139651D01*
X215162Y139710D01*
X215204Y139776D01*
X215367Y140101D01*
X215496Y140441D01*
X215594Y140791D01*
X215660Y141149D01*
X215693Y141511D01*
Y141875D01*
X215660Y142237D01*
X215594Y142595D01*
X215496Y142945D01*
X215367Y143285D01*
X215207Y143611D01*
X215165Y143678D01*
X215112Y143737D01*
X215050Y143786D01*
X214981Y143826D01*
X214977Y143828D01*
Y149396D01*
X215268Y149871D01*
X215509Y150453D01*
X215656Y151065D01*
X215693Y151693D01*
X215656Y152321D01*
X215509Y152933D01*
X215268Y153514D01*
X214977Y153990D01*
Y159562D01*
X214980Y159563D01*
X215048Y159602D01*
X215109Y159651D01*
X215162Y159710D01*
X215204Y159776D01*
X215367Y160101D01*
X215496Y160441D01*
X215594Y160791D01*
X215660Y161149D01*
X215693Y161511D01*
Y161875D01*
X215660Y162237D01*
X215594Y162595D01*
X215496Y162945D01*
X215367Y163285D01*
X215207Y163611D01*
X215165Y163678D01*
X215112Y163737D01*
X215050Y163786D01*
X214981Y163826D01*
X214977Y163828D01*
Y169396D01*
X215268Y169871D01*
X215509Y170453D01*
X215656Y171065D01*
X215693Y171693D01*
X215656Y172321D01*
X215509Y172933D01*
X215268Y173514D01*
X214977Y173990D01*
Y179396D01*
X215268Y179871D01*
X215509Y180453D01*
X215656Y181065D01*
X215693Y181693D01*
X215656Y182321D01*
X215509Y182933D01*
X215268Y183514D01*
X214977Y183990D01*
Y189396D01*
X215268Y189871D01*
X215509Y190453D01*
X215656Y191065D01*
X215693Y191693D01*
X215656Y192321D01*
X215509Y192933D01*
X215268Y193514D01*
X214977Y193990D01*
Y199396D01*
X215268Y199871D01*
X215509Y200453D01*
X215656Y201065D01*
X215693Y201693D01*
X215656Y202321D01*
X215509Y202933D01*
X215268Y203514D01*
X214977Y203990D01*
Y209562D01*
X214980Y209563D01*
X215048Y209602D01*
X215109Y209651D01*
X215162Y209710D01*
X215204Y209776D01*
X215367Y210101D01*
X215496Y210441D01*
X215594Y210791D01*
X215660Y211149D01*
X215693Y211511D01*
Y211875D01*
X215660Y212237D01*
X215594Y212595D01*
X215496Y212945D01*
X215367Y213285D01*
X215207Y213611D01*
X215165Y213678D01*
X215112Y213737D01*
X215050Y213786D01*
X214981Y213826D01*
X214977Y213828D01*
Y219396D01*
X215268Y219871D01*
X215509Y220453D01*
X215656Y221065D01*
X215693Y221693D01*
X215656Y222321D01*
X215509Y222933D01*
X215268Y223514D01*
X214977Y223990D01*
Y229396D01*
X215268Y229871D01*
X215509Y230453D01*
X215656Y231065D01*
X215693Y231693D01*
X215656Y232321D01*
X215509Y232933D01*
X215268Y233514D01*
X214977Y233990D01*
Y239562D01*
X214980Y239563D01*
X215048Y239602D01*
X215109Y239651D01*
X215162Y239710D01*
X215204Y239776D01*
X215367Y240101D01*
X215496Y240441D01*
X215594Y240791D01*
X215660Y241149D01*
X215693Y241511D01*
Y241875D01*
X215660Y242237D01*
X215594Y242595D01*
X215496Y242945D01*
X215367Y243285D01*
X215207Y243611D01*
X215165Y243678D01*
X215112Y243737D01*
X215050Y243786D01*
X214981Y243826D01*
X214977Y243828D01*
Y249396D01*
X215268Y249871D01*
X215509Y250453D01*
X215656Y251065D01*
X215693Y251693D01*
X215656Y252321D01*
X215509Y252933D01*
X215268Y253514D01*
X214977Y253990D01*
Y259396D01*
X215268Y259871D01*
X215509Y260453D01*
X215656Y261065D01*
X215693Y261693D01*
X215656Y262321D01*
X215509Y262933D01*
X215268Y263514D01*
X214977Y263990D01*
Y269396D01*
X215268Y269871D01*
X215509Y270453D01*
X215656Y271065D01*
X215693Y271693D01*
X215656Y272321D01*
X215509Y272933D01*
X215268Y273514D01*
X214977Y273990D01*
Y279562D01*
X214980Y279563D01*
X215048Y279602D01*
X215109Y279651D01*
X215162Y279710D01*
X215204Y279776D01*
X215367Y280101D01*
X215496Y280441D01*
X215594Y280791D01*
X215660Y281149D01*
X215693Y281511D01*
Y281875D01*
X215660Y282237D01*
X215594Y282595D01*
X215496Y282945D01*
X215367Y283285D01*
X215207Y283611D01*
X215165Y283678D01*
X215112Y283737D01*
X215050Y283786D01*
X214981Y283826D01*
X214977Y283828D01*
Y289396D01*
X215268Y289871D01*
X215509Y290453D01*
X215656Y291065D01*
X215693Y291693D01*
X215656Y292321D01*
X215509Y292933D01*
X215268Y293514D01*
X214977Y293990D01*
Y299396D01*
X215268Y299871D01*
X215509Y300453D01*
X215656Y301065D01*
X215693Y301693D01*
X215656Y302321D01*
X215509Y302933D01*
X215268Y303514D01*
X214977Y303990D01*
Y308697D01*
G37*
G36*
Y293990D02*X214939Y294051D01*
X214530Y294530D01*
X214051Y294939D01*
X213514Y295268D01*
X212933Y295509D01*
X212321Y295656D01*
X211693Y295705D01*
X211687Y295705D01*
Y297681D01*
X211693Y297681D01*
X212321Y297730D01*
X212933Y297877D01*
X213514Y298118D01*
X214051Y298447D01*
X214530Y298856D01*
X214939Y299335D01*
X214977Y299396D01*
Y293990D01*
G37*
G36*
Y273990D02*X214939Y274051D01*
X214530Y274530D01*
X214051Y274939D01*
X213514Y275268D01*
X212933Y275509D01*
X212321Y275656D01*
X211693Y275705D01*
X211687Y275705D01*
Y277693D01*
X211875D01*
X212237Y277726D01*
X212595Y277792D01*
X212945Y277890D01*
X213285Y278019D01*
X213611Y278178D01*
X213678Y278221D01*
X213737Y278274D01*
X213786Y278336D01*
X213826Y278405D01*
X213854Y278479D01*
X213870Y278556D01*
X213874Y278635D01*
X213866Y278714D01*
X213845Y278790D01*
X213813Y278863D01*
X213770Y278929D01*
X213716Y278988D01*
X213655Y279037D01*
X213586Y279077D01*
X213512Y279105D01*
X213435Y279121D01*
X213356Y279125D01*
X213277Y279117D01*
X213200Y279096D01*
X213129Y279062D01*
X212886Y278940D01*
X212631Y278843D01*
X212368Y278770D01*
X212100Y278721D01*
X211829Y278696D01*
X211687D01*
Y284690D01*
X211829D01*
X212100Y284665D01*
X212368Y284616D01*
X212631Y284543D01*
X212886Y284446D01*
X213130Y284326D01*
X213201Y284293D01*
X213277Y284272D01*
X213356Y284264D01*
X213434Y284268D01*
X213511Y284284D01*
X213585Y284312D01*
X213653Y284351D01*
X213714Y284400D01*
X213767Y284459D01*
X213810Y284525D01*
X213842Y284596D01*
X213863Y284672D01*
X213871Y284751D01*
X213867Y284829D01*
X213851Y284906D01*
X213823Y284980D01*
X213784Y285048D01*
X213735Y285109D01*
X213676Y285162D01*
X213609Y285204D01*
X213285Y285367D01*
X212945Y285496D01*
X212595Y285594D01*
X212237Y285660D01*
X211875Y285693D01*
X211687D01*
Y287681D01*
X211693Y287681D01*
X212321Y287730D01*
X212933Y287877D01*
X213514Y288118D01*
X214051Y288447D01*
X214530Y288856D01*
X214939Y289335D01*
X214977Y289396D01*
Y283828D01*
X214907Y283854D01*
X214830Y283870D01*
X214751Y283874D01*
X214672Y283866D01*
X214595Y283845D01*
X214523Y283813D01*
X214457Y283770D01*
X214398Y283716D01*
X214348Y283655D01*
X214309Y283586D01*
X214281Y283512D01*
X214265Y283435D01*
X214261Y283356D01*
X214269Y283277D01*
X214290Y283200D01*
X214323Y283129D01*
X214446Y282886D01*
X214543Y282631D01*
X214616Y282368D01*
X214665Y282100D01*
X214690Y281829D01*
Y281557D01*
X214665Y281285D01*
X214616Y281017D01*
X214543Y280755D01*
X214446Y280500D01*
X214326Y280255D01*
X214293Y280184D01*
X214272Y280108D01*
X214264Y280030D01*
X214268Y279952D01*
X214284Y279875D01*
X214312Y279801D01*
X214351Y279733D01*
X214400Y279671D01*
X214459Y279619D01*
X214525Y279576D01*
X214596Y279544D01*
X214672Y279523D01*
X214751Y279515D01*
X214829Y279519D01*
X214906Y279535D01*
X214977Y279562D01*
Y273990D01*
G37*
G36*
Y263990D02*X214939Y264051D01*
X214530Y264530D01*
X214051Y264939D01*
X213514Y265268D01*
X212933Y265509D01*
X212321Y265656D01*
X211693Y265705D01*
X211687Y265705D01*
Y267681D01*
X211693Y267681D01*
X212321Y267730D01*
X212933Y267877D01*
X213514Y268118D01*
X214051Y268447D01*
X214530Y268856D01*
X214939Y269335D01*
X214977Y269396D01*
Y263990D01*
G37*
G36*
Y253990D02*X214939Y254051D01*
X214530Y254530D01*
X214051Y254939D01*
X213514Y255268D01*
X212933Y255509D01*
X212321Y255656D01*
X211693Y255705D01*
X211687Y255705D01*
Y257681D01*
X211693Y257681D01*
X212321Y257730D01*
X212933Y257877D01*
X213514Y258118D01*
X214051Y258447D01*
X214530Y258856D01*
X214939Y259335D01*
X214977Y259396D01*
Y253990D01*
G37*
G36*
Y233990D02*X214939Y234051D01*
X214530Y234530D01*
X214051Y234939D01*
X213514Y235268D01*
X212933Y235509D01*
X212321Y235656D01*
X211693Y235705D01*
X211687Y235705D01*
Y237693D01*
X211875D01*
X212237Y237726D01*
X212595Y237792D01*
X212945Y237890D01*
X213285Y238019D01*
X213611Y238178D01*
X213678Y238221D01*
X213737Y238274D01*
X213786Y238336D01*
X213826Y238405D01*
X213854Y238479D01*
X213870Y238556D01*
X213874Y238635D01*
X213866Y238714D01*
X213845Y238790D01*
X213813Y238863D01*
X213770Y238929D01*
X213716Y238988D01*
X213655Y239037D01*
X213586Y239077D01*
X213512Y239105D01*
X213435Y239121D01*
X213356Y239125D01*
X213277Y239117D01*
X213200Y239096D01*
X213129Y239062D01*
X212886Y238940D01*
X212631Y238843D01*
X212368Y238770D01*
X212100Y238721D01*
X211829Y238696D01*
X211687D01*
Y244690D01*
X211829D01*
X212100Y244665D01*
X212368Y244616D01*
X212631Y244543D01*
X212886Y244446D01*
X213130Y244326D01*
X213201Y244293D01*
X213277Y244272D01*
X213356Y244264D01*
X213434Y244268D01*
X213511Y244284D01*
X213585Y244312D01*
X213653Y244351D01*
X213714Y244400D01*
X213767Y244459D01*
X213810Y244525D01*
X213842Y244596D01*
X213863Y244672D01*
X213871Y244751D01*
X213867Y244829D01*
X213851Y244906D01*
X213823Y244980D01*
X213784Y245048D01*
X213735Y245109D01*
X213676Y245162D01*
X213609Y245204D01*
X213285Y245367D01*
X212945Y245496D01*
X212595Y245594D01*
X212237Y245660D01*
X211875Y245693D01*
X211687D01*
Y247681D01*
X211693Y247681D01*
X212321Y247730D01*
X212933Y247877D01*
X213514Y248118D01*
X214051Y248447D01*
X214530Y248856D01*
X214939Y249335D01*
X214977Y249396D01*
Y243828D01*
X214907Y243854D01*
X214830Y243870D01*
X214751Y243874D01*
X214672Y243866D01*
X214595Y243845D01*
X214523Y243813D01*
X214457Y243770D01*
X214398Y243716D01*
X214348Y243655D01*
X214309Y243586D01*
X214281Y243512D01*
X214265Y243435D01*
X214261Y243356D01*
X214269Y243277D01*
X214290Y243200D01*
X214323Y243129D01*
X214446Y242886D01*
X214543Y242631D01*
X214616Y242368D01*
X214665Y242100D01*
X214690Y241829D01*
Y241557D01*
X214665Y241285D01*
X214616Y241017D01*
X214543Y240755D01*
X214446Y240500D01*
X214326Y240255D01*
X214293Y240184D01*
X214272Y240108D01*
X214264Y240030D01*
X214268Y239952D01*
X214284Y239875D01*
X214312Y239801D01*
X214351Y239733D01*
X214400Y239671D01*
X214459Y239619D01*
X214525Y239576D01*
X214596Y239544D01*
X214672Y239523D01*
X214751Y239515D01*
X214829Y239519D01*
X214906Y239535D01*
X214977Y239562D01*
Y233990D01*
G37*
G36*
Y223990D02*X214939Y224051D01*
X214530Y224530D01*
X214051Y224939D01*
X213514Y225268D01*
X212933Y225509D01*
X212321Y225656D01*
X211693Y225705D01*
X211687Y225705D01*
Y227681D01*
X211693Y227681D01*
X212321Y227730D01*
X212933Y227877D01*
X213514Y228118D01*
X214051Y228447D01*
X214530Y228856D01*
X214939Y229335D01*
X214977Y229396D01*
Y223990D01*
G37*
G36*
Y203990D02*X214939Y204051D01*
X214530Y204530D01*
X214051Y204939D01*
X213514Y205268D01*
X212933Y205509D01*
X212321Y205656D01*
X211693Y205705D01*
X211687Y205705D01*
Y207693D01*
X211875D01*
X212237Y207726D01*
X212595Y207792D01*
X212945Y207890D01*
X213285Y208019D01*
X213611Y208178D01*
X213678Y208221D01*
X213737Y208274D01*
X213786Y208336D01*
X213826Y208405D01*
X213854Y208479D01*
X213870Y208556D01*
X213874Y208635D01*
X213866Y208714D01*
X213845Y208790D01*
X213813Y208863D01*
X213770Y208929D01*
X213716Y208988D01*
X213655Y209037D01*
X213586Y209077D01*
X213512Y209105D01*
X213435Y209121D01*
X213356Y209125D01*
X213277Y209117D01*
X213200Y209096D01*
X213129Y209062D01*
X212886Y208940D01*
X212631Y208843D01*
X212368Y208770D01*
X212100Y208721D01*
X211829Y208696D01*
X211687D01*
Y214690D01*
X211829D01*
X212100Y214665D01*
X212368Y214616D01*
X212631Y214543D01*
X212886Y214446D01*
X213130Y214326D01*
X213201Y214293D01*
X213277Y214272D01*
X213356Y214264D01*
X213434Y214268D01*
X213511Y214284D01*
X213585Y214312D01*
X213653Y214351D01*
X213714Y214400D01*
X213767Y214459D01*
X213810Y214525D01*
X213842Y214596D01*
X213863Y214672D01*
X213871Y214751D01*
X213867Y214829D01*
X213851Y214906D01*
X213823Y214980D01*
X213784Y215048D01*
X213735Y215109D01*
X213676Y215162D01*
X213609Y215204D01*
X213285Y215367D01*
X212945Y215496D01*
X212595Y215594D01*
X212237Y215660D01*
X211875Y215693D01*
X211687D01*
Y217681D01*
X211693Y217681D01*
X212321Y217730D01*
X212933Y217877D01*
X213514Y218118D01*
X214051Y218447D01*
X214530Y218856D01*
X214939Y219335D01*
X214977Y219396D01*
Y213828D01*
X214907Y213854D01*
X214830Y213870D01*
X214751Y213874D01*
X214672Y213866D01*
X214595Y213845D01*
X214523Y213813D01*
X214457Y213770D01*
X214398Y213716D01*
X214348Y213655D01*
X214309Y213586D01*
X214281Y213512D01*
X214265Y213435D01*
X214261Y213356D01*
X214269Y213277D01*
X214290Y213200D01*
X214323Y213129D01*
X214446Y212886D01*
X214543Y212631D01*
X214616Y212368D01*
X214665Y212100D01*
X214690Y211829D01*
Y211557D01*
X214665Y211285D01*
X214616Y211017D01*
X214543Y210755D01*
X214446Y210500D01*
X214326Y210255D01*
X214293Y210184D01*
X214272Y210108D01*
X214264Y210030D01*
X214268Y209952D01*
X214284Y209875D01*
X214312Y209801D01*
X214351Y209733D01*
X214400Y209671D01*
X214459Y209619D01*
X214525Y209576D01*
X214596Y209544D01*
X214672Y209523D01*
X214751Y209515D01*
X214829Y209519D01*
X214906Y209535D01*
X214977Y209562D01*
Y203990D01*
G37*
G36*
Y193990D02*X214939Y194051D01*
X214530Y194530D01*
X214051Y194939D01*
X213514Y195268D01*
X212933Y195509D01*
X212321Y195656D01*
X211693Y195705D01*
X211687Y195705D01*
Y197681D01*
X211693Y197681D01*
X212321Y197730D01*
X212933Y197877D01*
X213514Y198118D01*
X214051Y198447D01*
X214530Y198856D01*
X214939Y199335D01*
X214977Y199396D01*
Y193990D01*
G37*
G36*
Y183990D02*X214939Y184051D01*
X214530Y184530D01*
X214051Y184939D01*
X213514Y185268D01*
X212933Y185509D01*
X212321Y185656D01*
X211693Y185705D01*
X211687Y185705D01*
Y187681D01*
X211693Y187681D01*
X212321Y187730D01*
X212933Y187877D01*
X213514Y188118D01*
X214051Y188447D01*
X214530Y188856D01*
X214939Y189335D01*
X214977Y189396D01*
Y183990D01*
G37*
G36*
Y173990D02*X214939Y174051D01*
X214530Y174530D01*
X214051Y174939D01*
X213514Y175268D01*
X212933Y175509D01*
X212321Y175656D01*
X211693Y175705D01*
X211687Y175705D01*
Y177681D01*
X211693Y177681D01*
X212321Y177730D01*
X212933Y177877D01*
X213514Y178118D01*
X214051Y178447D01*
X214530Y178856D01*
X214939Y179335D01*
X214977Y179396D01*
Y173990D01*
G37*
G36*
Y153990D02*X214939Y154051D01*
X214530Y154530D01*
X214051Y154939D01*
X213514Y155268D01*
X212933Y155509D01*
X212321Y155656D01*
X211693Y155705D01*
X211687Y155705D01*
Y157693D01*
X211875D01*
X212237Y157726D01*
X212595Y157792D01*
X212945Y157890D01*
X213285Y158019D01*
X213611Y158178D01*
X213678Y158221D01*
X213737Y158274D01*
X213786Y158336D01*
X213826Y158405D01*
X213854Y158479D01*
X213870Y158556D01*
X213874Y158635D01*
X213866Y158714D01*
X213845Y158790D01*
X213813Y158863D01*
X213770Y158929D01*
X213716Y158988D01*
X213655Y159037D01*
X213586Y159077D01*
X213512Y159105D01*
X213435Y159121D01*
X213356Y159125D01*
X213277Y159117D01*
X213200Y159096D01*
X213129Y159062D01*
X212886Y158940D01*
X212631Y158843D01*
X212368Y158770D01*
X212100Y158721D01*
X211829Y158696D01*
X211687D01*
Y164690D01*
X211829D01*
X212100Y164665D01*
X212368Y164616D01*
X212631Y164543D01*
X212886Y164446D01*
X213130Y164326D01*
X213201Y164293D01*
X213277Y164272D01*
X213356Y164264D01*
X213434Y164268D01*
X213511Y164284D01*
X213585Y164312D01*
X213653Y164351D01*
X213714Y164400D01*
X213767Y164459D01*
X213810Y164525D01*
X213842Y164596D01*
X213863Y164672D01*
X213871Y164751D01*
X213867Y164829D01*
X213851Y164906D01*
X213823Y164980D01*
X213784Y165048D01*
X213735Y165109D01*
X213676Y165162D01*
X213609Y165204D01*
X213285Y165367D01*
X212945Y165496D01*
X212595Y165594D01*
X212237Y165660D01*
X211875Y165693D01*
X211687D01*
Y167681D01*
X211693Y167681D01*
X212321Y167730D01*
X212933Y167877D01*
X213514Y168118D01*
X214051Y168447D01*
X214530Y168856D01*
X214939Y169335D01*
X214977Y169396D01*
Y163828D01*
X214907Y163854D01*
X214830Y163870D01*
X214751Y163874D01*
X214672Y163866D01*
X214595Y163845D01*
X214523Y163813D01*
X214457Y163770D01*
X214398Y163716D01*
X214348Y163655D01*
X214309Y163586D01*
X214281Y163512D01*
X214265Y163435D01*
X214261Y163356D01*
X214269Y163277D01*
X214290Y163200D01*
X214323Y163129D01*
X214446Y162886D01*
X214543Y162631D01*
X214616Y162368D01*
X214665Y162100D01*
X214690Y161829D01*
Y161557D01*
X214665Y161285D01*
X214616Y161017D01*
X214543Y160755D01*
X214446Y160500D01*
X214326Y160255D01*
X214293Y160184D01*
X214272Y160108D01*
X214264Y160030D01*
X214268Y159952D01*
X214284Y159875D01*
X214312Y159801D01*
X214351Y159733D01*
X214400Y159671D01*
X214459Y159619D01*
X214525Y159576D01*
X214596Y159544D01*
X214672Y159523D01*
X214751Y159515D01*
X214829Y159519D01*
X214906Y159535D01*
X214977Y159562D01*
Y153990D01*
G37*
G36*
Y133990D02*X214939Y134051D01*
X214530Y134530D01*
X214051Y134939D01*
X213514Y135268D01*
X212933Y135509D01*
X212321Y135656D01*
X211693Y135705D01*
X211687Y135705D01*
Y137693D01*
X211875D01*
X212237Y137726D01*
X212595Y137792D01*
X212945Y137890D01*
X213285Y138019D01*
X213611Y138178D01*
X213678Y138221D01*
X213737Y138274D01*
X213786Y138336D01*
X213826Y138405D01*
X213854Y138479D01*
X213870Y138556D01*
X213874Y138635D01*
X213866Y138714D01*
X213845Y138790D01*
X213813Y138863D01*
X213770Y138929D01*
X213716Y138988D01*
X213655Y139037D01*
X213586Y139077D01*
X213512Y139105D01*
X213435Y139121D01*
X213356Y139125D01*
X213277Y139117D01*
X213200Y139096D01*
X213129Y139062D01*
X212886Y138940D01*
X212631Y138843D01*
X212368Y138770D01*
X212100Y138721D01*
X211829Y138696D01*
X211687D01*
Y144690D01*
X211829D01*
X212100Y144665D01*
X212368Y144616D01*
X212631Y144543D01*
X212886Y144446D01*
X213130Y144326D01*
X213201Y144293D01*
X213277Y144272D01*
X213356Y144264D01*
X213434Y144268D01*
X213511Y144284D01*
X213585Y144312D01*
X213653Y144351D01*
X213714Y144400D01*
X213767Y144459D01*
X213810Y144525D01*
X213842Y144596D01*
X213863Y144672D01*
X213871Y144751D01*
X213867Y144829D01*
X213851Y144906D01*
X213823Y144980D01*
X213784Y145048D01*
X213735Y145109D01*
X213676Y145162D01*
X213609Y145204D01*
X213285Y145367D01*
X212945Y145496D01*
X212595Y145594D01*
X212237Y145660D01*
X211875Y145693D01*
X211687D01*
Y147681D01*
X211693Y147681D01*
X212321Y147730D01*
X212933Y147877D01*
X213514Y148118D01*
X214051Y148447D01*
X214530Y148856D01*
X214939Y149335D01*
X214977Y149396D01*
Y143828D01*
X214907Y143854D01*
X214830Y143870D01*
X214751Y143874D01*
X214672Y143866D01*
X214595Y143845D01*
X214523Y143813D01*
X214457Y143770D01*
X214398Y143716D01*
X214348Y143655D01*
X214309Y143586D01*
X214281Y143512D01*
X214265Y143435D01*
X214261Y143356D01*
X214269Y143277D01*
X214290Y143200D01*
X214323Y143129D01*
X214446Y142886D01*
X214543Y142631D01*
X214616Y142368D01*
X214665Y142100D01*
X214690Y141829D01*
Y141557D01*
X214665Y141285D01*
X214616Y141017D01*
X214543Y140755D01*
X214446Y140500D01*
X214326Y140255D01*
X214293Y140184D01*
X214272Y140108D01*
X214264Y140030D01*
X214268Y139952D01*
X214284Y139875D01*
X214312Y139801D01*
X214351Y139733D01*
X214400Y139671D01*
X214459Y139619D01*
X214525Y139576D01*
X214596Y139544D01*
X214672Y139523D01*
X214751Y139515D01*
X214829Y139519D01*
X214906Y139535D01*
X214977Y139562D01*
Y133990D01*
G37*
G36*
Y123990D02*X214939Y124051D01*
X214530Y124530D01*
X214051Y124939D01*
X213514Y125268D01*
X212933Y125509D01*
X212321Y125656D01*
X211693Y125705D01*
X211687Y125705D01*
Y127681D01*
X211693Y127681D01*
X212321Y127730D01*
X212933Y127877D01*
X213514Y128118D01*
X214051Y128447D01*
X214530Y128856D01*
X214939Y129335D01*
X214977Y129396D01*
Y123990D01*
G37*
G36*
Y113990D02*X214939Y114051D01*
X214530Y114530D01*
X214051Y114939D01*
X213514Y115268D01*
X212933Y115509D01*
X212321Y115656D01*
X211693Y115705D01*
X211687Y115705D01*
Y117681D01*
X211693Y117681D01*
X212321Y117730D01*
X212933Y117877D01*
X213514Y118118D01*
X214051Y118447D01*
X214530Y118856D01*
X214939Y119335D01*
X214977Y119396D01*
Y113990D01*
G37*
G36*
Y104689D02*X213389Y105662D01*
X211687Y106367D01*
Y107681D01*
X211693Y107681D01*
X212321Y107730D01*
X212933Y107877D01*
X213514Y108118D01*
X214051Y108447D01*
X214530Y108856D01*
X214939Y109335D01*
X214977Y109396D01*
Y104689D01*
G37*
G36*
X211687Y307019D02*X213389Y307724D01*
X214977Y308697D01*
Y303990D01*
X214939Y304051D01*
X214530Y304530D01*
X214051Y304939D01*
X213514Y305268D01*
X212933Y305509D01*
X212321Y305656D01*
X211693Y305705D01*
X211687Y305705D01*
Y307019D01*
G37*
G36*
X208409Y109396D02*X208447Y109335D01*
X208856Y108856D01*
X209335Y108447D01*
X209871Y108118D01*
X210453Y107877D01*
X211065Y107730D01*
X211687Y107681D01*
Y106367D01*
X211251Y106548D01*
X209000Y107088D01*
X208409Y107134D01*
Y109396D01*
G37*
G36*
Y119396D02*X208447Y119335D01*
X208856Y118856D01*
X209335Y118447D01*
X209871Y118118D01*
X210453Y117877D01*
X211065Y117730D01*
X211687Y117681D01*
Y115705D01*
X211065Y115656D01*
X210453Y115509D01*
X209871Y115268D01*
X209335Y114939D01*
X208856Y114530D01*
X208447Y114051D01*
X208409Y113990D01*
Y119396D01*
G37*
G36*
Y129396D02*X208447Y129335D01*
X208856Y128856D01*
X209335Y128447D01*
X209871Y128118D01*
X210453Y127877D01*
X211065Y127730D01*
X211687Y127681D01*
Y125705D01*
X211065Y125656D01*
X210453Y125509D01*
X209871Y125268D01*
X209335Y124939D01*
X208856Y124530D01*
X208447Y124051D01*
X208409Y123990D01*
Y129396D01*
G37*
G36*
Y149396D02*X208447Y149335D01*
X208856Y148856D01*
X209335Y148447D01*
X209871Y148118D01*
X210453Y147877D01*
X211065Y147730D01*
X211687Y147681D01*
Y145693D01*
X211511D01*
X211149Y145660D01*
X210791Y145594D01*
X210441Y145496D01*
X210101Y145367D01*
X209774Y145207D01*
X209708Y145165D01*
X209649Y145112D01*
X209599Y145050D01*
X209560Y144981D01*
X209532Y144907D01*
X209515Y144830D01*
X209511Y144751D01*
X209520Y144672D01*
X209541Y144595D01*
X209573Y144523D01*
X209616Y144457D01*
X209669Y144398D01*
X209731Y144348D01*
X209800Y144309D01*
X209874Y144281D01*
X209951Y144265D01*
X210030Y144261D01*
X210109Y144269D01*
X210185Y144290D01*
X210257Y144323D01*
X210500Y144446D01*
X210755Y144543D01*
X211017Y144616D01*
X211285Y144665D01*
X211557Y144690D01*
X211687D01*
Y138696D01*
X211557D01*
X211285Y138721D01*
X211017Y138770D01*
X210755Y138843D01*
X210500Y138940D01*
X210255Y139060D01*
X210184Y139093D01*
X210108Y139114D01*
X210030Y139122D01*
X209952Y139118D01*
X209875Y139102D01*
X209801Y139074D01*
X209733Y139035D01*
X209671Y138985D01*
X209619Y138927D01*
X209576Y138861D01*
X209544Y138789D01*
X209523Y138713D01*
X209515Y138635D01*
X209519Y138557D01*
X209535Y138479D01*
X209563Y138406D01*
X209602Y138338D01*
X209651Y138276D01*
X209710Y138224D01*
X209776Y138182D01*
X210101Y138019D01*
X210441Y137890D01*
X210791Y137792D01*
X211149Y137726D01*
X211511Y137693D01*
X211687D01*
Y135705D01*
X211065Y135656D01*
X210453Y135509D01*
X209871Y135268D01*
X209335Y134939D01*
X208856Y134530D01*
X208447Y134051D01*
X208409Y133990D01*
Y139558D01*
X208479Y139532D01*
X208556Y139515D01*
X208635Y139511D01*
X208714Y139520D01*
X208790Y139541D01*
X208863Y139573D01*
X208929Y139616D01*
X208988Y139669D01*
X209037Y139731D01*
X209077Y139800D01*
X209105Y139874D01*
X209121Y139951D01*
X209125Y140030D01*
X209117Y140109D01*
X209096Y140185D01*
X209062Y140257D01*
X208940Y140500D01*
X208843Y140755D01*
X208770Y141017D01*
X208721Y141285D01*
X208696Y141557D01*
Y141829D01*
X208721Y142100D01*
X208770Y142368D01*
X208843Y142631D01*
X208940Y142886D01*
X209060Y143130D01*
X209093Y143201D01*
X209114Y143277D01*
X209122Y143356D01*
X209118Y143434D01*
X209102Y143511D01*
X209074Y143585D01*
X209035Y143653D01*
X208985Y143714D01*
X208927Y143767D01*
X208861Y143810D01*
X208789Y143842D01*
X208713Y143863D01*
X208635Y143871D01*
X208557Y143867D01*
X208479Y143851D01*
X208409Y143824D01*
Y149396D01*
G37*
G36*
Y169396D02*X208447Y169335D01*
X208856Y168856D01*
X209335Y168447D01*
X209871Y168118D01*
X210453Y167877D01*
X211065Y167730D01*
X211687Y167681D01*
Y165693D01*
X211511D01*
X211149Y165660D01*
X210791Y165594D01*
X210441Y165496D01*
X210101Y165367D01*
X209774Y165207D01*
X209708Y165165D01*
X209649Y165112D01*
X209599Y165050D01*
X209560Y164981D01*
X209532Y164907D01*
X209515Y164830D01*
X209511Y164751D01*
X209520Y164672D01*
X209541Y164595D01*
X209573Y164523D01*
X209616Y164457D01*
X209669Y164398D01*
X209731Y164348D01*
X209800Y164309D01*
X209874Y164281D01*
X209951Y164265D01*
X210030Y164261D01*
X210109Y164269D01*
X210185Y164290D01*
X210257Y164323D01*
X210500Y164446D01*
X210755Y164543D01*
X211017Y164616D01*
X211285Y164665D01*
X211557Y164690D01*
X211687D01*
Y158696D01*
X211557D01*
X211285Y158721D01*
X211017Y158770D01*
X210755Y158843D01*
X210500Y158940D01*
X210255Y159060D01*
X210184Y159093D01*
X210108Y159114D01*
X210030Y159122D01*
X209952Y159118D01*
X209875Y159102D01*
X209801Y159074D01*
X209733Y159035D01*
X209671Y158985D01*
X209619Y158927D01*
X209576Y158861D01*
X209544Y158789D01*
X209523Y158713D01*
X209515Y158635D01*
X209519Y158557D01*
X209535Y158479D01*
X209563Y158406D01*
X209602Y158338D01*
X209651Y158276D01*
X209710Y158224D01*
X209776Y158182D01*
X210101Y158019D01*
X210441Y157890D01*
X210791Y157792D01*
X211149Y157726D01*
X211511Y157693D01*
X211687D01*
Y155705D01*
X211065Y155656D01*
X210453Y155509D01*
X209871Y155268D01*
X209335Y154939D01*
X208856Y154530D01*
X208447Y154051D01*
X208409Y153990D01*
Y159558D01*
X208479Y159532D01*
X208556Y159515D01*
X208635Y159511D01*
X208714Y159520D01*
X208790Y159541D01*
X208863Y159573D01*
X208929Y159616D01*
X208988Y159669D01*
X209037Y159731D01*
X209077Y159800D01*
X209105Y159874D01*
X209121Y159951D01*
X209125Y160030D01*
X209117Y160109D01*
X209096Y160185D01*
X209062Y160257D01*
X208940Y160500D01*
X208843Y160755D01*
X208770Y161017D01*
X208721Y161285D01*
X208696Y161557D01*
Y161829D01*
X208721Y162100D01*
X208770Y162368D01*
X208843Y162631D01*
X208940Y162886D01*
X209060Y163130D01*
X209093Y163201D01*
X209114Y163277D01*
X209122Y163356D01*
X209118Y163434D01*
X209102Y163511D01*
X209074Y163585D01*
X209035Y163653D01*
X208985Y163714D01*
X208927Y163767D01*
X208861Y163810D01*
X208789Y163842D01*
X208713Y163863D01*
X208635Y163871D01*
X208557Y163867D01*
X208479Y163851D01*
X208409Y163824D01*
Y169396D01*
G37*
G36*
Y179396D02*X208447Y179335D01*
X208856Y178856D01*
X209335Y178447D01*
X209871Y178118D01*
X210453Y177877D01*
X211065Y177730D01*
X211687Y177681D01*
Y175705D01*
X211065Y175656D01*
X210453Y175509D01*
X209871Y175268D01*
X209335Y174939D01*
X208856Y174530D01*
X208447Y174051D01*
X208409Y173990D01*
Y179396D01*
G37*
G36*
Y189396D02*X208447Y189335D01*
X208856Y188856D01*
X209335Y188447D01*
X209871Y188118D01*
X210453Y187877D01*
X211065Y187730D01*
X211687Y187681D01*
Y185705D01*
X211065Y185656D01*
X210453Y185509D01*
X209871Y185268D01*
X209335Y184939D01*
X208856Y184530D01*
X208447Y184051D01*
X208409Y183990D01*
Y189396D01*
G37*
G36*
Y199396D02*X208447Y199335D01*
X208856Y198856D01*
X209335Y198447D01*
X209871Y198118D01*
X210453Y197877D01*
X211065Y197730D01*
X211687Y197681D01*
Y195705D01*
X211065Y195656D01*
X210453Y195509D01*
X209871Y195268D01*
X209335Y194939D01*
X208856Y194530D01*
X208447Y194051D01*
X208409Y193990D01*
Y199396D01*
G37*
G36*
Y219396D02*X208447Y219335D01*
X208856Y218856D01*
X209335Y218447D01*
X209871Y218118D01*
X210453Y217877D01*
X211065Y217730D01*
X211687Y217681D01*
Y215693D01*
X211511D01*
X211149Y215660D01*
X210791Y215594D01*
X210441Y215496D01*
X210101Y215367D01*
X209774Y215207D01*
X209708Y215165D01*
X209649Y215112D01*
X209599Y215050D01*
X209560Y214981D01*
X209532Y214907D01*
X209515Y214830D01*
X209511Y214751D01*
X209520Y214672D01*
X209541Y214595D01*
X209573Y214523D01*
X209616Y214457D01*
X209669Y214398D01*
X209731Y214348D01*
X209800Y214309D01*
X209874Y214281D01*
X209951Y214265D01*
X210030Y214261D01*
X210109Y214269D01*
X210185Y214290D01*
X210257Y214323D01*
X210500Y214446D01*
X210755Y214543D01*
X211017Y214616D01*
X211285Y214665D01*
X211557Y214690D01*
X211687D01*
Y208696D01*
X211557D01*
X211285Y208721D01*
X211017Y208770D01*
X210755Y208843D01*
X210500Y208940D01*
X210255Y209060D01*
X210184Y209093D01*
X210108Y209114D01*
X210030Y209122D01*
X209952Y209118D01*
X209875Y209102D01*
X209801Y209074D01*
X209733Y209035D01*
X209671Y208985D01*
X209619Y208927D01*
X209576Y208861D01*
X209544Y208789D01*
X209523Y208713D01*
X209515Y208635D01*
X209519Y208557D01*
X209535Y208479D01*
X209563Y208406D01*
X209602Y208338D01*
X209651Y208276D01*
X209710Y208224D01*
X209776Y208182D01*
X210101Y208019D01*
X210441Y207890D01*
X210791Y207792D01*
X211149Y207726D01*
X211511Y207693D01*
X211687D01*
Y205705D01*
X211065Y205656D01*
X210453Y205509D01*
X209871Y205268D01*
X209335Y204939D01*
X208856Y204530D01*
X208447Y204051D01*
X208409Y203990D01*
Y209558D01*
X208479Y209532D01*
X208556Y209515D01*
X208635Y209511D01*
X208714Y209520D01*
X208790Y209541D01*
X208863Y209573D01*
X208929Y209616D01*
X208988Y209669D01*
X209037Y209731D01*
X209077Y209800D01*
X209105Y209874D01*
X209121Y209951D01*
X209125Y210030D01*
X209117Y210109D01*
X209096Y210185D01*
X209062Y210257D01*
X208940Y210500D01*
X208843Y210755D01*
X208770Y211017D01*
X208721Y211285D01*
X208696Y211557D01*
Y211829D01*
X208721Y212100D01*
X208770Y212368D01*
X208843Y212631D01*
X208940Y212886D01*
X209060Y213130D01*
X209093Y213201D01*
X209114Y213277D01*
X209122Y213356D01*
X209118Y213434D01*
X209102Y213511D01*
X209074Y213585D01*
X209035Y213653D01*
X208985Y213714D01*
X208927Y213767D01*
X208861Y213810D01*
X208789Y213842D01*
X208713Y213863D01*
X208635Y213871D01*
X208557Y213867D01*
X208479Y213851D01*
X208409Y213824D01*
Y219396D01*
G37*
G36*
Y229396D02*X208447Y229335D01*
X208856Y228856D01*
X209335Y228447D01*
X209871Y228118D01*
X210453Y227877D01*
X211065Y227730D01*
X211687Y227681D01*
Y225705D01*
X211065Y225656D01*
X210453Y225509D01*
X209871Y225268D01*
X209335Y224939D01*
X208856Y224530D01*
X208447Y224051D01*
X208409Y223990D01*
Y229396D01*
G37*
G36*
Y249396D02*X208447Y249335D01*
X208856Y248856D01*
X209335Y248447D01*
X209871Y248118D01*
X210453Y247877D01*
X211065Y247730D01*
X211687Y247681D01*
Y245693D01*
X211511D01*
X211149Y245660D01*
X210791Y245594D01*
X210441Y245496D01*
X210101Y245367D01*
X209774Y245207D01*
X209708Y245165D01*
X209649Y245112D01*
X209599Y245050D01*
X209560Y244981D01*
X209532Y244907D01*
X209515Y244830D01*
X209511Y244751D01*
X209520Y244672D01*
X209541Y244595D01*
X209573Y244523D01*
X209616Y244457D01*
X209669Y244398D01*
X209731Y244348D01*
X209800Y244309D01*
X209874Y244281D01*
X209951Y244265D01*
X210030Y244261D01*
X210109Y244269D01*
X210185Y244290D01*
X210257Y244323D01*
X210500Y244446D01*
X210755Y244543D01*
X211017Y244616D01*
X211285Y244665D01*
X211557Y244690D01*
X211687D01*
Y238696D01*
X211557D01*
X211285Y238721D01*
X211017Y238770D01*
X210755Y238843D01*
X210500Y238940D01*
X210255Y239060D01*
X210184Y239093D01*
X210108Y239114D01*
X210030Y239122D01*
X209952Y239118D01*
X209875Y239102D01*
X209801Y239074D01*
X209733Y239035D01*
X209671Y238985D01*
X209619Y238927D01*
X209576Y238861D01*
X209544Y238789D01*
X209523Y238713D01*
X209515Y238635D01*
X209519Y238557D01*
X209535Y238479D01*
X209563Y238406D01*
X209602Y238338D01*
X209651Y238276D01*
X209710Y238224D01*
X209776Y238182D01*
X210101Y238019D01*
X210441Y237890D01*
X210791Y237792D01*
X211149Y237726D01*
X211511Y237693D01*
X211687D01*
Y235705D01*
X211065Y235656D01*
X210453Y235509D01*
X209871Y235268D01*
X209335Y234939D01*
X208856Y234530D01*
X208447Y234051D01*
X208409Y233990D01*
Y239558D01*
X208479Y239532D01*
X208556Y239515D01*
X208635Y239511D01*
X208714Y239520D01*
X208790Y239541D01*
X208863Y239573D01*
X208929Y239616D01*
X208988Y239669D01*
X209037Y239731D01*
X209077Y239800D01*
X209105Y239874D01*
X209121Y239951D01*
X209125Y240030D01*
X209117Y240109D01*
X209096Y240185D01*
X209062Y240257D01*
X208940Y240500D01*
X208843Y240755D01*
X208770Y241017D01*
X208721Y241285D01*
X208696Y241557D01*
Y241829D01*
X208721Y242100D01*
X208770Y242368D01*
X208843Y242631D01*
X208940Y242886D01*
X209060Y243130D01*
X209093Y243201D01*
X209114Y243277D01*
X209122Y243356D01*
X209118Y243434D01*
X209102Y243511D01*
X209074Y243585D01*
X209035Y243653D01*
X208985Y243714D01*
X208927Y243767D01*
X208861Y243810D01*
X208789Y243842D01*
X208713Y243863D01*
X208635Y243871D01*
X208557Y243867D01*
X208479Y243851D01*
X208409Y243824D01*
Y249396D01*
G37*
G36*
Y259396D02*X208447Y259335D01*
X208856Y258856D01*
X209335Y258447D01*
X209871Y258118D01*
X210453Y257877D01*
X211065Y257730D01*
X211687Y257681D01*
Y255705D01*
X211065Y255656D01*
X210453Y255509D01*
X209871Y255268D01*
X209335Y254939D01*
X208856Y254530D01*
X208447Y254051D01*
X208409Y253990D01*
Y259396D01*
G37*
G36*
Y269396D02*X208447Y269335D01*
X208856Y268856D01*
X209335Y268447D01*
X209871Y268118D01*
X210453Y267877D01*
X211065Y267730D01*
X211687Y267681D01*
Y265705D01*
X211065Y265656D01*
X210453Y265509D01*
X209871Y265268D01*
X209335Y264939D01*
X208856Y264530D01*
X208447Y264051D01*
X208409Y263990D01*
Y269396D01*
G37*
G36*
Y289396D02*X208447Y289335D01*
X208856Y288856D01*
X209335Y288447D01*
X209871Y288118D01*
X210453Y287877D01*
X211065Y287730D01*
X211687Y287681D01*
Y285693D01*
X211511D01*
X211149Y285660D01*
X210791Y285594D01*
X210441Y285496D01*
X210101Y285367D01*
X209774Y285207D01*
X209708Y285165D01*
X209649Y285112D01*
X209599Y285050D01*
X209560Y284981D01*
X209532Y284907D01*
X209515Y284830D01*
X209511Y284751D01*
X209520Y284672D01*
X209541Y284595D01*
X209573Y284523D01*
X209616Y284457D01*
X209669Y284398D01*
X209731Y284348D01*
X209800Y284309D01*
X209874Y284281D01*
X209951Y284265D01*
X210030Y284261D01*
X210109Y284269D01*
X210185Y284290D01*
X210257Y284323D01*
X210500Y284446D01*
X210755Y284543D01*
X211017Y284616D01*
X211285Y284665D01*
X211557Y284690D01*
X211687D01*
Y278696D01*
X211557D01*
X211285Y278721D01*
X211017Y278770D01*
X210755Y278843D01*
X210500Y278940D01*
X210255Y279060D01*
X210184Y279093D01*
X210108Y279114D01*
X210030Y279122D01*
X209952Y279118D01*
X209875Y279102D01*
X209801Y279074D01*
X209733Y279035D01*
X209671Y278985D01*
X209619Y278927D01*
X209576Y278861D01*
X209544Y278789D01*
X209523Y278713D01*
X209515Y278635D01*
X209519Y278557D01*
X209535Y278479D01*
X209563Y278406D01*
X209602Y278338D01*
X209651Y278276D01*
X209710Y278224D01*
X209776Y278182D01*
X210101Y278019D01*
X210441Y277890D01*
X210791Y277792D01*
X211149Y277726D01*
X211511Y277693D01*
X211687D01*
Y275705D01*
X211065Y275656D01*
X210453Y275509D01*
X209871Y275268D01*
X209335Y274939D01*
X208856Y274530D01*
X208447Y274051D01*
X208409Y273990D01*
Y279558D01*
X208479Y279532D01*
X208556Y279515D01*
X208635Y279511D01*
X208714Y279520D01*
X208790Y279541D01*
X208863Y279573D01*
X208929Y279616D01*
X208988Y279669D01*
X209037Y279731D01*
X209077Y279800D01*
X209105Y279874D01*
X209121Y279951D01*
X209125Y280030D01*
X209117Y280109D01*
X209096Y280185D01*
X209062Y280257D01*
X208940Y280500D01*
X208843Y280755D01*
X208770Y281017D01*
X208721Y281285D01*
X208696Y281557D01*
Y281829D01*
X208721Y282100D01*
X208770Y282368D01*
X208843Y282631D01*
X208940Y282886D01*
X209060Y283130D01*
X209093Y283201D01*
X209114Y283277D01*
X209122Y283356D01*
X209118Y283434D01*
X209102Y283511D01*
X209074Y283585D01*
X209035Y283653D01*
X208985Y283714D01*
X208927Y283767D01*
X208861Y283810D01*
X208789Y283842D01*
X208713Y283863D01*
X208635Y283871D01*
X208557Y283867D01*
X208479Y283851D01*
X208409Y283824D01*
Y289396D01*
G37*
G36*
Y299396D02*X208447Y299335D01*
X208856Y298856D01*
X209335Y298447D01*
X209871Y298118D01*
X210453Y297877D01*
X211065Y297730D01*
X211687Y297681D01*
Y295705D01*
X211065Y295656D01*
X210453Y295509D01*
X209871Y295268D01*
X209335Y294939D01*
X208856Y294530D01*
X208447Y294051D01*
X208409Y293990D01*
Y299396D01*
G37*
G36*
Y306251D02*X209000Y306298D01*
X211251Y306838D01*
X211687Y307019D01*
Y305705D01*
X211065Y305656D01*
X210453Y305509D01*
X209871Y305268D01*
X209335Y304939D01*
X208856Y304530D01*
X208447Y304051D01*
X208409Y303990D01*
Y306251D01*
G37*
G36*
X204977D02*X206693Y306116D01*
X208409Y306251D01*
Y303990D01*
X208118Y303514D01*
X207877Y302933D01*
X207730Y302321D01*
X207681Y301693D01*
X207730Y301065D01*
X207877Y300453D01*
X208118Y299871D01*
X208409Y299396D01*
Y293990D01*
X208118Y293514D01*
X207877Y292933D01*
X207730Y292321D01*
X207681Y291693D01*
X207730Y291065D01*
X207877Y290453D01*
X208118Y289871D01*
X208409Y289396D01*
Y283824D01*
X208406Y283823D01*
X208338Y283784D01*
X208276Y283735D01*
X208224Y283676D01*
X208182Y283610D01*
X208019Y283285D01*
X207890Y282945D01*
X207792Y282595D01*
X207726Y282237D01*
X207693Y281875D01*
Y281511D01*
X207726Y281149D01*
X207792Y280791D01*
X207890Y280441D01*
X208019Y280101D01*
X208178Y279774D01*
X208221Y279708D01*
X208274Y279649D01*
X208336Y279599D01*
X208405Y279560D01*
X208409Y279558D01*
Y273990D01*
X208118Y273514D01*
X207877Y272933D01*
X207730Y272321D01*
X207681Y271693D01*
X207730Y271065D01*
X207877Y270453D01*
X208118Y269871D01*
X208409Y269396D01*
Y263990D01*
X208118Y263514D01*
X207877Y262933D01*
X207730Y262321D01*
X207681Y261693D01*
X207730Y261065D01*
X207877Y260453D01*
X208118Y259871D01*
X208409Y259396D01*
Y253990D01*
X208118Y253514D01*
X207877Y252933D01*
X207730Y252321D01*
X207681Y251693D01*
X207730Y251065D01*
X207877Y250453D01*
X208118Y249871D01*
X208409Y249396D01*
Y243824D01*
X208406Y243823D01*
X208338Y243784D01*
X208276Y243735D01*
X208224Y243676D01*
X208182Y243610D01*
X208019Y243285D01*
X207890Y242945D01*
X207792Y242595D01*
X207726Y242237D01*
X207693Y241875D01*
Y241511D01*
X207726Y241149D01*
X207792Y240791D01*
X207890Y240441D01*
X208019Y240101D01*
X208178Y239774D01*
X208221Y239708D01*
X208274Y239649D01*
X208336Y239599D01*
X208405Y239560D01*
X208409Y239558D01*
Y233990D01*
X208118Y233514D01*
X207877Y232933D01*
X207730Y232321D01*
X207681Y231693D01*
X207730Y231065D01*
X207877Y230453D01*
X208118Y229871D01*
X208409Y229396D01*
Y223990D01*
X208118Y223514D01*
X207877Y222933D01*
X207730Y222321D01*
X207681Y221693D01*
X207730Y221065D01*
X207877Y220453D01*
X208118Y219871D01*
X208409Y219396D01*
Y213824D01*
X208406Y213823D01*
X208338Y213784D01*
X208276Y213735D01*
X208224Y213676D01*
X208182Y213610D01*
X208019Y213285D01*
X207890Y212945D01*
X207792Y212595D01*
X207726Y212237D01*
X207693Y211875D01*
Y211511D01*
X207726Y211149D01*
X207792Y210791D01*
X207890Y210441D01*
X208019Y210101D01*
X208178Y209774D01*
X208221Y209708D01*
X208274Y209649D01*
X208336Y209599D01*
X208405Y209560D01*
X208409Y209558D01*
Y203990D01*
X208118Y203514D01*
X207877Y202933D01*
X207730Y202321D01*
X207681Y201693D01*
X207730Y201065D01*
X207877Y200453D01*
X208118Y199871D01*
X208409Y199396D01*
Y193990D01*
X208118Y193514D01*
X207877Y192933D01*
X207730Y192321D01*
X207681Y191693D01*
X207730Y191065D01*
X207877Y190453D01*
X208118Y189871D01*
X208409Y189396D01*
Y183990D01*
X208118Y183514D01*
X207877Y182933D01*
X207730Y182321D01*
X207681Y181693D01*
X207730Y181065D01*
X207877Y180453D01*
X208118Y179871D01*
X208409Y179396D01*
Y173990D01*
X208118Y173514D01*
X207877Y172933D01*
X207730Y172321D01*
X207681Y171693D01*
X207730Y171065D01*
X207877Y170453D01*
X208118Y169871D01*
X208409Y169396D01*
Y163824D01*
X208406Y163823D01*
X208338Y163784D01*
X208276Y163735D01*
X208224Y163676D01*
X208182Y163610D01*
X208019Y163285D01*
X207890Y162945D01*
X207792Y162595D01*
X207726Y162237D01*
X207693Y161875D01*
Y161511D01*
X207726Y161149D01*
X207792Y160791D01*
X207890Y160441D01*
X208019Y160101D01*
X208178Y159774D01*
X208221Y159708D01*
X208274Y159649D01*
X208336Y159599D01*
X208405Y159560D01*
X208409Y159558D01*
Y153990D01*
X208118Y153514D01*
X207877Y152933D01*
X207730Y152321D01*
X207681Y151693D01*
X207730Y151065D01*
X207877Y150453D01*
X208118Y149871D01*
X208409Y149396D01*
Y143824D01*
X208406Y143823D01*
X208338Y143784D01*
X208276Y143735D01*
X208224Y143676D01*
X208182Y143610D01*
X208019Y143285D01*
X207890Y142945D01*
X207792Y142595D01*
X207726Y142237D01*
X207693Y141875D01*
Y141511D01*
X207726Y141149D01*
X207792Y140791D01*
X207890Y140441D01*
X208019Y140101D01*
X208178Y139774D01*
X208221Y139708D01*
X208274Y139649D01*
X208336Y139599D01*
X208405Y139560D01*
X208409Y139558D01*
Y133990D01*
X208118Y133514D01*
X207877Y132933D01*
X207730Y132321D01*
X207681Y131693D01*
X207730Y131065D01*
X207877Y130453D01*
X208118Y129871D01*
X208409Y129396D01*
Y123990D01*
X208118Y123514D01*
X207877Y122933D01*
X207730Y122321D01*
X207681Y121693D01*
X207730Y121065D01*
X207877Y120453D01*
X208118Y119871D01*
X208409Y119396D01*
Y113990D01*
X208118Y113514D01*
X207877Y112933D01*
X207730Y112321D01*
X207681Y111693D01*
X207730Y111065D01*
X207877Y110453D01*
X208118Y109871D01*
X208409Y109396D01*
Y107134D01*
X206693Y107270D01*
X204977Y107134D01*
Y109562D01*
X204980Y109563D01*
X205048Y109602D01*
X205109Y109651D01*
X205162Y109710D01*
X205204Y109776D01*
X205367Y110101D01*
X205496Y110441D01*
X205594Y110791D01*
X205660Y111149D01*
X205693Y111511D01*
Y111875D01*
X205660Y112237D01*
X205594Y112595D01*
X205496Y112945D01*
X205367Y113285D01*
X205207Y113611D01*
X205165Y113678D01*
X205112Y113737D01*
X205050Y113786D01*
X204981Y113826D01*
X204977Y113828D01*
Y119396D01*
X205268Y119871D01*
X205509Y120453D01*
X205656Y121065D01*
X205693Y121693D01*
X205656Y122321D01*
X205509Y122933D01*
X205268Y123514D01*
X204977Y123990D01*
Y129396D01*
X205268Y129871D01*
X205509Y130453D01*
X205656Y131065D01*
X205693Y131693D01*
X205656Y132321D01*
X205509Y132933D01*
X205268Y133514D01*
X204977Y133990D01*
Y139396D01*
X205268Y139871D01*
X205509Y140453D01*
X205656Y141065D01*
X205693Y141693D01*
X205656Y142321D01*
X205509Y142933D01*
X205268Y143514D01*
X204977Y143990D01*
Y149396D01*
X205268Y149871D01*
X205509Y150453D01*
X205656Y151065D01*
X205693Y151693D01*
X205656Y152321D01*
X205509Y152933D01*
X205268Y153514D01*
X204977Y153990D01*
Y159396D01*
X205268Y159871D01*
X205509Y160453D01*
X205656Y161065D01*
X205693Y161693D01*
X205656Y162321D01*
X205509Y162933D01*
X205268Y163514D01*
X204977Y163990D01*
Y169396D01*
X205268Y169871D01*
X205509Y170453D01*
X205656Y171065D01*
X205693Y171693D01*
X205656Y172321D01*
X205509Y172933D01*
X205268Y173514D01*
X204977Y173990D01*
Y179562D01*
X204980Y179563D01*
X205048Y179602D01*
X205109Y179651D01*
X205162Y179710D01*
X205204Y179776D01*
X205367Y180101D01*
X205496Y180441D01*
X205594Y180791D01*
X205660Y181149D01*
X205693Y181511D01*
Y181875D01*
X205660Y182237D01*
X205594Y182595D01*
X205496Y182945D01*
X205367Y183285D01*
X205207Y183611D01*
X205165Y183678D01*
X205112Y183737D01*
X205050Y183786D01*
X204981Y183826D01*
X204977Y183828D01*
Y189396D01*
X205268Y189871D01*
X205509Y190453D01*
X205656Y191065D01*
X205693Y191693D01*
X205656Y192321D01*
X205509Y192933D01*
X205268Y193514D01*
X204977Y193990D01*
Y199396D01*
X205268Y199871D01*
X205509Y200453D01*
X205656Y201065D01*
X205693Y201693D01*
X205656Y202321D01*
X205509Y202933D01*
X205268Y203514D01*
X204977Y203990D01*
Y209396D01*
X205268Y209871D01*
X205509Y210453D01*
X205656Y211065D01*
X205693Y211693D01*
X205656Y212321D01*
X205509Y212933D01*
X205268Y213514D01*
X204977Y213990D01*
Y219396D01*
X205268Y219871D01*
X205509Y220453D01*
X205656Y221065D01*
X205693Y221693D01*
X205656Y222321D01*
X205509Y222933D01*
X205268Y223514D01*
X204977Y223990D01*
Y229396D01*
X205268Y229871D01*
X205509Y230453D01*
X205656Y231065D01*
X205693Y231693D01*
X205656Y232321D01*
X205509Y232933D01*
X205268Y233514D01*
X204977Y233990D01*
Y239396D01*
X205268Y239871D01*
X205509Y240453D01*
X205656Y241065D01*
X205693Y241693D01*
X205656Y242321D01*
X205509Y242933D01*
X205268Y243514D01*
X204977Y243990D01*
Y249396D01*
X205268Y249871D01*
X205509Y250453D01*
X205656Y251065D01*
X205693Y251693D01*
X205656Y252321D01*
X205509Y252933D01*
X205268Y253514D01*
X204977Y253990D01*
Y259562D01*
X204980Y259563D01*
X205048Y259602D01*
X205109Y259651D01*
X205162Y259710D01*
X205204Y259776D01*
X205367Y260101D01*
X205496Y260441D01*
X205594Y260791D01*
X205660Y261149D01*
X205693Y261511D01*
Y261875D01*
X205660Y262237D01*
X205594Y262595D01*
X205496Y262945D01*
X205367Y263285D01*
X205207Y263611D01*
X205165Y263678D01*
X205112Y263737D01*
X205050Y263786D01*
X204981Y263826D01*
X204977Y263828D01*
Y269396D01*
X205268Y269871D01*
X205509Y270453D01*
X205656Y271065D01*
X205693Y271693D01*
X205656Y272321D01*
X205509Y272933D01*
X205268Y273514D01*
X204977Y273990D01*
Y279396D01*
X205268Y279871D01*
X205509Y280453D01*
X205656Y281065D01*
X205693Y281693D01*
X205656Y282321D01*
X205509Y282933D01*
X205268Y283514D01*
X204977Y283990D01*
Y289396D01*
X205268Y289871D01*
X205509Y290453D01*
X205656Y291065D01*
X205693Y291693D01*
X205656Y292321D01*
X205509Y292933D01*
X205268Y293514D01*
X204977Y293990D01*
Y297733D01*
X205003Y297739D01*
X205148Y297799D01*
X205283Y297881D01*
X205402Y297984D01*
X205504Y298103D01*
X205587Y298238D01*
X205647Y298383D01*
X205684Y298536D01*
X205696Y298693D01*
X205693Y298732D01*
Y304654D01*
X205696Y304693D01*
X205684Y304850D01*
X205684Y304850D01*
X205647Y305003D01*
X205587Y305148D01*
X205504Y305283D01*
X205402Y305402D01*
X205283Y305504D01*
X205148Y305587D01*
X205003Y305647D01*
X204977Y305653D01*
Y306251D01*
G37*
G36*
Y293990D02*X204939Y294051D01*
X204530Y294530D01*
X204051Y294939D01*
X203514Y295268D01*
X202933Y295509D01*
X202321Y295656D01*
X201693Y295705D01*
Y297693D01*
X204654D01*
X204693Y297690D01*
X204850Y297702D01*
X204850Y297702D01*
X204977Y297733D01*
Y293990D01*
G37*
G36*
Y283990D02*X204939Y284051D01*
X204530Y284530D01*
X204051Y284939D01*
X203514Y285268D01*
X202933Y285509D01*
X202321Y285656D01*
X201693Y285705D01*
Y287681D01*
X202321Y287730D01*
X202933Y287877D01*
X203514Y288118D01*
X204051Y288447D01*
X204530Y288856D01*
X204939Y289335D01*
X204977Y289396D01*
Y283990D01*
G37*
G36*
Y273990D02*X204939Y274051D01*
X204530Y274530D01*
X204051Y274939D01*
X203514Y275268D01*
X202933Y275509D01*
X202321Y275656D01*
X201693Y275705D01*
Y277681D01*
X202321Y277730D01*
X202933Y277877D01*
X203514Y278118D01*
X204051Y278447D01*
X204530Y278856D01*
X204939Y279335D01*
X204977Y279396D01*
Y273990D01*
G37*
G36*
Y253990D02*X204939Y254051D01*
X204530Y254530D01*
X204051Y254939D01*
X203514Y255268D01*
X202933Y255509D01*
X202321Y255656D01*
X201693Y255705D01*
Y257693D01*
X201875D01*
X202237Y257726D01*
X202595Y257792D01*
X202945Y257890D01*
X203285Y258019D01*
X203611Y258178D01*
X203678Y258221D01*
X203737Y258274D01*
X203786Y258336D01*
X203826Y258405D01*
X203854Y258479D01*
X203870Y258556D01*
X203874Y258635D01*
X203866Y258714D01*
X203845Y258790D01*
X203813Y258863D01*
X203770Y258929D01*
X203716Y258988D01*
X203655Y259037D01*
X203586Y259077D01*
X203512Y259105D01*
X203435Y259121D01*
X203356Y259125D01*
X203277Y259117D01*
X203200Y259096D01*
X203129Y259062D01*
X202886Y258940D01*
X202631Y258843D01*
X202368Y258770D01*
X202100Y258721D01*
X201829Y258696D01*
X201693D01*
Y264690D01*
X201829D01*
X202100Y264665D01*
X202368Y264616D01*
X202631Y264543D01*
X202886Y264446D01*
X203130Y264326D01*
X203201Y264293D01*
X203277Y264272D01*
X203356Y264264D01*
X203434Y264268D01*
X203511Y264284D01*
X203585Y264312D01*
X203653Y264351D01*
X203714Y264400D01*
X203767Y264459D01*
X203810Y264525D01*
X203842Y264596D01*
X203863Y264672D01*
X203871Y264751D01*
X203867Y264829D01*
X203851Y264906D01*
X203823Y264980D01*
X203784Y265048D01*
X203735Y265109D01*
X203676Y265162D01*
X203610Y265204D01*
X203285Y265367D01*
X202945Y265496D01*
X202595Y265594D01*
X202237Y265660D01*
X201875Y265693D01*
X201693D01*
Y267681D01*
X202321Y267730D01*
X202933Y267877D01*
X203514Y268118D01*
X204051Y268447D01*
X204530Y268856D01*
X204939Y269335D01*
X204977Y269396D01*
Y263828D01*
X204907Y263854D01*
X204830Y263870D01*
X204751Y263874D01*
X204672Y263866D01*
X204595Y263845D01*
X204523Y263813D01*
X204457Y263770D01*
X204398Y263716D01*
X204348Y263655D01*
X204309Y263586D01*
X204281Y263512D01*
X204265Y263435D01*
X204261Y263356D01*
X204269Y263277D01*
X204290Y263200D01*
X204323Y263129D01*
X204446Y262886D01*
X204543Y262631D01*
X204616Y262368D01*
X204665Y262100D01*
X204690Y261829D01*
Y261557D01*
X204665Y261285D01*
X204616Y261017D01*
X204543Y260755D01*
X204446Y260500D01*
X204326Y260255D01*
X204293Y260184D01*
X204272Y260108D01*
X204264Y260030D01*
X204268Y259952D01*
X204284Y259875D01*
X204312Y259801D01*
X204351Y259733D01*
X204400Y259671D01*
X204459Y259619D01*
X204525Y259576D01*
X204596Y259544D01*
X204672Y259523D01*
X204751Y259515D01*
X204829Y259519D01*
X204906Y259535D01*
X204977Y259562D01*
Y253990D01*
G37*
G36*
Y243990D02*X204939Y244051D01*
X204530Y244530D01*
X204051Y244939D01*
X203514Y245268D01*
X202933Y245509D01*
X202321Y245656D01*
X201693Y245705D01*
Y247681D01*
X202321Y247730D01*
X202933Y247877D01*
X203514Y248118D01*
X204051Y248447D01*
X204530Y248856D01*
X204939Y249335D01*
X204977Y249396D01*
Y243990D01*
G37*
G36*
Y233990D02*X204939Y234051D01*
X204530Y234530D01*
X204051Y234939D01*
X203514Y235268D01*
X202933Y235509D01*
X202321Y235656D01*
X201693Y235705D01*
Y237681D01*
X202321Y237730D01*
X202933Y237877D01*
X203514Y238118D01*
X204051Y238447D01*
X204530Y238856D01*
X204939Y239335D01*
X204977Y239396D01*
Y233990D01*
G37*
G36*
Y223990D02*X204939Y224051D01*
X204530Y224530D01*
X204051Y224939D01*
X203514Y225268D01*
X202933Y225509D01*
X202321Y225656D01*
X201693Y225705D01*
Y227681D01*
X202321Y227730D01*
X202933Y227877D01*
X203514Y228118D01*
X204051Y228447D01*
X204530Y228856D01*
X204939Y229335D01*
X204977Y229396D01*
Y223990D01*
G37*
G36*
Y213990D02*X204939Y214051D01*
X204530Y214530D01*
X204051Y214939D01*
X203514Y215268D01*
X202933Y215509D01*
X202321Y215656D01*
X201693Y215705D01*
Y217681D01*
X202321Y217730D01*
X202933Y217877D01*
X203514Y218118D01*
X204051Y218447D01*
X204530Y218856D01*
X204939Y219335D01*
X204977Y219396D01*
Y213990D01*
G37*
G36*
Y203990D02*X204939Y204051D01*
X204530Y204530D01*
X204051Y204939D01*
X203514Y205268D01*
X202933Y205509D01*
X202321Y205656D01*
X201693Y205705D01*
Y207681D01*
X202321Y207730D01*
X202933Y207877D01*
X203514Y208118D01*
X204051Y208447D01*
X204530Y208856D01*
X204939Y209335D01*
X204977Y209396D01*
Y203990D01*
G37*
G36*
Y193990D02*X204939Y194051D01*
X204530Y194530D01*
X204051Y194939D01*
X203514Y195268D01*
X202933Y195509D01*
X202321Y195656D01*
X201693Y195705D01*
Y197681D01*
X202321Y197730D01*
X202933Y197877D01*
X203514Y198118D01*
X204051Y198447D01*
X204530Y198856D01*
X204939Y199335D01*
X204977Y199396D01*
Y193990D01*
G37*
G36*
Y173990D02*X204939Y174051D01*
X204530Y174530D01*
X204051Y174939D01*
X203514Y175268D01*
X202933Y175509D01*
X202321Y175656D01*
X201693Y175705D01*
Y177693D01*
X201875D01*
X202237Y177726D01*
X202595Y177792D01*
X202945Y177890D01*
X203285Y178019D01*
X203611Y178178D01*
X203678Y178221D01*
X203737Y178274D01*
X203786Y178336D01*
X203826Y178405D01*
X203854Y178479D01*
X203870Y178556D01*
X203874Y178635D01*
X203866Y178714D01*
X203845Y178790D01*
X203813Y178863D01*
X203770Y178929D01*
X203716Y178988D01*
X203655Y179037D01*
X203586Y179077D01*
X203512Y179105D01*
X203435Y179121D01*
X203356Y179125D01*
X203277Y179117D01*
X203200Y179096D01*
X203129Y179062D01*
X202886Y178940D01*
X202631Y178843D01*
X202368Y178770D01*
X202100Y178721D01*
X201829Y178696D01*
X201693D01*
Y184690D01*
X201829D01*
X202100Y184665D01*
X202368Y184616D01*
X202631Y184543D01*
X202886Y184446D01*
X203130Y184326D01*
X203201Y184293D01*
X203277Y184272D01*
X203356Y184264D01*
X203434Y184268D01*
X203511Y184284D01*
X203585Y184312D01*
X203653Y184351D01*
X203714Y184400D01*
X203767Y184459D01*
X203810Y184525D01*
X203842Y184596D01*
X203863Y184672D01*
X203871Y184751D01*
X203867Y184829D01*
X203851Y184906D01*
X203823Y184980D01*
X203784Y185048D01*
X203735Y185109D01*
X203676Y185162D01*
X203610Y185204D01*
X203285Y185367D01*
X202945Y185496D01*
X202595Y185594D01*
X202237Y185660D01*
X201875Y185693D01*
X201693D01*
Y187681D01*
X202321Y187730D01*
X202933Y187877D01*
X203514Y188118D01*
X204051Y188447D01*
X204530Y188856D01*
X204939Y189335D01*
X204977Y189396D01*
Y183828D01*
X204907Y183854D01*
X204830Y183870D01*
X204751Y183874D01*
X204672Y183866D01*
X204595Y183845D01*
X204523Y183813D01*
X204457Y183770D01*
X204398Y183716D01*
X204348Y183655D01*
X204309Y183586D01*
X204281Y183512D01*
X204265Y183435D01*
X204261Y183356D01*
X204269Y183277D01*
X204290Y183200D01*
X204323Y183129D01*
X204446Y182886D01*
X204543Y182631D01*
X204616Y182368D01*
X204665Y182100D01*
X204690Y181829D01*
Y181557D01*
X204665Y181285D01*
X204616Y181017D01*
X204543Y180755D01*
X204446Y180500D01*
X204326Y180255D01*
X204293Y180184D01*
X204272Y180108D01*
X204264Y180030D01*
X204268Y179952D01*
X204284Y179875D01*
X204312Y179801D01*
X204351Y179733D01*
X204400Y179671D01*
X204459Y179619D01*
X204525Y179576D01*
X204596Y179544D01*
X204672Y179523D01*
X204751Y179515D01*
X204829Y179519D01*
X204906Y179535D01*
X204977Y179562D01*
Y173990D01*
G37*
G36*
Y163990D02*X204939Y164051D01*
X204530Y164530D01*
X204051Y164939D01*
X203514Y165268D01*
X202933Y165509D01*
X202321Y165656D01*
X201693Y165705D01*
Y167681D01*
X202321Y167730D01*
X202933Y167877D01*
X203514Y168118D01*
X204051Y168447D01*
X204530Y168856D01*
X204939Y169335D01*
X204977Y169396D01*
Y163990D01*
G37*
G36*
Y153990D02*X204939Y154051D01*
X204530Y154530D01*
X204051Y154939D01*
X203514Y155268D01*
X202933Y155509D01*
X202321Y155656D01*
X201693Y155705D01*
Y157681D01*
X202321Y157730D01*
X202933Y157877D01*
X203514Y158118D01*
X204051Y158447D01*
X204530Y158856D01*
X204939Y159335D01*
X204977Y159396D01*
Y153990D01*
G37*
G36*
Y143990D02*X204939Y144051D01*
X204530Y144530D01*
X204051Y144939D01*
X203514Y145268D01*
X202933Y145509D01*
X202321Y145656D01*
X201693Y145705D01*
Y147681D01*
X202321Y147730D01*
X202933Y147877D01*
X203514Y148118D01*
X204051Y148447D01*
X204530Y148856D01*
X204939Y149335D01*
X204977Y149396D01*
Y143990D01*
G37*
G36*
Y133990D02*X204939Y134051D01*
X204530Y134530D01*
X204051Y134939D01*
X203514Y135268D01*
X202933Y135509D01*
X202321Y135656D01*
X201693Y135705D01*
Y137681D01*
X202321Y137730D01*
X202933Y137877D01*
X203514Y138118D01*
X204051Y138447D01*
X204530Y138856D01*
X204939Y139335D01*
X204977Y139396D01*
Y133990D01*
G37*
G36*
Y123990D02*X204939Y124051D01*
X204530Y124530D01*
X204051Y124939D01*
X203514Y125268D01*
X202933Y125509D01*
X202321Y125656D01*
X201693Y125705D01*
Y127681D01*
X202321Y127730D01*
X202933Y127877D01*
X203514Y128118D01*
X204051Y128447D01*
X204530Y128856D01*
X204939Y129335D01*
X204977Y129396D01*
Y123990D01*
G37*
G36*
Y107134D02*X204386Y107088D01*
X202135Y106548D01*
X201693Y106365D01*
Y107693D01*
X201875D01*
X202237Y107726D01*
X202595Y107792D01*
X202945Y107890D01*
X203285Y108019D01*
X203611Y108178D01*
X203678Y108221D01*
X203737Y108274D01*
X203786Y108336D01*
X203826Y108405D01*
X203854Y108479D01*
X203870Y108556D01*
X203874Y108635D01*
X203866Y108714D01*
X203845Y108790D01*
X203813Y108863D01*
X203770Y108929D01*
X203716Y108988D01*
X203655Y109037D01*
X203586Y109077D01*
X203512Y109105D01*
X203435Y109121D01*
X203356Y109125D01*
X203277Y109117D01*
X203200Y109096D01*
X203129Y109062D01*
X202886Y108940D01*
X202631Y108843D01*
X202368Y108770D01*
X202100Y108721D01*
X201829Y108696D01*
X201693D01*
Y114690D01*
X201829D01*
X202100Y114665D01*
X202368Y114616D01*
X202631Y114543D01*
X202886Y114446D01*
X203130Y114326D01*
X203201Y114293D01*
X203277Y114272D01*
X203356Y114264D01*
X203434Y114268D01*
X203511Y114284D01*
X203585Y114312D01*
X203653Y114351D01*
X203714Y114400D01*
X203767Y114459D01*
X203810Y114525D01*
X203842Y114596D01*
X203863Y114672D01*
X203871Y114751D01*
X203867Y114829D01*
X203851Y114906D01*
X203823Y114980D01*
X203784Y115048D01*
X203735Y115109D01*
X203676Y115162D01*
X203610Y115204D01*
X203285Y115367D01*
X202945Y115496D01*
X202595Y115594D01*
X202237Y115660D01*
X201875Y115693D01*
X201693D01*
Y117681D01*
X202321Y117730D01*
X202933Y117877D01*
X203514Y118118D01*
X204051Y118447D01*
X204530Y118856D01*
X204939Y119335D01*
X204977Y119396D01*
Y113828D01*
X204907Y113854D01*
X204830Y113870D01*
X204751Y113874D01*
X204672Y113866D01*
X204595Y113845D01*
X204523Y113813D01*
X204457Y113770D01*
X204398Y113716D01*
X204348Y113655D01*
X204309Y113586D01*
X204281Y113512D01*
X204265Y113435D01*
X204261Y113356D01*
X204269Y113277D01*
X204290Y113200D01*
X204323Y113129D01*
X204446Y112886D01*
X204543Y112631D01*
X204616Y112368D01*
X204665Y112100D01*
X204690Y111829D01*
Y111557D01*
X204665Y111285D01*
X204616Y111017D01*
X204543Y110755D01*
X204446Y110500D01*
X204326Y110255D01*
X204293Y110184D01*
X204272Y110108D01*
X204264Y110030D01*
X204268Y109952D01*
X204284Y109875D01*
X204312Y109801D01*
X204351Y109733D01*
X204400Y109671D01*
X204459Y109619D01*
X204525Y109576D01*
X204596Y109544D01*
X204672Y109523D01*
X204751Y109515D01*
X204829Y109519D01*
X204906Y109535D01*
X204977Y109562D01*
Y107134D01*
G37*
G36*
X201693Y307021D02*X202135Y306838D01*
X204386Y306298D01*
X204977Y306251D01*
Y305653D01*
X204850Y305684D01*
X204693Y305696D01*
X204654Y305693D01*
X201693D01*
Y307021D01*
G37*
G36*
X198409Y80350D02*X199997Y79377D01*
X201693Y78675D01*
Y1969D01*
X198409D01*
Y80350D01*
G37*
G36*
Y119396D02*X198447Y119335D01*
X198856Y118856D01*
X199335Y118447D01*
X199871Y118118D01*
X200453Y117877D01*
X201065Y117730D01*
X201693Y117681D01*
Y115693D01*
X201511D01*
X201149Y115660D01*
X200791Y115594D01*
X200441Y115496D01*
X200101Y115367D01*
X199774Y115207D01*
X199708Y115165D01*
X199649Y115112D01*
X199599Y115050D01*
X199560Y114981D01*
X199532Y114907D01*
X199515Y114830D01*
X199511Y114751D01*
X199520Y114672D01*
X199541Y114595D01*
X199573Y114523D01*
X199616Y114457D01*
X199669Y114398D01*
X199731Y114348D01*
X199800Y114309D01*
X199874Y114281D01*
X199951Y114265D01*
X200030Y114261D01*
X200109Y114269D01*
X200185Y114290D01*
X200257Y114323D01*
X200500Y114446D01*
X200755Y114543D01*
X201017Y114616D01*
X201285Y114665D01*
X201557Y114690D01*
X201693D01*
Y108696D01*
X201557D01*
X201285Y108721D01*
X201017Y108770D01*
X200755Y108843D01*
X200500Y108940D01*
X200255Y109060D01*
X200184Y109093D01*
X200108Y109114D01*
X200030Y109122D01*
X199952Y109118D01*
X199875Y109102D01*
X199801Y109074D01*
X199733Y109035D01*
X199671Y108985D01*
X199619Y108927D01*
X199576Y108861D01*
X199544Y108789D01*
X199523Y108713D01*
X199515Y108635D01*
X199519Y108557D01*
X199535Y108479D01*
X199563Y108406D01*
X199602Y108338D01*
X199651Y108276D01*
X199710Y108224D01*
X199776Y108182D01*
X200101Y108019D01*
X200441Y107890D01*
X200791Y107792D01*
X201149Y107726D01*
X201511Y107693D01*
X201693D01*
Y106365D01*
X199997Y105662D01*
X198409Y104689D01*
Y109558D01*
X198479Y109532D01*
X198556Y109515D01*
X198635Y109511D01*
X198714Y109520D01*
X198790Y109541D01*
X198863Y109573D01*
X198929Y109616D01*
X198988Y109669D01*
X199037Y109731D01*
X199077Y109800D01*
X199105Y109874D01*
X199121Y109951D01*
X199125Y110030D01*
X199117Y110109D01*
X199096Y110185D01*
X199062Y110257D01*
X198940Y110500D01*
X198843Y110755D01*
X198770Y111017D01*
X198721Y111285D01*
X198696Y111557D01*
Y111829D01*
X198721Y112100D01*
X198770Y112368D01*
X198843Y112631D01*
X198940Y112886D01*
X199060Y113130D01*
X199093Y113201D01*
X199114Y113277D01*
X199122Y113356D01*
X199118Y113434D01*
X199102Y113511D01*
X199074Y113585D01*
X199035Y113653D01*
X198985Y113714D01*
X198927Y113767D01*
X198861Y113810D01*
X198789Y113842D01*
X198713Y113863D01*
X198635Y113871D01*
X198557Y113867D01*
X198479Y113851D01*
X198409Y113824D01*
Y119396D01*
G37*
G36*
Y129396D02*X198447Y129335D01*
X198856Y128856D01*
X199335Y128447D01*
X199871Y128118D01*
X200453Y127877D01*
X201065Y127730D01*
X201693Y127681D01*
Y125705D01*
X201065Y125656D01*
X200453Y125509D01*
X199871Y125268D01*
X199335Y124939D01*
X198856Y124530D01*
X198447Y124051D01*
X198409Y123990D01*
Y129396D01*
G37*
G36*
Y139396D02*X198447Y139335D01*
X198856Y138856D01*
X199335Y138447D01*
X199871Y138118D01*
X200453Y137877D01*
X201065Y137730D01*
X201693Y137681D01*
Y135705D01*
X201065Y135656D01*
X200453Y135509D01*
X199871Y135268D01*
X199335Y134939D01*
X198856Y134530D01*
X198447Y134051D01*
X198409Y133990D01*
Y139396D01*
G37*
G36*
Y149396D02*X198447Y149335D01*
X198856Y148856D01*
X199335Y148447D01*
X199871Y148118D01*
X200453Y147877D01*
X201065Y147730D01*
X201693Y147681D01*
Y145705D01*
X201065Y145656D01*
X200453Y145509D01*
X199871Y145268D01*
X199335Y144939D01*
X198856Y144530D01*
X198447Y144051D01*
X198409Y143990D01*
Y149396D01*
G37*
G36*
Y159396D02*X198447Y159335D01*
X198856Y158856D01*
X199335Y158447D01*
X199871Y158118D01*
X200453Y157877D01*
X201065Y157730D01*
X201693Y157681D01*
Y155705D01*
X201065Y155656D01*
X200453Y155509D01*
X199871Y155268D01*
X199335Y154939D01*
X198856Y154530D01*
X198447Y154051D01*
X198409Y153990D01*
Y159396D01*
G37*
G36*
Y169396D02*X198447Y169335D01*
X198856Y168856D01*
X199335Y168447D01*
X199871Y168118D01*
X200453Y167877D01*
X201065Y167730D01*
X201693Y167681D01*
Y165705D01*
X201065Y165656D01*
X200453Y165509D01*
X199871Y165268D01*
X199335Y164939D01*
X198856Y164530D01*
X198447Y164051D01*
X198409Y163990D01*
Y169396D01*
G37*
G36*
Y189396D02*X198447Y189335D01*
X198856Y188856D01*
X199335Y188447D01*
X199871Y188118D01*
X200453Y187877D01*
X201065Y187730D01*
X201693Y187681D01*
Y185693D01*
X201511D01*
X201149Y185660D01*
X200791Y185594D01*
X200441Y185496D01*
X200101Y185367D01*
X199774Y185207D01*
X199708Y185165D01*
X199649Y185112D01*
X199599Y185050D01*
X199560Y184981D01*
X199532Y184907D01*
X199515Y184830D01*
X199511Y184751D01*
X199520Y184672D01*
X199541Y184595D01*
X199573Y184523D01*
X199616Y184457D01*
X199669Y184398D01*
X199731Y184348D01*
X199800Y184309D01*
X199874Y184281D01*
X199951Y184265D01*
X200030Y184261D01*
X200109Y184269D01*
X200185Y184290D01*
X200257Y184323D01*
X200500Y184446D01*
X200755Y184543D01*
X201017Y184616D01*
X201285Y184665D01*
X201557Y184690D01*
X201693D01*
Y178696D01*
X201557D01*
X201285Y178721D01*
X201017Y178770D01*
X200755Y178843D01*
X200500Y178940D01*
X200255Y179060D01*
X200184Y179093D01*
X200108Y179114D01*
X200030Y179122D01*
X199952Y179118D01*
X199875Y179102D01*
X199801Y179074D01*
X199733Y179035D01*
X199671Y178985D01*
X199619Y178927D01*
X199576Y178861D01*
X199544Y178789D01*
X199523Y178713D01*
X199515Y178635D01*
X199519Y178557D01*
X199535Y178479D01*
X199563Y178406D01*
X199602Y178338D01*
X199651Y178276D01*
X199710Y178224D01*
X199776Y178182D01*
X200101Y178019D01*
X200441Y177890D01*
X200791Y177792D01*
X201149Y177726D01*
X201511Y177693D01*
X201693D01*
Y175705D01*
X201065Y175656D01*
X200453Y175509D01*
X199871Y175268D01*
X199335Y174939D01*
X198856Y174530D01*
X198447Y174051D01*
X198409Y173990D01*
Y179558D01*
X198479Y179532D01*
X198556Y179515D01*
X198635Y179511D01*
X198714Y179520D01*
X198790Y179541D01*
X198863Y179573D01*
X198929Y179616D01*
X198988Y179669D01*
X199037Y179731D01*
X199077Y179800D01*
X199105Y179874D01*
X199121Y179951D01*
X199125Y180030D01*
X199117Y180109D01*
X199096Y180185D01*
X199062Y180257D01*
X198940Y180500D01*
X198843Y180755D01*
X198770Y181017D01*
X198721Y181285D01*
X198696Y181557D01*
Y181829D01*
X198721Y182100D01*
X198770Y182368D01*
X198843Y182631D01*
X198940Y182886D01*
X199060Y183130D01*
X199093Y183201D01*
X199114Y183277D01*
X199122Y183356D01*
X199118Y183434D01*
X199102Y183511D01*
X199074Y183585D01*
X199035Y183653D01*
X198985Y183714D01*
X198927Y183767D01*
X198861Y183810D01*
X198789Y183842D01*
X198713Y183863D01*
X198635Y183871D01*
X198557Y183867D01*
X198479Y183851D01*
X198409Y183824D01*
Y189396D01*
G37*
G36*
Y199396D02*X198447Y199335D01*
X198856Y198856D01*
X199335Y198447D01*
X199871Y198118D01*
X200453Y197877D01*
X201065Y197730D01*
X201693Y197681D01*
Y195705D01*
X201065Y195656D01*
X200453Y195509D01*
X199871Y195268D01*
X199335Y194939D01*
X198856Y194530D01*
X198447Y194051D01*
X198409Y193990D01*
Y199396D01*
G37*
G36*
Y209396D02*X198447Y209335D01*
X198856Y208856D01*
X199335Y208447D01*
X199871Y208118D01*
X200453Y207877D01*
X201065Y207730D01*
X201693Y207681D01*
Y205705D01*
X201065Y205656D01*
X200453Y205509D01*
X199871Y205268D01*
X199335Y204939D01*
X198856Y204530D01*
X198447Y204051D01*
X198409Y203990D01*
Y209396D01*
G37*
G36*
Y219396D02*X198447Y219335D01*
X198856Y218856D01*
X199335Y218447D01*
X199871Y218118D01*
X200453Y217877D01*
X201065Y217730D01*
X201693Y217681D01*
Y215705D01*
X201065Y215656D01*
X200453Y215509D01*
X199871Y215268D01*
X199335Y214939D01*
X198856Y214530D01*
X198447Y214051D01*
X198409Y213990D01*
Y219396D01*
G37*
G36*
Y229396D02*X198447Y229335D01*
X198856Y228856D01*
X199335Y228447D01*
X199871Y228118D01*
X200453Y227877D01*
X201065Y227730D01*
X201693Y227681D01*
Y225705D01*
X201065Y225656D01*
X200453Y225509D01*
X199871Y225268D01*
X199335Y224939D01*
X198856Y224530D01*
X198447Y224051D01*
X198409Y223990D01*
Y229396D01*
G37*
G36*
Y239396D02*X198447Y239335D01*
X198856Y238856D01*
X199335Y238447D01*
X199871Y238118D01*
X200453Y237877D01*
X201065Y237730D01*
X201693Y237681D01*
Y235705D01*
X201065Y235656D01*
X200453Y235509D01*
X199871Y235268D01*
X199335Y234939D01*
X198856Y234530D01*
X198447Y234051D01*
X198409Y233990D01*
Y239396D01*
G37*
G36*
Y249396D02*X198447Y249335D01*
X198856Y248856D01*
X199335Y248447D01*
X199871Y248118D01*
X200453Y247877D01*
X201065Y247730D01*
X201693Y247681D01*
Y245705D01*
X201065Y245656D01*
X200453Y245509D01*
X199871Y245268D01*
X199335Y244939D01*
X198856Y244530D01*
X198447Y244051D01*
X198409Y243990D01*
Y249396D01*
G37*
G36*
Y269396D02*X198447Y269335D01*
X198856Y268856D01*
X199335Y268447D01*
X199871Y268118D01*
X200453Y267877D01*
X201065Y267730D01*
X201693Y267681D01*
Y265693D01*
X201511D01*
X201149Y265660D01*
X200791Y265594D01*
X200441Y265496D01*
X200101Y265367D01*
X199774Y265207D01*
X199708Y265165D01*
X199649Y265112D01*
X199599Y265050D01*
X199560Y264981D01*
X199532Y264907D01*
X199515Y264830D01*
X199511Y264751D01*
X199520Y264672D01*
X199541Y264595D01*
X199573Y264523D01*
X199616Y264457D01*
X199669Y264398D01*
X199731Y264348D01*
X199800Y264309D01*
X199874Y264281D01*
X199951Y264265D01*
X200030Y264261D01*
X200109Y264269D01*
X200185Y264290D01*
X200257Y264323D01*
X200500Y264446D01*
X200755Y264543D01*
X201017Y264616D01*
X201285Y264665D01*
X201557Y264690D01*
X201693D01*
Y258696D01*
X201557D01*
X201285Y258721D01*
X201017Y258770D01*
X200755Y258843D01*
X200500Y258940D01*
X200255Y259060D01*
X200184Y259093D01*
X200108Y259114D01*
X200030Y259122D01*
X199952Y259118D01*
X199875Y259102D01*
X199801Y259074D01*
X199733Y259035D01*
X199671Y258985D01*
X199619Y258927D01*
X199576Y258861D01*
X199544Y258789D01*
X199523Y258713D01*
X199515Y258635D01*
X199519Y258557D01*
X199535Y258479D01*
X199563Y258406D01*
X199602Y258338D01*
X199651Y258276D01*
X199710Y258224D01*
X199776Y258182D01*
X200101Y258019D01*
X200441Y257890D01*
X200791Y257792D01*
X201149Y257726D01*
X201511Y257693D01*
X201693D01*
Y255705D01*
X201065Y255656D01*
X200453Y255509D01*
X199871Y255268D01*
X199335Y254939D01*
X198856Y254530D01*
X198447Y254051D01*
X198409Y253990D01*
Y259558D01*
X198479Y259532D01*
X198556Y259515D01*
X198635Y259511D01*
X198714Y259520D01*
X198790Y259541D01*
X198863Y259573D01*
X198929Y259616D01*
X198988Y259669D01*
X199037Y259731D01*
X199077Y259800D01*
X199105Y259874D01*
X199121Y259951D01*
X199125Y260030D01*
X199117Y260109D01*
X199096Y260185D01*
X199062Y260257D01*
X198940Y260500D01*
X198843Y260755D01*
X198770Y261017D01*
X198721Y261285D01*
X198696Y261557D01*
Y261829D01*
X198721Y262100D01*
X198770Y262368D01*
X198843Y262631D01*
X198940Y262886D01*
X199060Y263130D01*
X199093Y263201D01*
X199114Y263277D01*
X199122Y263356D01*
X199118Y263434D01*
X199102Y263511D01*
X199074Y263585D01*
X199035Y263653D01*
X198985Y263714D01*
X198927Y263767D01*
X198861Y263810D01*
X198789Y263842D01*
X198713Y263863D01*
X198635Y263871D01*
X198557Y263867D01*
X198479Y263851D01*
X198409Y263824D01*
Y269396D01*
G37*
G36*
Y279396D02*X198447Y279335D01*
X198856Y278856D01*
X199335Y278447D01*
X199871Y278118D01*
X200453Y277877D01*
X201065Y277730D01*
X201693Y277681D01*
Y275705D01*
X201065Y275656D01*
X200453Y275509D01*
X199871Y275268D01*
X199335Y274939D01*
X198856Y274530D01*
X198447Y274051D01*
X198409Y273990D01*
Y279396D01*
G37*
G36*
Y289396D02*X198447Y289335D01*
X198856Y288856D01*
X199335Y288447D01*
X199871Y288118D01*
X200453Y287877D01*
X201065Y287730D01*
X201693Y287681D01*
Y285705D01*
X201065Y285656D01*
X200453Y285509D01*
X199871Y285268D01*
X199335Y284939D01*
X198856Y284530D01*
X198447Y284051D01*
X198409Y283990D01*
Y289396D01*
G37*
G36*
Y297733D02*X198536Y297702D01*
X198693Y297690D01*
X198732Y297693D01*
X201693D01*
Y295705D01*
X201065Y295656D01*
X200453Y295509D01*
X199871Y295268D01*
X199335Y294939D01*
X198856Y294530D01*
X198447Y294051D01*
X198409Y293990D01*
Y297733D01*
G37*
G36*
Y308697D02*X199997Y307724D01*
X201693Y307021D01*
Y305693D01*
X198732D01*
X198693Y305696D01*
X198536Y305684D01*
X198536Y305684D01*
X198409Y305653D01*
Y308697D01*
G37*
G36*
X179129Y332677D02*X197880D01*
X196263Y331296D01*
X194760Y329536D01*
X193551Y327562D01*
X192665Y325424D01*
X192125Y323174D01*
X191943Y320866D01*
X192125Y318559D01*
X192665Y316308D01*
X193551Y314170D01*
X194760Y312196D01*
X196263Y310436D01*
X198023Y308933D01*
X198409Y308697D01*
Y305653D01*
X198383Y305647D01*
X198238Y305587D01*
X198103Y305504D01*
X197984Y305402D01*
X197881Y305283D01*
X197799Y305148D01*
X197739Y305003D01*
X197702Y304850D01*
X197690Y304693D01*
X197693Y304654D01*
Y298732D01*
X197690Y298693D01*
X197702Y298536D01*
X197702Y298536D01*
X197739Y298383D01*
X197799Y298238D01*
X197881Y298103D01*
X197984Y297984D01*
X198103Y297881D01*
X198238Y297799D01*
X198383Y297739D01*
X198409Y297733D01*
Y293990D01*
X198118Y293514D01*
X197877Y292933D01*
X197730Y292321D01*
X197681Y291693D01*
X197730Y291065D01*
X197877Y290453D01*
X198118Y289871D01*
X198409Y289396D01*
Y283990D01*
X198118Y283514D01*
X197877Y282933D01*
X197730Y282321D01*
X197681Y281693D01*
X197730Y281065D01*
X197877Y280453D01*
X198118Y279871D01*
X198409Y279396D01*
Y273990D01*
X198118Y273514D01*
X197877Y272933D01*
X197730Y272321D01*
X197681Y271693D01*
X197730Y271065D01*
X197877Y270453D01*
X198118Y269871D01*
X198409Y269396D01*
Y263824D01*
X198406Y263823D01*
X198338Y263784D01*
X198276Y263735D01*
X198224Y263676D01*
X198182Y263610D01*
X198019Y263285D01*
X197890Y262945D01*
X197792Y262595D01*
X197726Y262237D01*
X197693Y261875D01*
Y261511D01*
X197726Y261149D01*
X197792Y260791D01*
X197890Y260441D01*
X198019Y260101D01*
X198178Y259774D01*
X198221Y259708D01*
X198274Y259649D01*
X198336Y259599D01*
X198405Y259560D01*
X198409Y259558D01*
Y253990D01*
X198118Y253514D01*
X197877Y252933D01*
X197730Y252321D01*
X197681Y251693D01*
X197730Y251065D01*
X197877Y250453D01*
X198118Y249871D01*
X198409Y249396D01*
Y243990D01*
X198118Y243514D01*
X197877Y242933D01*
X197730Y242321D01*
X197681Y241693D01*
X197730Y241065D01*
X197877Y240453D01*
X198118Y239871D01*
X198409Y239396D01*
Y233990D01*
X198118Y233514D01*
X197877Y232933D01*
X197730Y232321D01*
X197681Y231693D01*
X197730Y231065D01*
X197877Y230453D01*
X198118Y229871D01*
X198409Y229396D01*
Y223990D01*
X198118Y223514D01*
X197877Y222933D01*
X197730Y222321D01*
X197681Y221693D01*
X197730Y221065D01*
X197877Y220453D01*
X198118Y219871D01*
X198409Y219396D01*
Y213990D01*
X198118Y213514D01*
X197877Y212933D01*
X197730Y212321D01*
X197681Y211693D01*
X197730Y211065D01*
X197877Y210453D01*
X198118Y209871D01*
X198409Y209396D01*
Y203990D01*
X198118Y203514D01*
X197877Y202933D01*
X197730Y202321D01*
X197681Y201693D01*
X197730Y201065D01*
X197877Y200453D01*
X198118Y199871D01*
X198409Y199396D01*
Y193990D01*
X198118Y193514D01*
X197877Y192933D01*
X197730Y192321D01*
X197681Y191693D01*
X197730Y191065D01*
X197877Y190453D01*
X198118Y189871D01*
X198409Y189396D01*
Y183824D01*
X198406Y183823D01*
X198338Y183784D01*
X198276Y183735D01*
X198224Y183676D01*
X198182Y183610D01*
X198019Y183285D01*
X197890Y182945D01*
X197792Y182595D01*
X197726Y182237D01*
X197693Y181875D01*
Y181511D01*
X197726Y181149D01*
X197792Y180791D01*
X197890Y180441D01*
X198019Y180101D01*
X198178Y179774D01*
X198221Y179708D01*
X198274Y179649D01*
X198336Y179599D01*
X198405Y179560D01*
X198409Y179558D01*
Y173990D01*
X198118Y173514D01*
X197877Y172933D01*
X197730Y172321D01*
X197681Y171693D01*
X197730Y171065D01*
X197877Y170453D01*
X198118Y169871D01*
X198409Y169396D01*
Y163990D01*
X198118Y163514D01*
X197877Y162933D01*
X197730Y162321D01*
X197681Y161693D01*
X197730Y161065D01*
X197877Y160453D01*
X198118Y159871D01*
X198409Y159396D01*
Y153990D01*
X198118Y153514D01*
X197877Y152933D01*
X197730Y152321D01*
X197681Y151693D01*
X197730Y151065D01*
X197877Y150453D01*
X198118Y149871D01*
X198409Y149396D01*
Y143990D01*
X198118Y143514D01*
X197877Y142933D01*
X197730Y142321D01*
X197681Y141693D01*
X197730Y141065D01*
X197877Y140453D01*
X198118Y139871D01*
X198409Y139396D01*
Y133990D01*
X198118Y133514D01*
X197877Y132933D01*
X197730Y132321D01*
X197681Y131693D01*
X197730Y131065D01*
X197877Y130453D01*
X198118Y129871D01*
X198409Y129396D01*
Y123990D01*
X198118Y123514D01*
X197877Y122933D01*
X197730Y122321D01*
X197681Y121693D01*
X197730Y121065D01*
X197877Y120453D01*
X198118Y119871D01*
X198409Y119396D01*
Y113824D01*
X198406Y113823D01*
X198338Y113784D01*
X198276Y113735D01*
X198224Y113676D01*
X198182Y113610D01*
X198019Y113285D01*
X197890Y112945D01*
X197792Y112595D01*
X197726Y112237D01*
X197693Y111875D01*
Y111511D01*
X197726Y111149D01*
X197792Y110791D01*
X197890Y110441D01*
X198019Y110101D01*
X198178Y109774D01*
X198221Y109708D01*
X198274Y109649D01*
X198336Y109599D01*
X198405Y109560D01*
X198409Y109558D01*
Y104689D01*
X198023Y104453D01*
X196263Y102949D01*
X194760Y101189D01*
X193551Y99216D01*
X192665Y97078D01*
X192125Y94827D01*
X191943Y92520D01*
X192125Y90212D01*
X192665Y87962D01*
X193551Y85823D01*
X194760Y83850D01*
X196263Y82090D01*
X198023Y80587D01*
X198409Y80350D01*
Y1969D01*
X179129D01*
Y240232D01*
X184509D01*
X184764Y239816D01*
X185096Y239427D01*
X185485Y239095D01*
X185922Y238828D01*
X186394Y238632D01*
X186892Y238512D01*
X187402Y238472D01*
X187912Y238512D01*
X188409Y238632D01*
X188882Y238828D01*
X189318Y239095D01*
X189707Y239427D01*
X190039Y239816D01*
X190306Y240252D01*
X190502Y240725D01*
X190621Y241222D01*
X190652Y241732D01*
X190621Y242242D01*
X190502Y242740D01*
X190306Y243212D01*
X190039Y243648D01*
X189707Y244037D01*
X189318Y244370D01*
X188882Y244637D01*
X188409Y244833D01*
X187912Y244952D01*
X187402Y244992D01*
X186892Y244952D01*
X186394Y244833D01*
X185922Y244637D01*
X185485Y244370D01*
X185096Y244037D01*
X184764Y243648D01*
X184509Y243232D01*
X179129D01*
Y332677D01*
G37*
G36*
X145074D02*X179129D01*
Y243232D01*
X173759D01*
X173504Y243648D01*
X173171Y244037D01*
X172782Y244370D01*
X172346Y244637D01*
X171874Y244833D01*
X171376Y244952D01*
X170866Y244992D01*
X170356Y244952D01*
X169859Y244833D01*
X169386Y244637D01*
X168950Y244370D01*
X168561Y244037D01*
X168229Y243648D01*
X167961Y243212D01*
X167766Y242740D01*
X167646Y242242D01*
X167606Y241732D01*
X167646Y241222D01*
X167766Y240725D01*
X167961Y240252D01*
X168229Y239816D01*
X168561Y239427D01*
X168950Y239095D01*
X169386Y238828D01*
X169859Y238632D01*
X170356Y238512D01*
X170866Y238472D01*
X171376Y238512D01*
X171874Y238632D01*
X172346Y238828D01*
X172782Y239095D01*
X173171Y239427D01*
X173504Y239816D01*
X173759Y240232D01*
X179129D01*
Y1969D01*
X145074D01*
Y270154D01*
X154194D01*
X154449Y269737D01*
X154781Y269348D01*
X155170Y269016D01*
X155607Y268749D01*
X156079Y268553D01*
X156577Y268434D01*
X157087Y268394D01*
X157597Y268434D01*
X158094Y268553D01*
X158567Y268749D01*
X159003Y269016D01*
X159392Y269348D01*
X159724Y269737D01*
X159991Y270174D01*
X160187Y270646D01*
X160306Y271144D01*
X160337Y271654D01*
X160306Y272164D01*
X160187Y272661D01*
X159991Y273134D01*
X159724Y273570D01*
X159392Y273959D01*
X159003Y274291D01*
X158567Y274558D01*
X158094Y274754D01*
X157597Y274873D01*
X157087Y274914D01*
X156577Y274873D01*
X156079Y274754D01*
X155607Y274558D01*
X155170Y274291D01*
X154781Y273959D01*
X154449Y273570D01*
X154194Y273154D01*
X145074D01*
Y332677D01*
G37*
G36*
X134253Y268626D02*X134551Y268749D01*
X134987Y269016D01*
X135376Y269348D01*
X135708Y269737D01*
X135963Y270154D01*
X145074D01*
Y1969D01*
X134253D01*
Y17931D01*
X134275Y17936D01*
X134420Y17996D01*
X134525Y18061D01*
X134521Y18000D01*
X134524Y17961D01*
Y12039D01*
X134521Y12000D01*
X134533Y11843D01*
X134533Y11843D01*
X134570Y11690D01*
X134630Y11545D01*
X134712Y11410D01*
X134814Y11291D01*
X134934Y11188D01*
X135068Y11106D01*
X135214Y11046D01*
X135367Y11009D01*
X135524Y10997D01*
X135563Y11000D01*
X141484D01*
X141524Y10997D01*
X141680Y11009D01*
X141681Y11009D01*
X141834Y11046D01*
X141979Y11106D01*
X142113Y11188D01*
X142233Y11291D01*
X142335Y11410D01*
X142417Y11545D01*
X142478Y11690D01*
X142514Y11843D01*
X142527Y12000D01*
X142524Y12039D01*
Y17961D01*
X142527Y18000D01*
X142514Y18157D01*
X142514Y18157D01*
X142478Y18310D01*
X142417Y18455D01*
X142335Y18590D01*
X142233Y18709D01*
X142113Y18812D01*
X141979Y18894D01*
X141834Y18954D01*
X141681Y18991D01*
X141524Y19003D01*
X141484Y19000D01*
X135563D01*
X135524Y19003D01*
X135367Y18991D01*
X135367Y18991D01*
X135214Y18954D01*
X135068Y18894D01*
X134963Y18829D01*
X134968Y18890D01*
X134965Y18929D01*
Y24851D01*
X134968Y24890D01*
X134955Y25046D01*
X134955Y25047D01*
X134919Y25200D01*
X134858Y25345D01*
X134776Y25479D01*
X134674Y25599D01*
X134554Y25701D01*
X134420Y25784D01*
X134275Y25844D01*
X134253Y25849D01*
Y77931D01*
X134275Y77936D01*
X134420Y77996D01*
X134554Y78078D01*
X134674Y78180D01*
X134776Y78300D01*
X134858Y78434D01*
X134919Y78580D01*
X134955Y78733D01*
X134968Y78890D01*
X134965Y78929D01*
Y84851D01*
X134968Y84890D01*
X134963Y84950D01*
X135068Y84886D01*
X135214Y84826D01*
X135367Y84789D01*
X135524Y84776D01*
X135563Y84780D01*
X141484D01*
X141524Y84776D01*
X141680Y84789D01*
X141681Y84789D01*
X141834Y84826D01*
X141979Y84886D01*
X142113Y84968D01*
X142233Y85070D01*
X142335Y85190D01*
X142417Y85324D01*
X142478Y85470D01*
X142514Y85623D01*
X142527Y85780D01*
X142524Y85819D01*
Y91740D01*
X142527Y91780D01*
X142514Y91936D01*
X142514Y91936D01*
X142478Y92090D01*
X142417Y92235D01*
X142335Y92369D01*
X142233Y92489D01*
X142113Y92591D01*
X141979Y92673D01*
X141834Y92734D01*
X141681Y92770D01*
X141524Y92783D01*
X141484Y92780D01*
X135563D01*
X135524Y92783D01*
X135367Y92770D01*
X135367Y92770D01*
X135214Y92734D01*
X135068Y92673D01*
X134934Y92591D01*
X134814Y92489D01*
X134712Y92369D01*
X134630Y92235D01*
X134570Y92090D01*
X134533Y91936D01*
X134521Y91780D01*
X134524Y91740D01*
Y85819D01*
X134521Y85780D01*
X134525Y85719D01*
X134420Y85784D01*
X134275Y85844D01*
X134253Y85849D01*
Y268626D01*
G37*
G36*
X136880Y332677D02*X145074D01*
Y273154D01*
X136880D01*
Y319648D01*
X136939Y319665D01*
X137010Y319699D01*
X137075Y319743D01*
X137133Y319797D01*
X137181Y319860D01*
X137217Y319929D01*
X137332Y320212D01*
X137417Y320504D01*
X137473Y320804D01*
X137502Y321107D01*
Y321412D01*
X137473Y321716D01*
X137417Y322015D01*
X137332Y322308D01*
X137220Y322592D01*
X137183Y322661D01*
X137135Y322724D01*
X137077Y322778D01*
X137012Y322823D01*
X136940Y322857D01*
X136880Y322874D01*
Y332677D01*
G37*
G36*
X134253D02*X136880D01*
Y322874D01*
X136864Y322879D01*
X136786Y322889D01*
X136707Y322887D01*
X136629Y322872D01*
X136555Y322845D01*
X136485Y322808D01*
X136423Y322759D01*
X136368Y322702D01*
X136324Y322636D01*
X136290Y322565D01*
X136268Y322489D01*
X136258Y322411D01*
X136260Y322331D01*
X136275Y322254D01*
X136303Y322180D01*
X136382Y321985D01*
X136440Y321782D01*
X136480Y321575D01*
X136499Y321365D01*
Y321154D01*
X136480Y320945D01*
X136440Y320737D01*
X136382Y320535D01*
X136305Y320339D01*
X136277Y320265D01*
X136262Y320188D01*
X136260Y320109D01*
X136270Y320031D01*
X136292Y319956D01*
X136326Y319885D01*
X136370Y319820D01*
X136424Y319762D01*
X136487Y319714D01*
X136556Y319676D01*
X136630Y319650D01*
X136707Y319635D01*
X136786Y319633D01*
X136864Y319643D01*
X136880Y319648D01*
Y273154D01*
X135963D01*
X135708Y273570D01*
X135376Y273959D01*
X134987Y274291D01*
X134551Y274558D01*
X134253Y274682D01*
Y318010D01*
X134404D01*
X134708Y318038D01*
X135007Y318095D01*
X135300Y318180D01*
X135584Y318291D01*
X135653Y318329D01*
X135716Y318377D01*
X135770Y318435D01*
X135815Y318500D01*
X135849Y318572D01*
X135871Y318647D01*
X135881Y318726D01*
X135879Y318805D01*
X135864Y318883D01*
X135838Y318957D01*
X135800Y319027D01*
X135751Y319089D01*
X135694Y319143D01*
X135628Y319188D01*
X135557Y319222D01*
X135481Y319244D01*
X135403Y319254D01*
X135324Y319252D01*
X135246Y319237D01*
X135172Y319209D01*
X134977Y319130D01*
X134774Y319071D01*
X134567Y319032D01*
X134357Y319012D01*
X134253D01*
Y323507D01*
X134357D01*
X134567Y323488D01*
X134774Y323448D01*
X134977Y323390D01*
X135173Y323313D01*
X135247Y323285D01*
X135324Y323270D01*
X135403Y323268D01*
X135481Y323278D01*
X135556Y323300D01*
X135627Y323334D01*
X135692Y323378D01*
X135749Y323432D01*
X135798Y323494D01*
X135835Y323564D01*
X135862Y323638D01*
X135876Y323715D01*
X135879Y323794D01*
X135869Y323872D01*
X135846Y323947D01*
X135813Y324018D01*
X135768Y324083D01*
X135714Y324141D01*
X135652Y324189D01*
X135582Y324225D01*
X135300Y324340D01*
X135007Y324425D01*
X134708Y324481D01*
X134404Y324510D01*
X134253D01*
Y332677D01*
G37*
G36*
X131624Y11000D02*X132036D01*
X132075Y10997D01*
X132232Y11009D01*
X132232Y11009D01*
X132385Y11046D01*
X132530Y11106D01*
X132664Y11188D01*
X132784Y11291D01*
X132886Y11410D01*
X132969Y11545D01*
X133029Y11690D01*
X133066Y11843D01*
X133078Y12000D01*
X133075Y12039D01*
Y17890D01*
X133925D01*
X133965Y17887D01*
X134121Y17899D01*
X134121Y17899D01*
X134253Y17931D01*
Y1969D01*
X131624D01*
Y11000D01*
G37*
G36*
Y77890D02*X133925D01*
X133965Y77887D01*
X134121Y77899D01*
X134121Y77899D01*
X134253Y77931D01*
Y25849D01*
X134121Y25881D01*
X133965Y25893D01*
X133925Y25890D01*
X131624D01*
Y77890D01*
G37*
G36*
Y268735D02*X132063Y268553D01*
X132561Y268434D01*
X133071Y268394D01*
X133581Y268434D01*
X134078Y268553D01*
X134253Y268626D01*
Y85849D01*
X134121Y85881D01*
X133965Y85893D01*
X133925Y85890D01*
X133075D01*
Y91740D01*
X133078Y91780D01*
X133066Y91936D01*
X133066Y91936D01*
X133029Y92090D01*
X132969Y92235D01*
X132886Y92369D01*
X132784Y92489D01*
X132664Y92591D01*
X132530Y92673D01*
X132385Y92734D01*
X132232Y92770D01*
X132075Y92783D01*
X132036Y92780D01*
X131624D01*
Y268735D01*
G37*
G36*
Y332677D02*X134253D01*
Y324510D01*
X134100D01*
X133796Y324481D01*
X133497Y324425D01*
X133204Y324340D01*
X132920Y324228D01*
X132850Y324191D01*
X132788Y324142D01*
X132734Y324085D01*
X132689Y324020D01*
X132655Y323948D01*
X132633Y323872D01*
X132623Y323794D01*
X132625Y323715D01*
X132640Y323637D01*
X132666Y323563D01*
X132704Y323493D01*
X132753Y323431D01*
X132810Y323376D01*
X132875Y323332D01*
X132947Y323298D01*
X133023Y323276D01*
X133101Y323265D01*
X133180Y323268D01*
X133258Y323282D01*
X133332Y323310D01*
X133527Y323390D01*
X133730Y323448D01*
X133937Y323488D01*
X134147Y323507D01*
X134253D01*
Y319012D01*
X134147D01*
X133937Y319032D01*
X133730Y319071D01*
X133527Y319130D01*
X133331Y319207D01*
X133257Y319235D01*
X133180Y319249D01*
X133101Y319252D01*
X133023Y319242D01*
X132948Y319220D01*
X132877Y319186D01*
X132812Y319142D01*
X132754Y319087D01*
X132706Y319025D01*
X132669Y318956D01*
X132642Y318882D01*
X132628Y318805D01*
X132625Y318726D01*
X132635Y318648D01*
X132657Y318572D01*
X132691Y318501D01*
X132736Y318436D01*
X132790Y318379D01*
X132852Y318331D01*
X132922Y318295D01*
X133204Y318180D01*
X133497Y318095D01*
X133796Y318038D01*
X134100Y318010D01*
X134253D01*
Y274682D01*
X134078Y274754D01*
X133581Y274873D01*
X133071Y274914D01*
X132561Y274873D01*
X132063Y274754D01*
X131624Y274572D01*
Y319645D01*
X131640Y319641D01*
X131718Y319631D01*
X131797Y319633D01*
X131875Y319648D01*
X131949Y319674D01*
X132019Y319712D01*
X132081Y319760D01*
X132136Y319818D01*
X132180Y319883D01*
X132214Y319955D01*
X132236Y320031D01*
X132246Y320109D01*
X132244Y320188D01*
X132229Y320266D01*
X132201Y320340D01*
X132122Y320535D01*
X132063Y320737D01*
X132024Y320945D01*
X132004Y321154D01*
Y321365D01*
X132024Y321575D01*
X132063Y321782D01*
X132122Y321985D01*
X132199Y322181D01*
X132227Y322254D01*
X132242Y322332D01*
X132244Y322410D01*
X132234Y322488D01*
X132212Y322564D01*
X132178Y322635D01*
X132134Y322700D01*
X132080Y322757D01*
X132017Y322805D01*
X131948Y322843D01*
X131874Y322870D01*
X131797Y322884D01*
X131718Y322887D01*
X131640Y322876D01*
X131624Y322872D01*
Y332677D01*
G37*
G36*
X101798D02*X131624D01*
Y322872D01*
X131565Y322854D01*
X131493Y322821D01*
X131428Y322776D01*
X131371Y322722D01*
X131323Y322660D01*
X131287Y322590D01*
X131172Y322308D01*
X131087Y322015D01*
X131030Y321716D01*
X131002Y321412D01*
Y321107D01*
X131030Y320804D01*
X131087Y320504D01*
X131172Y320212D01*
X131284Y319928D01*
X131321Y319858D01*
X131369Y319796D01*
X131427Y319741D01*
X131492Y319697D01*
X131564Y319663D01*
X131624Y319645D01*
Y274572D01*
X131591Y274558D01*
X131155Y274291D01*
X130766Y273959D01*
X130433Y273570D01*
X130166Y273134D01*
X129970Y272661D01*
X129851Y272164D01*
X129811Y271654D01*
X129851Y271144D01*
X129970Y270646D01*
X130166Y270174D01*
X130433Y269737D01*
X130766Y269348D01*
X131155Y269016D01*
X131591Y268749D01*
X131624Y268735D01*
Y92780D01*
X126114D01*
X126075Y92783D01*
X125918Y92770D01*
X125918Y92770D01*
X125765Y92734D01*
X125619Y92673D01*
X125485Y92591D01*
X125366Y92489D01*
X125263Y92369D01*
X125181Y92235D01*
X125121Y92090D01*
X125084Y91936D01*
X125072Y91780D01*
X125075Y91740D01*
Y85819D01*
X125072Y85780D01*
X125084Y85623D01*
X125084Y85623D01*
X125121Y85470D01*
X125181Y85324D01*
X125263Y85190D01*
X125366Y85070D01*
X125485Y84968D01*
X125619Y84886D01*
X125765Y84826D01*
X125918Y84789D01*
X126075Y84776D01*
X126114Y84780D01*
X126965D01*
Y78929D01*
X126961Y78890D01*
X126974Y78733D01*
X126974Y78733D01*
X127011Y78580D01*
X127071Y78434D01*
X127153Y78300D01*
X127255Y78180D01*
X127375Y78078D01*
X127509Y77996D01*
X127655Y77936D01*
X127808Y77899D01*
X127965Y77887D01*
X128004Y77890D01*
X131624D01*
Y25890D01*
X128004D01*
X127965Y25893D01*
X127808Y25881D01*
X127808Y25881D01*
X127655Y25844D01*
X127509Y25784D01*
X127375Y25701D01*
X127255Y25599D01*
X127153Y25479D01*
X127071Y25345D01*
X127011Y25200D01*
X126974Y25047D01*
X126961Y24890D01*
X126965Y24851D01*
Y19000D01*
X126114D01*
X126075Y19003D01*
X125918Y18991D01*
X125918Y18991D01*
X125765Y18954D01*
X125619Y18894D01*
X125485Y18812D01*
X125366Y18709D01*
X125263Y18590D01*
X125181Y18455D01*
X125121Y18310D01*
X125084Y18157D01*
X125072Y18000D01*
X125075Y17961D01*
Y12039D01*
X125072Y12000D01*
X125084Y11843D01*
X125084Y11843D01*
X125121Y11690D01*
X125181Y11545D01*
X125263Y11410D01*
X125366Y11291D01*
X125485Y11188D01*
X125619Y11106D01*
X125765Y11046D01*
X125918Y11009D01*
X126075Y10997D01*
X126114Y11000D01*
X131624D01*
Y1969D01*
X101798D01*
Y306210D01*
X101806Y306209D01*
X102580Y306270D01*
X103336Y306451D01*
X104054Y306749D01*
X104716Y307155D01*
X105307Y307660D01*
X105812Y308250D01*
X106218Y308913D01*
X106515Y309631D01*
X106697Y310387D01*
X106743Y311161D01*
X106697Y311936D01*
X106515Y312692D01*
X106218Y313410D01*
X105812Y314072D01*
X105307Y314663D01*
X104716Y315168D01*
X104054Y315574D01*
X103336Y315871D01*
X102580Y316053D01*
X101806Y316114D01*
X101798Y316113D01*
Y332677D01*
G37*
G36*
X96138D02*X101798D01*
Y316113D01*
X101031Y316053D01*
X100275Y315871D01*
X99557Y315574D01*
X98895Y315168D01*
X98304Y314663D01*
X97799Y314072D01*
X97393Y313410D01*
X97096Y312692D01*
X96914Y311936D01*
X96853Y311161D01*
X96914Y310387D01*
X97096Y309631D01*
X97393Y308913D01*
X97799Y308250D01*
X98304Y307660D01*
X98895Y307155D01*
X99557Y306749D01*
X100275Y306451D01*
X101031Y306270D01*
X101798Y306210D01*
Y1969D01*
X96138D01*
Y12869D01*
X96141Y12870D01*
X96210Y12909D01*
X96271Y12958D01*
X96324Y13017D01*
X96365Y13083D01*
X96528Y13408D01*
X96658Y13748D01*
X96756Y14098D01*
X96821Y14456D01*
X96854Y14818D01*
Y15182D01*
X96821Y15544D01*
X96756Y15902D01*
X96658Y16252D01*
X96528Y16592D01*
X96369Y16919D01*
X96326Y16985D01*
X96273Y17044D01*
X96211Y17094D01*
X96143Y17133D01*
X96138Y17135D01*
Y86648D01*
X96141Y86649D01*
X96210Y86689D01*
X96271Y86738D01*
X96324Y86796D01*
X96365Y86863D01*
X96528Y87188D01*
X96658Y87528D01*
X96756Y87878D01*
X96821Y88236D01*
X96854Y88598D01*
Y88961D01*
X96821Y89324D01*
X96756Y89681D01*
X96658Y90031D01*
X96528Y90371D01*
X96369Y90698D01*
X96326Y90765D01*
X96273Y90823D01*
X96211Y90873D01*
X96143Y90913D01*
X96138Y90914D01*
Y332677D01*
G37*
G36*
X94248D02*X96138D01*
Y90914D01*
X96069Y90941D01*
X95991Y90957D01*
X95912Y90961D01*
X95833Y90953D01*
X95757Y90932D01*
X95685Y90899D01*
X95618Y90856D01*
X95560Y90803D01*
X95510Y90741D01*
X95470Y90673D01*
X95442Y90599D01*
X95426Y90521D01*
X95422Y90442D01*
X95430Y90363D01*
X95451Y90287D01*
X95485Y90215D01*
X95607Y89972D01*
X95704Y89717D01*
X95777Y89455D01*
X95827Y89187D01*
X95851Y88916D01*
Y88643D01*
X95827Y88372D01*
X95777Y88104D01*
X95704Y87842D01*
X95607Y87587D01*
X95488Y87342D01*
X95454Y87271D01*
X95433Y87195D01*
X95425Y87117D01*
X95429Y87038D01*
X95445Y86961D01*
X95473Y86888D01*
X95512Y86819D01*
X95562Y86758D01*
X95620Y86705D01*
X95686Y86662D01*
X95758Y86630D01*
X95834Y86610D01*
X95912Y86601D01*
X95991Y86605D01*
X96068Y86621D01*
X96138Y86648D01*
Y17135D01*
X96069Y17161D01*
X95991Y17178D01*
X95912Y17181D01*
X95833Y17173D01*
X95757Y17152D01*
X95685Y17120D01*
X95618Y17077D01*
X95560Y17024D01*
X95510Y16962D01*
X95470Y16893D01*
X95442Y16819D01*
X95426Y16742D01*
X95422Y16663D01*
X95430Y16584D01*
X95451Y16507D01*
X95485Y16436D01*
X95607Y16193D01*
X95704Y15938D01*
X95777Y15676D01*
X95827Y15408D01*
X95851Y15136D01*
Y14864D01*
X95827Y14592D01*
X95777Y14324D01*
X95704Y14062D01*
X95607Y13807D01*
X95488Y13563D01*
X95454Y13491D01*
X95433Y13415D01*
X95425Y13337D01*
X95429Y13259D01*
X95445Y13182D01*
X95473Y13108D01*
X95512Y13040D01*
X95562Y12979D01*
X95620Y12926D01*
X95686Y12883D01*
X95758Y12851D01*
X95834Y12830D01*
X95912Y12822D01*
X95991Y12826D01*
X96068Y12842D01*
X96138Y12869D01*
Y1969D01*
X94248D01*
Y11251D01*
X94446Y11326D01*
X94773Y11485D01*
X94839Y11528D01*
X94898Y11581D01*
X94948Y11643D01*
X94987Y11712D01*
X95016Y11786D01*
X95032Y11863D01*
X95036Y11942D01*
X95027Y12021D01*
X95007Y12097D01*
X94974Y12170D01*
X94931Y12236D01*
X94878Y12295D01*
X94816Y12344D01*
X94748Y12384D01*
X94674Y12412D01*
X94596Y12428D01*
X94517Y12432D01*
X94438Y12424D01*
X94362Y12403D01*
X94290Y12370D01*
X94248Y12348D01*
Y17654D01*
X94292Y17633D01*
X94363Y17600D01*
X94439Y17579D01*
X94517Y17571D01*
X94596Y17575D01*
X94673Y17591D01*
X94746Y17619D01*
X94814Y17658D01*
X94876Y17707D01*
X94929Y17766D01*
X94972Y17832D01*
X95004Y17904D01*
X95024Y17980D01*
X95033Y18058D01*
X95029Y18136D01*
X95013Y18213D01*
X94985Y18287D01*
X94945Y18355D01*
X94896Y18416D01*
X94838Y18469D01*
X94771Y18511D01*
X94446Y18674D01*
X94248Y18749D01*
Y19758D01*
X94252Y19760D01*
X94320Y19799D01*
X94381Y19848D01*
X94434Y19907D01*
X94475Y19973D01*
X94639Y20298D01*
X94768Y20638D01*
X94866Y20988D01*
X94932Y21346D01*
X94965Y21708D01*
Y22072D01*
X94932Y22434D01*
X94866Y22791D01*
X94768Y23142D01*
X94639Y23482D01*
X94479Y23808D01*
X94436Y23875D01*
X94383Y23934D01*
X94322Y23983D01*
X94253Y24023D01*
X94248Y24024D01*
Y79758D01*
X94252Y79760D01*
X94320Y79799D01*
X94381Y79848D01*
X94434Y79907D01*
X94475Y79973D01*
X94639Y80298D01*
X94768Y80638D01*
X94866Y80988D01*
X94932Y81346D01*
X94965Y81708D01*
Y82072D01*
X94932Y82434D01*
X94866Y82791D01*
X94768Y83142D01*
X94639Y83482D01*
X94479Y83808D01*
X94436Y83875D01*
X94383Y83934D01*
X94322Y83983D01*
X94253Y84023D01*
X94248Y84024D01*
Y85030D01*
X94446Y85105D01*
X94773Y85265D01*
X94839Y85308D01*
X94898Y85361D01*
X94948Y85423D01*
X94987Y85491D01*
X95016Y85565D01*
X95032Y85643D01*
X95036Y85722D01*
X95027Y85801D01*
X95007Y85877D01*
X94974Y85949D01*
X94931Y86016D01*
X94878Y86074D01*
X94816Y86124D01*
X94748Y86163D01*
X94674Y86192D01*
X94596Y86208D01*
X94517Y86212D01*
X94438Y86203D01*
X94362Y86183D01*
X94290Y86149D01*
X94248Y86128D01*
Y91434D01*
X94292Y91413D01*
X94363Y91379D01*
X94439Y91359D01*
X94517Y91350D01*
X94596Y91354D01*
X94673Y91370D01*
X94746Y91398D01*
X94814Y91438D01*
X94876Y91487D01*
X94929Y91545D01*
X94972Y91611D01*
X95004Y91683D01*
X95024Y91759D01*
X95033Y91837D01*
X95029Y91916D01*
X95013Y91993D01*
X94985Y92066D01*
X94945Y92135D01*
X94896Y92196D01*
X94838Y92249D01*
X94771Y92290D01*
X94446Y92454D01*
X94248Y92529D01*
Y332677D01*
G37*
G36*
Y86128D02*X94047Y86027D01*
X93792Y85930D01*
X93530Y85857D01*
X93262Y85807D01*
X92991Y85783D01*
X92853D01*
Y91776D01*
X92991D01*
X93262Y91752D01*
X93530Y91702D01*
X93792Y91629D01*
X94047Y91532D01*
X94248Y91434D01*
Y86128D01*
G37*
G36*
Y18749D02*X94106Y18803D01*
X93756Y18901D01*
X93398Y18967D01*
X93114Y18993D01*
X93085Y19059D01*
X93041Y19126D01*
X92988Y19185D01*
X92926Y19234D01*
X92858Y19274D01*
X92853Y19276D01*
Y24507D01*
X92856Y24509D01*
X92925Y24548D01*
X92986Y24597D01*
X93039Y24656D01*
X93082Y24722D01*
X93114Y24793D01*
X93135Y24869D01*
X93143Y24948D01*
X93139Y25026D01*
X93123Y25103D01*
X93095Y25177D01*
X93056Y25245D01*
X93006Y25306D01*
X92948Y25359D01*
X92881Y25401D01*
X92853Y25415D01*
Y78360D01*
X92883Y78375D01*
X92950Y78418D01*
X93008Y78471D01*
X93058Y78533D01*
X93098Y78601D01*
X93126Y78675D01*
X93142Y78753D01*
X93146Y78832D01*
X93138Y78911D01*
X93117Y78987D01*
X93085Y79059D01*
X93041Y79126D01*
X92988Y79185D01*
X92926Y79234D01*
X92858Y79274D01*
X92853Y79276D01*
Y84507D01*
X92856Y84509D01*
X92925Y84548D01*
X92986Y84597D01*
X93039Y84656D01*
X93082Y84722D01*
X93111Y84786D01*
X93398Y84813D01*
X93756Y84878D01*
X94106Y84976D01*
X94248Y85030D01*
Y84024D01*
X94179Y84051D01*
X94101Y84067D01*
X94022Y84071D01*
X93944Y84063D01*
X93867Y84042D01*
X93795Y84010D01*
X93729Y83966D01*
X93670Y83913D01*
X93620Y83852D01*
X93581Y83783D01*
X93552Y83709D01*
X93536Y83632D01*
X93532Y83552D01*
X93541Y83474D01*
X93561Y83397D01*
X93595Y83326D01*
X93717Y83082D01*
X93814Y82828D01*
X93888Y82565D01*
X93937Y82297D01*
X93961Y82026D01*
Y81754D01*
X93937Y81482D01*
X93888Y81214D01*
X93814Y80952D01*
X93717Y80697D01*
X93598Y80452D01*
X93564Y80381D01*
X93544Y80305D01*
X93535Y80227D01*
X93539Y80148D01*
X93555Y80071D01*
X93583Y79998D01*
X93623Y79930D01*
X93672Y79868D01*
X93730Y79816D01*
X93796Y79773D01*
X93868Y79740D01*
X93944Y79720D01*
X94022Y79711D01*
X94101Y79715D01*
X94178Y79732D01*
X94248Y79758D01*
Y24024D01*
X94179Y24051D01*
X94101Y24067D01*
X94022Y24071D01*
X93944Y24063D01*
X93867Y24042D01*
X93795Y24010D01*
X93729Y23966D01*
X93670Y23913D01*
X93620Y23852D01*
X93581Y23783D01*
X93552Y23709D01*
X93536Y23632D01*
X93532Y23552D01*
X93541Y23474D01*
X93561Y23397D01*
X93595Y23326D01*
X93717Y23082D01*
X93814Y22828D01*
X93888Y22565D01*
X93937Y22297D01*
X93961Y22026D01*
Y21754D01*
X93937Y21482D01*
X93888Y21214D01*
X93814Y20952D01*
X93717Y20697D01*
X93598Y20452D01*
X93564Y20381D01*
X93544Y20305D01*
X93535Y20227D01*
X93539Y20148D01*
X93555Y20071D01*
X93583Y19998D01*
X93623Y19930D01*
X93672Y19868D01*
X93730Y19816D01*
X93796Y19773D01*
X93868Y19740D01*
X93944Y19720D01*
X94022Y19711D01*
X94101Y19715D01*
X94178Y19732D01*
X94248Y19758D01*
Y18749D01*
G37*
G36*
Y12348D02*X94047Y12247D01*
X93792Y12150D01*
X93530Y12077D01*
X93262Y12028D01*
X92991Y12003D01*
X92853D01*
Y17997D01*
X92991D01*
X93262Y17972D01*
X93530Y17923D01*
X93792Y17850D01*
X94047Y17753D01*
X94248Y17654D01*
Y12348D01*
G37*
G36*
Y1969D02*X92853D01*
Y11000D01*
X93036D01*
X93398Y11033D01*
X93756Y11099D01*
X94106Y11197D01*
X94248Y11251D01*
Y1969D01*
G37*
G36*
X92853Y332677D02*X94248D01*
Y92529D01*
X94106Y92583D01*
X93756Y92681D01*
X93398Y92747D01*
X93036Y92780D01*
X92853D01*
Y332677D01*
G37*
G36*
X89571Y18140D02*X89713Y18086D01*
X90063Y17988D01*
X90421Y17923D01*
X90705Y17897D01*
X90734Y17830D01*
X90778Y17764D01*
X90831Y17705D01*
X90892Y17656D01*
X90961Y17616D01*
X91035Y17588D01*
X91113Y17572D01*
X91192Y17568D01*
X91270Y17576D01*
X91347Y17597D01*
X91418Y17630D01*
X91662Y17753D01*
X91916Y17850D01*
X92179Y17923D01*
X92447Y17972D01*
X92718Y17997D01*
X92853D01*
Y12003D01*
X92718D01*
X92447Y12028D01*
X92179Y12077D01*
X91916Y12150D01*
X91662Y12247D01*
X91417Y12367D01*
X91346Y12400D01*
X91270Y12421D01*
X91192Y12429D01*
X91113Y12425D01*
X91036Y12409D01*
X90962Y12381D01*
X90894Y12342D01*
X90833Y12293D01*
X90780Y12234D01*
X90737Y12168D01*
X90705Y12096D01*
X90684Y12020D01*
X90676Y11942D01*
X90680Y11864D01*
X90696Y11787D01*
X90724Y11713D01*
X90763Y11645D01*
X90813Y11584D01*
X90871Y11531D01*
X90938Y11489D01*
X91263Y11326D01*
X91602Y11197D01*
X91953Y11099D01*
X92310Y11033D01*
X92672Y11000D01*
X92853D01*
Y1969D01*
X89571D01*
Y12865D01*
X89640Y12839D01*
X89718Y12823D01*
X89797Y12819D01*
X89875Y12827D01*
X89952Y12848D01*
X90024Y12880D01*
X90090Y12923D01*
X90149Y12976D01*
X90199Y13038D01*
X90238Y13107D01*
X90266Y13181D01*
X90283Y13258D01*
X90287Y13337D01*
X90278Y13416D01*
X90258Y13493D01*
X90224Y13564D01*
X90102Y13807D01*
X90005Y14062D01*
X89931Y14324D01*
X89882Y14592D01*
X89857Y14864D01*
Y15136D01*
X89882Y15408D01*
X89931Y15676D01*
X90005Y15938D01*
X90102Y16193D01*
X90221Y16437D01*
X90255Y16509D01*
X90275Y16585D01*
X90284Y16663D01*
X90280Y16741D01*
X90263Y16818D01*
X90235Y16892D01*
X90196Y16960D01*
X90147Y17021D01*
X90088Y17074D01*
X90023Y17117D01*
X89951Y17149D01*
X89875Y17170D01*
X89797Y17178D01*
X89718Y17174D01*
X89641Y17158D01*
X89571Y17131D01*
Y18140D01*
G37*
G36*
Y24541D02*X89772Y24643D01*
X90027Y24739D01*
X90289Y24813D01*
X90557Y24862D01*
X90828Y24887D01*
X91101D01*
X91372Y24862D01*
X91640Y24813D01*
X91903Y24739D01*
X92157Y24643D01*
X92402Y24523D01*
X92473Y24489D01*
X92549Y24469D01*
X92627Y24461D01*
X92706Y24464D01*
X92783Y24481D01*
X92853Y24507D01*
Y19276D01*
X92784Y19302D01*
X92706Y19318D01*
X92627Y19322D01*
X92548Y19314D01*
X92472Y19293D01*
X92401Y19259D01*
X92157Y19137D01*
X91903Y19040D01*
X91640Y18967D01*
X91372Y18918D01*
X91101Y18893D01*
X90828D01*
X90557Y18918D01*
X90289Y18967D01*
X90027Y19040D01*
X89772Y19137D01*
X89571Y19235D01*
Y24541D01*
G37*
G36*
Y78140D02*X89713Y78086D01*
X90063Y77988D01*
X90421Y77923D01*
X90783Y77890D01*
X91146D01*
X91509Y77923D01*
X91866Y77988D01*
X92216Y78086D01*
X92556Y78216D01*
X92853Y78360D01*
Y25415D01*
X92556Y25564D01*
X92216Y25693D01*
X91866Y25791D01*
X91509Y25857D01*
X91146Y25890D01*
X90783D01*
X90421Y25857D01*
X90063Y25791D01*
X89713Y25693D01*
X89571Y25639D01*
Y78140D01*
G37*
G36*
Y84541D02*X89772Y84643D01*
X90027Y84739D01*
X90289Y84813D01*
X90557Y84862D01*
X90828Y84887D01*
X91101D01*
X91372Y84862D01*
X91640Y84813D01*
X91903Y84739D01*
X92157Y84643D01*
X92402Y84523D01*
X92473Y84489D01*
X92549Y84469D01*
X92627Y84461D01*
X92706Y84464D01*
X92783Y84481D01*
X92853Y84507D01*
Y79276D01*
X92784Y79302D01*
X92706Y79318D01*
X92627Y79322D01*
X92548Y79314D01*
X92472Y79293D01*
X92401Y79259D01*
X92157Y79137D01*
X91903Y79040D01*
X91640Y78967D01*
X91372Y78918D01*
X91101Y78893D01*
X90828D01*
X90557Y78918D01*
X90289Y78967D01*
X90027Y79040D01*
X89772Y79137D01*
X89571Y79235D01*
Y84541D01*
G37*
G36*
Y332677D02*X92853D01*
Y92780D01*
X92672D01*
X92310Y92747D01*
X91953Y92681D01*
X91602Y92583D01*
X91263Y92454D01*
X90936Y92294D01*
X90869Y92251D01*
X90810Y92198D01*
X90761Y92136D01*
X90721Y92068D01*
X90693Y91994D01*
X90677Y91916D01*
X90673Y91837D01*
X90681Y91759D01*
X90702Y91682D01*
X90734Y91610D01*
X90778Y91543D01*
X90831Y91485D01*
X90892Y91435D01*
X90961Y91396D01*
X91035Y91367D01*
X91113Y91351D01*
X91192Y91347D01*
X91270Y91356D01*
X91347Y91376D01*
X91418Y91410D01*
X91662Y91532D01*
X91916Y91629D01*
X92179Y91702D01*
X92447Y91752D01*
X92718Y91776D01*
X92853D01*
Y85783D01*
X92718D01*
X92447Y85807D01*
X92179Y85857D01*
X91916Y85930D01*
X91662Y86027D01*
X91417Y86146D01*
X91346Y86180D01*
X91270Y86200D01*
X91192Y86209D01*
X91113Y86205D01*
X91036Y86189D01*
X90962Y86161D01*
X90894Y86121D01*
X90833Y86072D01*
X90780Y86014D01*
X90737Y85948D01*
X90708Y85883D01*
X90421Y85857D01*
X90063Y85791D01*
X89713Y85693D01*
X89571Y85639D01*
Y86645D01*
X89640Y86618D01*
X89718Y86602D01*
X89797Y86598D01*
X89875Y86607D01*
X89952Y86627D01*
X90024Y86660D01*
X90090Y86703D01*
X90149Y86756D01*
X90199Y86818D01*
X90238Y86886D01*
X90266Y86960D01*
X90283Y87038D01*
X90287Y87117D01*
X90278Y87196D01*
X90258Y87272D01*
X90224Y87344D01*
X90102Y87587D01*
X90005Y87842D01*
X89931Y88104D01*
X89882Y88372D01*
X89857Y88643D01*
Y88916D01*
X89882Y89187D01*
X89931Y89455D01*
X90005Y89717D01*
X90102Y89972D01*
X90221Y90217D01*
X90255Y90288D01*
X90275Y90364D01*
X90284Y90442D01*
X90280Y90521D01*
X90263Y90598D01*
X90235Y90671D01*
X90196Y90740D01*
X90147Y90801D01*
X90088Y90854D01*
X90023Y90897D01*
X89951Y90929D01*
X89875Y90949D01*
X89797Y90958D01*
X89718Y90954D01*
X89641Y90938D01*
X89571Y90911D01*
Y271287D01*
X89714Y271322D01*
X90146Y271500D01*
X90544Y271744D01*
X90899Y272048D01*
X91203Y272403D01*
X91447Y272802D01*
X91626Y273233D01*
X91735Y273688D01*
X91762Y274153D01*
X91735Y274619D01*
X91626Y275074D01*
X91447Y275505D01*
X91203Y275904D01*
X90899Y276259D01*
X90544Y276562D01*
X90146Y276807D01*
X89714Y276985D01*
X89571Y277020D01*
Y332677D01*
G37*
G36*
Y85639D02*X89373Y85564D01*
X89046Y85404D01*
X88979Y85362D01*
X88921Y85308D01*
X88871Y85247D01*
X88832Y85178D01*
X88803Y85104D01*
X88787Y85027D01*
X88783Y84947D01*
X88792Y84869D01*
X88812Y84792D01*
X88845Y84720D01*
X88888Y84654D01*
X88941Y84595D01*
X89003Y84545D01*
X89071Y84506D01*
X89145Y84478D01*
X89223Y84461D01*
X89302Y84457D01*
X89381Y84466D01*
X89457Y84487D01*
X89529Y84520D01*
X89571Y84541D01*
Y79235D01*
X89527Y79257D01*
X89456Y79290D01*
X89380Y79311D01*
X89302Y79319D01*
X89223Y79315D01*
X89146Y79299D01*
X89073Y79271D01*
X89004Y79232D01*
X88943Y79182D01*
X88890Y79124D01*
X88847Y79058D01*
X88815Y78986D01*
X88795Y78910D01*
X88786Y78832D01*
X88790Y78753D01*
X88806Y78676D01*
X88834Y78603D01*
X88874Y78535D01*
X88923Y78473D01*
X88981Y78420D01*
X89048Y78379D01*
X89373Y78216D01*
X89571Y78140D01*
Y25639D01*
X89373Y25564D01*
X89046Y25404D01*
X88979Y25362D01*
X88921Y25308D01*
X88871Y25247D01*
X88832Y25178D01*
X88803Y25104D01*
X88787Y25027D01*
X88783Y24947D01*
X88792Y24869D01*
X88812Y24792D01*
X88845Y24720D01*
X88888Y24654D01*
X88941Y24595D01*
X89003Y24545D01*
X89071Y24506D01*
X89145Y24478D01*
X89223Y24461D01*
X89302Y24457D01*
X89381Y24466D01*
X89457Y24487D01*
X89529Y24520D01*
X89571Y24541D01*
Y19235D01*
X89527Y19257D01*
X89456Y19290D01*
X89380Y19311D01*
X89302Y19319D01*
X89223Y19315D01*
X89146Y19299D01*
X89073Y19271D01*
X89004Y19232D01*
X88943Y19182D01*
X88890Y19124D01*
X88847Y19058D01*
X88815Y18986D01*
X88795Y18910D01*
X88786Y18832D01*
X88790Y18753D01*
X88806Y18676D01*
X88834Y18603D01*
X88874Y18535D01*
X88923Y18473D01*
X88981Y18420D01*
X89048Y18379D01*
X89373Y18216D01*
X89571Y18140D01*
Y17131D01*
X89567Y17130D01*
X89499Y17091D01*
X89438Y17042D01*
X89385Y16983D01*
X89343Y16917D01*
X89180Y16592D01*
X89051Y16252D01*
X88953Y15902D01*
X88887Y15544D01*
X88854Y15182D01*
Y14818D01*
X88887Y14456D01*
X88953Y14098D01*
X89051Y13748D01*
X89180Y13408D01*
X89340Y13081D01*
X89383Y13015D01*
X89436Y12956D01*
X89497Y12906D01*
X89566Y12867D01*
X89571Y12865D01*
Y1969D01*
X87681D01*
Y19755D01*
X87750Y19729D01*
X87828Y19712D01*
X87907Y19708D01*
X87986Y19717D01*
X88062Y19737D01*
X88134Y19770D01*
X88201Y19813D01*
X88259Y19866D01*
X88309Y19928D01*
X88348Y19997D01*
X88377Y20071D01*
X88393Y20148D01*
X88397Y20227D01*
X88388Y20306D01*
X88368Y20382D01*
X88334Y20454D01*
X88212Y20697D01*
X88115Y20952D01*
X88042Y21214D01*
X87992Y21482D01*
X87968Y21754D01*
Y22026D01*
X87992Y22297D01*
X88042Y22565D01*
X88115Y22828D01*
X88212Y23082D01*
X88331Y23327D01*
X88365Y23398D01*
X88385Y23474D01*
X88394Y23553D01*
X88390Y23631D01*
X88374Y23708D01*
X88346Y23782D01*
X88306Y23850D01*
X88257Y23911D01*
X88199Y23964D01*
X88133Y24007D01*
X88061Y24039D01*
X87985Y24060D01*
X87907Y24068D01*
X87828Y24064D01*
X87751Y24048D01*
X87681Y24021D01*
Y79755D01*
X87750Y79729D01*
X87828Y79712D01*
X87907Y79708D01*
X87986Y79717D01*
X88062Y79737D01*
X88134Y79770D01*
X88201Y79813D01*
X88259Y79866D01*
X88309Y79928D01*
X88348Y79997D01*
X88377Y80071D01*
X88393Y80148D01*
X88397Y80227D01*
X88388Y80306D01*
X88368Y80382D01*
X88334Y80454D01*
X88212Y80697D01*
X88115Y80952D01*
X88042Y81214D01*
X87992Y81482D01*
X87968Y81754D01*
Y82026D01*
X87992Y82297D01*
X88042Y82565D01*
X88115Y82828D01*
X88212Y83082D01*
X88331Y83327D01*
X88365Y83398D01*
X88385Y83474D01*
X88394Y83553D01*
X88390Y83631D01*
X88374Y83708D01*
X88346Y83782D01*
X88306Y83850D01*
X88257Y83911D01*
X88199Y83964D01*
X88133Y84007D01*
X88061Y84039D01*
X87985Y84060D01*
X87907Y84068D01*
X87828Y84064D01*
X87751Y84048D01*
X87681Y84021D01*
Y271401D01*
X87874Y271322D01*
X88328Y271212D01*
X88794Y271176D01*
X89260Y271212D01*
X89571Y271287D01*
Y90911D01*
X89567Y90910D01*
X89499Y90871D01*
X89438Y90821D01*
X89385Y90763D01*
X89343Y90696D01*
X89180Y90371D01*
X89051Y90031D01*
X88953Y89681D01*
X88887Y89324D01*
X88854Y88961D01*
Y88598D01*
X88887Y88236D01*
X88953Y87878D01*
X89051Y87528D01*
X89180Y87188D01*
X89340Y86861D01*
X89383Y86794D01*
X89436Y86736D01*
X89497Y86686D01*
X89566Y86647D01*
X89571Y86645D01*
Y85639D01*
G37*
G36*
X87681Y1969D02*X86689D01*
Y12869D01*
X86692Y12870D01*
X86761Y12909D01*
X86822Y12958D01*
X86875Y13017D01*
X86916Y13083D01*
X87080Y13408D01*
X87209Y13748D01*
X87307Y14098D01*
X87373Y14456D01*
X87406Y14818D01*
Y15182D01*
X87373Y15544D01*
X87307Y15902D01*
X87209Y16252D01*
X87080Y16592D01*
X86920Y16919D01*
X86877Y16985D01*
X86824Y17044D01*
X86762Y17094D01*
X86694Y17133D01*
X86689Y17135D01*
Y86648D01*
X86692Y86649D01*
X86761Y86689D01*
X86822Y86738D01*
X86875Y86796D01*
X86916Y86863D01*
X87080Y87188D01*
X87209Y87528D01*
X87307Y87878D01*
X87373Y88236D01*
X87406Y88598D01*
Y88961D01*
X87373Y89324D01*
X87307Y89681D01*
X87209Y90031D01*
X87080Y90371D01*
X86920Y90698D01*
X86877Y90765D01*
X86824Y90823D01*
X86762Y90873D01*
X86694Y90913D01*
X86689Y90914D01*
Y224878D01*
X86817Y225280D01*
X86916Y225719D01*
X86975Y226165D01*
X86995Y226614D01*
X86975Y227063D01*
X86916Y227509D01*
X86817Y227948D01*
X86689Y228350D01*
Y234874D01*
X86755Y235033D01*
X86943Y235814D01*
X86990Y236614D01*
X86943Y237414D01*
X86755Y238195D01*
X86689Y238354D01*
Y242109D01*
X86707Y242130D01*
X86830Y242331D01*
X86921Y242549D01*
X86976Y242779D01*
X86994Y243014D01*
X86990Y243073D01*
Y250155D01*
X86994Y250214D01*
X86976Y250449D01*
X86976Y250450D01*
X86921Y250679D01*
X86830Y250897D01*
X86707Y251099D01*
X86689Y251119D01*
Y263498D01*
X86735Y263688D01*
X86762Y264153D01*
X86735Y264619D01*
X86689Y264809D01*
Y272047D01*
X87044Y271744D01*
X87442Y271500D01*
X87681Y271401D01*
Y84021D01*
X87678Y84020D01*
X87609Y83981D01*
X87548Y83931D01*
X87495Y83873D01*
X87454Y83806D01*
X87290Y83482D01*
X87161Y83142D01*
X87063Y82791D01*
X86998Y82434D01*
X86965Y82072D01*
Y81708D01*
X86998Y81346D01*
X87063Y80988D01*
X87161Y80638D01*
X87290Y80298D01*
X87450Y79971D01*
X87493Y79905D01*
X87546Y79846D01*
X87608Y79796D01*
X87676Y79757D01*
X87681Y79755D01*
Y24021D01*
X87678Y24020D01*
X87609Y23981D01*
X87548Y23931D01*
X87495Y23873D01*
X87454Y23806D01*
X87290Y23482D01*
X87161Y23142D01*
X87063Y22791D01*
X86998Y22434D01*
X86965Y22072D01*
Y21708D01*
X86998Y21346D01*
X87063Y20988D01*
X87161Y20638D01*
X87290Y20298D01*
X87450Y19971D01*
X87493Y19905D01*
X87546Y19846D01*
X87608Y19796D01*
X87676Y19757D01*
X87681Y19755D01*
Y1969D01*
G37*
G36*
X86689Y332677D02*X89571D01*
Y277020D01*
X89260Y277094D01*
X88794Y277131D01*
X88328Y277094D01*
X87874Y276985D01*
X87442Y276807D01*
X87044Y276562D01*
X86689Y276260D01*
Y332677D01*
G37*
G36*
Y251119D02*X86554Y251278D01*
X86374Y251431D01*
X86173Y251555D01*
X85955Y251645D01*
X85725Y251700D01*
X85490Y251719D01*
X85431Y251714D01*
X83407D01*
Y261206D01*
X83794Y261176D01*
X84260Y261212D01*
X84714Y261322D01*
X85146Y261500D01*
X85544Y261744D01*
X85899Y262048D01*
X86203Y262403D01*
X86447Y262802D01*
X86626Y263233D01*
X86689Y263498D01*
Y251119D01*
G37*
G36*
Y238354D02*X86448Y238937D01*
X86028Y239621D01*
X85507Y240232D01*
X84897Y240753D01*
X84212Y241172D01*
X83471Y241480D01*
X83407Y241495D01*
Y241514D01*
X85431D01*
X85490Y241510D01*
X85725Y241528D01*
X85725Y241528D01*
X85955Y241583D01*
X86173Y241674D01*
X86374Y241797D01*
X86554Y241950D01*
X86689Y242109D01*
Y238354D01*
G37*
G36*
Y1969D02*X83407D01*
Y11000D01*
X83587D01*
X83949Y11033D01*
X84307Y11099D01*
X84657Y11197D01*
X84997Y11326D01*
X85324Y11485D01*
X85391Y11528D01*
X85449Y11581D01*
X85499Y11643D01*
X85539Y11712D01*
X85567Y11786D01*
X85583Y11863D01*
X85587Y11942D01*
X85579Y12021D01*
X85558Y12097D01*
X85525Y12170D01*
X85482Y12236D01*
X85429Y12295D01*
X85367Y12344D01*
X85299Y12384D01*
X85225Y12412D01*
X85147Y12428D01*
X85068Y12432D01*
X84989Y12424D01*
X84913Y12403D01*
X84841Y12370D01*
X84598Y12247D01*
X84343Y12150D01*
X84081Y12077D01*
X83813Y12028D01*
X83542Y12003D01*
X83407D01*
Y17997D01*
X83542D01*
X83813Y17972D01*
X84081Y17923D01*
X84343Y17850D01*
X84598Y17753D01*
X84843Y17633D01*
X84914Y17600D01*
X84990Y17579D01*
X85068Y17571D01*
X85147Y17575D01*
X85224Y17591D01*
X85297Y17619D01*
X85366Y17658D01*
X85427Y17707D01*
X85480Y17766D01*
X85523Y17832D01*
X85555Y17904D01*
X85575Y17980D01*
X85584Y18058D01*
X85580Y18136D01*
X85564Y18213D01*
X85536Y18287D01*
X85496Y18355D01*
X85447Y18416D01*
X85389Y18469D01*
X85322Y18511D01*
X84997Y18674D01*
X84657Y18803D01*
X84307Y18901D01*
X83949Y18967D01*
X83587Y19000D01*
X83407D01*
Y84780D01*
X83587D01*
X83949Y84813D01*
X84307Y84878D01*
X84657Y84976D01*
X84997Y85105D01*
X85324Y85265D01*
X85391Y85308D01*
X85449Y85361D01*
X85499Y85423D01*
X85539Y85491D01*
X85567Y85565D01*
X85583Y85643D01*
X85587Y85722D01*
X85579Y85801D01*
X85558Y85877D01*
X85525Y85949D01*
X85482Y86016D01*
X85429Y86074D01*
X85367Y86124D01*
X85299Y86163D01*
X85225Y86192D01*
X85147Y86208D01*
X85068Y86212D01*
X84989Y86203D01*
X84913Y86183D01*
X84841Y86149D01*
X84598Y86027D01*
X84343Y85930D01*
X84081Y85857D01*
X83813Y85807D01*
X83542Y85783D01*
X83407D01*
Y91776D01*
X83542D01*
X83813Y91752D01*
X84081Y91702D01*
X84343Y91629D01*
X84598Y91532D01*
X84843Y91413D01*
X84914Y91379D01*
X84990Y91359D01*
X85068Y91350D01*
X85147Y91354D01*
X85224Y91370D01*
X85297Y91398D01*
X85366Y91438D01*
X85427Y91487D01*
X85480Y91545D01*
X85523Y91611D01*
X85555Y91683D01*
X85575Y91759D01*
X85584Y91837D01*
X85580Y91916D01*
X85564Y91993D01*
X85536Y92066D01*
X85496Y92135D01*
X85447Y92196D01*
X85389Y92249D01*
X85322Y92290D01*
X84997Y92454D01*
X84657Y92583D01*
X84307Y92681D01*
X83949Y92747D01*
X83587Y92780D01*
X83407D01*
Y221745D01*
X83652Y221823D01*
X84067Y221997D01*
X84170Y222055D01*
X84263Y222129D01*
X84342Y222217D01*
X84407Y222316D01*
X84456Y222424D01*
X84487Y222538D01*
X84500Y222656D01*
X84495Y222775D01*
X84470Y222891D01*
X84428Y223002D01*
X84370Y223105D01*
X84295Y223197D01*
X84208Y223277D01*
X84108Y223342D01*
X84000Y223391D01*
X83886Y223422D01*
X83768Y223435D01*
X83650Y223429D01*
X83533Y223405D01*
X83424Y223361D01*
X83407Y223354D01*
Y229878D01*
X83425Y229870D01*
X83534Y229826D01*
X83650Y229802D01*
X83768Y229797D01*
X83885Y229810D01*
X83999Y229841D01*
X84107Y229889D01*
X84206Y229954D01*
X84293Y230033D01*
X84367Y230125D01*
X84425Y230228D01*
X84467Y230338D01*
X84491Y230454D01*
X84497Y230572D01*
X84484Y230689D01*
X84453Y230803D01*
X84404Y230911D01*
X84340Y231009D01*
X84260Y231097D01*
X84168Y231171D01*
X84065Y231227D01*
X83652Y231405D01*
X83407Y231483D01*
Y231734D01*
X83471Y231749D01*
X84212Y232056D01*
X84897Y232475D01*
X85507Y232997D01*
X86028Y233607D01*
X86448Y234292D01*
X86689Y234874D01*
Y228350D01*
X86681Y228376D01*
X86507Y228791D01*
X86449Y228895D01*
X86375Y228987D01*
X86287Y229067D01*
X86188Y229132D01*
X86080Y229181D01*
X85965Y229212D01*
X85848Y229225D01*
X85729Y229219D01*
X85613Y229195D01*
X85502Y229153D01*
X85399Y229094D01*
X85307Y229020D01*
X85227Y228932D01*
X85162Y228833D01*
X85113Y228725D01*
X85082Y228610D01*
X85069Y228492D01*
X85075Y228374D01*
X85099Y228258D01*
X85143Y228148D01*
X85268Y227857D01*
X85365Y227555D01*
X85434Y227245D01*
X85476Y226931D01*
X85490Y226614D01*
X85476Y226297D01*
X85434Y225983D01*
X85365Y225674D01*
X85268Y225371D01*
X85146Y225079D01*
X85102Y224970D01*
X85078Y224854D01*
X85072Y224736D01*
X85085Y224619D01*
X85116Y224505D01*
X85165Y224397D01*
X85230Y224298D01*
X85309Y224211D01*
X85401Y224137D01*
X85504Y224079D01*
X85614Y224037D01*
X85730Y224013D01*
X85847Y224007D01*
X85965Y224020D01*
X86079Y224051D01*
X86186Y224100D01*
X86285Y224164D01*
X86372Y224244D01*
X86446Y224336D01*
X86503Y224439D01*
X86681Y224852D01*
X86689Y224878D01*
Y90914D01*
X86620Y90941D01*
X86542Y90957D01*
X86463Y90961D01*
X86384Y90953D01*
X86308Y90932D01*
X86236Y90899D01*
X86169Y90856D01*
X86111Y90803D01*
X86061Y90741D01*
X86022Y90673D01*
X85993Y90599D01*
X85977Y90521D01*
X85973Y90442D01*
X85982Y90363D01*
X86002Y90287D01*
X86036Y90215D01*
X86158Y89972D01*
X86255Y89717D01*
X86328Y89455D01*
X86378Y89187D01*
X86402Y88916D01*
Y88643D01*
X86378Y88372D01*
X86328Y88104D01*
X86255Y87842D01*
X86158Y87587D01*
X86039Y87342D01*
X86005Y87271D01*
X85985Y87195D01*
X85976Y87117D01*
X85980Y87038D01*
X85996Y86961D01*
X86024Y86888D01*
X86064Y86819D01*
X86113Y86758D01*
X86171Y86705D01*
X86237Y86662D01*
X86309Y86630D01*
X86385Y86610D01*
X86463Y86601D01*
X86542Y86605D01*
X86619Y86621D01*
X86689Y86648D01*
Y17135D01*
X86620Y17161D01*
X86542Y17178D01*
X86463Y17181D01*
X86384Y17173D01*
X86308Y17152D01*
X86236Y17120D01*
X86169Y17077D01*
X86111Y17024D01*
X86061Y16962D01*
X86022Y16893D01*
X85993Y16819D01*
X85977Y16742D01*
X85973Y16663D01*
X85982Y16584D01*
X86002Y16507D01*
X86036Y16436D01*
X86158Y16193D01*
X86255Y15938D01*
X86328Y15676D01*
X86378Y15408D01*
X86402Y15136D01*
Y14864D01*
X86378Y14592D01*
X86328Y14324D01*
X86255Y14062D01*
X86158Y13807D01*
X86039Y13563D01*
X86005Y13491D01*
X85985Y13415D01*
X85976Y13337D01*
X85980Y13259D01*
X85996Y13182D01*
X86024Y13108D01*
X86064Y13040D01*
X86113Y12979D01*
X86171Y12926D01*
X86237Y12883D01*
X86309Y12851D01*
X86385Y12830D01*
X86463Y12822D01*
X86542Y12826D01*
X86619Y12842D01*
X86689Y12869D01*
Y1969D01*
G37*
G36*
X83407Y332677D02*X86689D01*
Y276260D01*
X86688Y276259D01*
X86385Y275904D01*
X86141Y275505D01*
X85962Y275074D01*
X85853Y274619D01*
X85816Y274153D01*
X85853Y273688D01*
X85962Y273233D01*
X86141Y272802D01*
X86385Y272403D01*
X86688Y272048D01*
X86689Y272047D01*
Y264809D01*
X86626Y265074D01*
X86447Y265505D01*
X86203Y265904D01*
X85899Y266259D01*
X85544Y266562D01*
X85146Y266807D01*
X84714Y266985D01*
X84260Y267094D01*
X83794Y267131D01*
X83407Y267101D01*
Y332677D01*
G37*
G36*
Y241495D02*X83326Y241514D01*
X83407D01*
Y241495D01*
G37*
G36*
Y231483D02*X83224Y231542D01*
X82905Y231613D01*
X83407Y231734D01*
Y231483D01*
G37*
G36*
X80122Y221826D02*X80128Y221823D01*
X80556Y221687D01*
X80995Y221588D01*
X81441Y221529D01*
X81890Y221509D01*
X82339Y221529D01*
X82785Y221588D01*
X83224Y221687D01*
X83407Y221745D01*
Y92780D01*
X83224D01*
X82862Y92747D01*
X82504Y92681D01*
X82154Y92583D01*
X81814Y92454D01*
X81487Y92294D01*
X81420Y92251D01*
X81362Y92198D01*
X81312Y92136D01*
X81273Y92068D01*
X81244Y91994D01*
X81228Y91916D01*
X81224Y91837D01*
X81233Y91759D01*
X81253Y91682D01*
X81286Y91610D01*
X81329Y91543D01*
X81382Y91485D01*
X81444Y91435D01*
X81512Y91396D01*
X81586Y91367D01*
X81664Y91351D01*
X81743Y91347D01*
X81822Y91356D01*
X81898Y91376D01*
X81970Y91410D01*
X82213Y91532D01*
X82468Y91629D01*
X82730Y91702D01*
X82998Y91752D01*
X83269Y91776D01*
X83407D01*
Y85783D01*
X83269D01*
X82998Y85807D01*
X82730Y85857D01*
X82468Y85930D01*
X82213Y86027D01*
X81968Y86146D01*
X81897Y86180D01*
X81821Y86200D01*
X81743Y86209D01*
X81664Y86205D01*
X81587Y86189D01*
X81514Y86161D01*
X81445Y86121D01*
X81384Y86072D01*
X81331Y86014D01*
X81288Y85948D01*
X81256Y85876D01*
X81236Y85800D01*
X81227Y85722D01*
X81231Y85643D01*
X81247Y85566D01*
X81275Y85493D01*
X81315Y85424D01*
X81364Y85363D01*
X81422Y85310D01*
X81489Y85269D01*
X81814Y85105D01*
X82154Y84976D01*
X82504Y84878D01*
X82862Y84813D01*
X83224Y84780D01*
X83407D01*
Y19000D01*
X83224D01*
X82862Y18967D01*
X82504Y18901D01*
X82154Y18803D01*
X81814Y18674D01*
X81487Y18515D01*
X81420Y18472D01*
X81362Y18419D01*
X81312Y18357D01*
X81273Y18288D01*
X81244Y18214D01*
X81228Y18137D01*
X81224Y18058D01*
X81233Y17979D01*
X81253Y17903D01*
X81286Y17830D01*
X81329Y17764D01*
X81382Y17705D01*
X81444Y17656D01*
X81512Y17616D01*
X81586Y17588D01*
X81664Y17572D01*
X81743Y17568D01*
X81822Y17576D01*
X81898Y17597D01*
X81970Y17630D01*
X82213Y17753D01*
X82468Y17850D01*
X82730Y17923D01*
X82998Y17972D01*
X83269Y17997D01*
X83407D01*
Y12003D01*
X83269D01*
X82998Y12028D01*
X82730Y12077D01*
X82468Y12150D01*
X82213Y12247D01*
X81968Y12367D01*
X81897Y12400D01*
X81821Y12421D01*
X81743Y12429D01*
X81664Y12425D01*
X81587Y12409D01*
X81514Y12381D01*
X81445Y12342D01*
X81384Y12293D01*
X81331Y12234D01*
X81288Y12168D01*
X81256Y12096D01*
X81236Y12020D01*
X81227Y11942D01*
X81231Y11864D01*
X81247Y11787D01*
X81275Y11713D01*
X81315Y11645D01*
X81364Y11584D01*
X81422Y11531D01*
X81489Y11489D01*
X81814Y11326D01*
X82154Y11197D01*
X82504Y11099D01*
X82862Y11033D01*
X83224Y11000D01*
X83407D01*
Y1969D01*
X80122D01*
Y12865D01*
X80191Y12839D01*
X80269Y12823D01*
X80348Y12819D01*
X80427Y12827D01*
X80503Y12848D01*
X80575Y12880D01*
X80642Y12923D01*
X80700Y12976D01*
X80750Y13038D01*
X80789Y13107D01*
X80818Y13181D01*
X80834Y13258D01*
X80838Y13337D01*
X80829Y13416D01*
X80809Y13493D01*
X80775Y13564D01*
X80653Y13807D01*
X80556Y14062D01*
X80483Y14324D01*
X80433Y14592D01*
X80409Y14864D01*
Y15136D01*
X80433Y15408D01*
X80483Y15676D01*
X80556Y15938D01*
X80653Y16193D01*
X80772Y16437D01*
X80806Y16509D01*
X80826Y16585D01*
X80835Y16663D01*
X80831Y16741D01*
X80815Y16818D01*
X80787Y16892D01*
X80747Y16960D01*
X80698Y17021D01*
X80640Y17074D01*
X80574Y17117D01*
X80502Y17149D01*
X80426Y17170D01*
X80348Y17178D01*
X80269Y17174D01*
X80192Y17158D01*
X80122Y17131D01*
Y86645D01*
X80191Y86618D01*
X80269Y86602D01*
X80348Y86598D01*
X80427Y86607D01*
X80503Y86627D01*
X80575Y86660D01*
X80642Y86703D01*
X80700Y86756D01*
X80750Y86818D01*
X80789Y86886D01*
X80818Y86960D01*
X80834Y87038D01*
X80838Y87117D01*
X80829Y87196D01*
X80809Y87272D01*
X80775Y87344D01*
X80653Y87587D01*
X80556Y87842D01*
X80483Y88104D01*
X80433Y88372D01*
X80409Y88643D01*
Y88916D01*
X80433Y89187D01*
X80483Y89455D01*
X80556Y89717D01*
X80653Y89972D01*
X80772Y90217D01*
X80806Y90288D01*
X80826Y90364D01*
X80835Y90442D01*
X80831Y90521D01*
X80815Y90598D01*
X80787Y90671D01*
X80747Y90740D01*
X80698Y90801D01*
X80640Y90854D01*
X80574Y90897D01*
X80502Y90929D01*
X80426Y90949D01*
X80348Y90958D01*
X80269Y90954D01*
X80192Y90938D01*
X80122Y90911D01*
Y221826D01*
G37*
G36*
Y229799D02*X80130Y229799D01*
X80246Y229823D01*
X80356Y229867D01*
X80647Y229993D01*
X80949Y230089D01*
X81259Y230158D01*
X81573Y230200D01*
X81890Y230214D01*
X82207Y230200D01*
X82521Y230158D01*
X82830Y230089D01*
X83132Y229993D01*
X83407Y229878D01*
Y223354D01*
X83132Y223235D01*
X82830Y223139D01*
X82521Y223070D01*
X82207Y223028D01*
X81890Y223014D01*
X81573Y223028D01*
X81259Y223070D01*
X80949Y223139D01*
X80647Y223235D01*
X80355Y223358D01*
X80245Y223402D01*
X80130Y223426D01*
X80122Y223426D01*
Y229799D01*
G37*
G36*
Y231826D02*X80309Y231749D01*
X80874Y231613D01*
X80556Y231542D01*
X80128Y231405D01*
X80122Y231403D01*
Y231826D01*
G37*
G36*
Y241514D02*X80453D01*
X80309Y241480D01*
X80122Y241402D01*
Y241514D01*
G37*
G36*
Y332677D02*X83407D01*
Y267101D01*
X83328Y267094D01*
X82874Y266985D01*
X82442Y266807D01*
X82044Y266562D01*
X81688Y266259D01*
X81385Y265904D01*
X81141Y265505D01*
X80962Y265074D01*
X80853Y264619D01*
X80816Y264153D01*
X80853Y263688D01*
X80962Y263233D01*
X81141Y262802D01*
X81385Y262403D01*
X81688Y262048D01*
X82044Y261744D01*
X82442Y261500D01*
X82874Y261322D01*
X83328Y261212D01*
X83407Y261206D01*
Y251714D01*
X80122D01*
Y271490D01*
X80146Y271500D01*
X80544Y271744D01*
X80899Y272048D01*
X81203Y272403D01*
X81447Y272802D01*
X81626Y273233D01*
X81735Y273688D01*
X81762Y274153D01*
X81735Y274619D01*
X81626Y275074D01*
X81447Y275505D01*
X81203Y275904D01*
X80899Y276259D01*
X80544Y276562D01*
X80146Y276807D01*
X80122Y276817D01*
Y332677D01*
G37*
G36*
X77748Y233613D02*X77751Y233607D01*
X78272Y232997D01*
X78883Y232475D01*
X79567Y232056D01*
X80122Y231826D01*
Y231403D01*
X79713Y231232D01*
X79609Y231174D01*
X79517Y231099D01*
X79437Y231012D01*
X79372Y230912D01*
X79323Y230804D01*
X79292Y230690D01*
X79279Y230572D01*
X79285Y230453D01*
X79309Y230337D01*
X79351Y230226D01*
X79410Y230123D01*
X79484Y230031D01*
X79572Y229951D01*
X79671Y229886D01*
X79779Y229837D01*
X79894Y229806D01*
X80012Y229793D01*
X80122Y229799D01*
Y223426D01*
X80012Y223432D01*
X79894Y223419D01*
X79780Y223388D01*
X79673Y223339D01*
X79574Y223274D01*
X79487Y223195D01*
X79413Y223103D01*
X79354Y223000D01*
X79312Y222890D01*
X79288Y222774D01*
X79283Y222656D01*
X79296Y222539D01*
X79327Y222425D01*
X79375Y222318D01*
X79440Y222219D01*
X79519Y222132D01*
X79611Y222058D01*
X79715Y222001D01*
X80122Y221826D01*
Y90911D01*
X80119Y90910D01*
X80050Y90871D01*
X79989Y90821D01*
X79936Y90763D01*
X79895Y90696D01*
X79731Y90371D01*
X79602Y90031D01*
X79504Y89681D01*
X79439Y89324D01*
X79406Y88961D01*
Y88598D01*
X79439Y88236D01*
X79504Y87878D01*
X79602Y87528D01*
X79731Y87188D01*
X79891Y86861D01*
X79934Y86794D01*
X79987Y86736D01*
X80049Y86686D01*
X80117Y86647D01*
X80122Y86645D01*
Y17131D01*
X80119Y17130D01*
X80050Y17091D01*
X79989Y17042D01*
X79936Y16983D01*
X79895Y16917D01*
X79731Y16592D01*
X79602Y16252D01*
X79504Y15902D01*
X79439Y15544D01*
X79406Y15182D01*
Y14818D01*
X79439Y14456D01*
X79504Y14098D01*
X79602Y13748D01*
X79731Y13408D01*
X79891Y13081D01*
X79934Y13015D01*
X79987Y12956D01*
X80049Y12906D01*
X80117Y12867D01*
X80122Y12865D01*
Y1969D01*
X77748D01*
Y224035D01*
X77814Y224017D01*
X77932Y224004D01*
X78050Y224009D01*
X78167Y224033D01*
X78277Y224075D01*
X78380Y224134D01*
X78473Y224209D01*
X78553Y224296D01*
X78618Y224395D01*
X78666Y224504D01*
X78698Y224618D01*
X78711Y224736D01*
X78705Y224854D01*
X78681Y224971D01*
X78637Y225080D01*
X78511Y225371D01*
X78415Y225674D01*
X78346Y225983D01*
X78304Y226297D01*
X78290Y226614D01*
X78304Y226931D01*
X78346Y227245D01*
X78415Y227555D01*
X78511Y227857D01*
X78634Y228149D01*
X78677Y228259D01*
X78701Y228374D01*
X78707Y228492D01*
X78694Y228610D01*
X78663Y228724D01*
X78615Y228831D01*
X78550Y228930D01*
X78471Y229017D01*
X78378Y229091D01*
X78276Y229150D01*
X78166Y229192D01*
X78050Y229216D01*
X77932Y229221D01*
X77815Y229208D01*
X77748Y229190D01*
Y233613D01*
G37*
G36*
Y241615D02*X77825Y241583D01*
X78054Y241528D01*
X78290Y241510D01*
X78349Y241514D01*
X80122D01*
Y241402D01*
X79567Y241172D01*
X78883Y240753D01*
X78272Y240232D01*
X77751Y239621D01*
X77748Y239616D01*
Y241615D01*
G37*
G36*
Y271374D02*X77874Y271322D01*
X78328Y271212D01*
X78794Y271176D01*
X79260Y271212D01*
X79714Y271322D01*
X80122Y271490D01*
Y251714D01*
X78349D01*
X78290Y251719D01*
X78055Y251700D01*
X78054Y251700D01*
X77825Y251645D01*
X77748Y251613D01*
Y271374D01*
G37*
G36*
Y332677D02*X80122D01*
Y276817D01*
X79714Y276985D01*
X79260Y277094D01*
X78794Y277131D01*
X78328Y277094D01*
X77874Y276985D01*
X77748Y276933D01*
Y332677D01*
G37*
G36*
X71174D02*X77748D01*
Y276933D01*
X77442Y276807D01*
X77044Y276562D01*
X76688Y276259D01*
X76385Y275904D01*
X76141Y275505D01*
X75962Y275074D01*
X75853Y274619D01*
X75816Y274153D01*
X75853Y273688D01*
X75962Y273233D01*
X76141Y272802D01*
X76385Y272403D01*
X76688Y272048D01*
X77044Y271744D01*
X77442Y271500D01*
X77748Y271374D01*
Y251613D01*
X77607Y251555D01*
X77405Y251431D01*
X77226Y251278D01*
X77072Y251099D01*
X76949Y250897D01*
X76859Y250679D01*
X76804Y250450D01*
X76785Y250214D01*
X76790Y250155D01*
Y243073D01*
X76785Y243014D01*
X76804Y242779D01*
X76804Y242779D01*
X76859Y242549D01*
X76949Y242331D01*
X77072Y242130D01*
X77226Y241950D01*
X77405Y241797D01*
X77607Y241674D01*
X77748Y241615D01*
Y239616D01*
X77332Y238937D01*
X77024Y238195D01*
X76837Y237414D01*
X76774Y236614D01*
X76837Y235814D01*
X77024Y235033D01*
X77332Y234292D01*
X77748Y233613D01*
Y229190D01*
X77701Y229177D01*
X77593Y229129D01*
X77494Y229064D01*
X77407Y228985D01*
X77333Y228893D01*
X77277Y228789D01*
X77099Y228376D01*
X76962Y227948D01*
X76864Y227509D01*
X76805Y227063D01*
X76785Y226614D01*
X76805Y226165D01*
X76864Y225719D01*
X76962Y225280D01*
X77099Y224852D01*
X77272Y224437D01*
X77330Y224334D01*
X77405Y224241D01*
X77492Y224162D01*
X77592Y224096D01*
X77700Y224048D01*
X77748Y224035D01*
Y1969D01*
X71174D01*
Y262747D01*
X71385Y262403D01*
X71688Y262048D01*
X72044Y261744D01*
X72442Y261500D01*
X72874Y261322D01*
X73328Y261212D01*
X73794Y261176D01*
X74260Y261212D01*
X74714Y261322D01*
X75146Y261500D01*
X75544Y261744D01*
X75899Y262048D01*
X76203Y262403D01*
X76447Y262802D01*
X76626Y263233D01*
X76735Y263688D01*
X76762Y264153D01*
X76735Y264619D01*
X76626Y265074D01*
X76447Y265505D01*
X76203Y265904D01*
X75899Y266259D01*
X75544Y266562D01*
X75146Y266807D01*
X74714Y266985D01*
X74260Y267094D01*
X73794Y267131D01*
X73328Y267094D01*
X72874Y266985D01*
X72442Y266807D01*
X72044Y266562D01*
X71688Y266259D01*
X71385Y265904D01*
X71174Y265560D01*
Y272745D01*
X71209Y272751D01*
X71284Y272776D01*
X71353Y272813D01*
X71416Y272860D01*
X71471Y272916D01*
X71517Y272980D01*
X71550Y273052D01*
X71646Y273317D01*
X71712Y273592D01*
X71752Y273871D01*
X71766Y274153D01*
X71752Y274436D01*
X71712Y274715D01*
X71646Y274990D01*
X71553Y275257D01*
X71519Y275328D01*
X71473Y275392D01*
X71418Y275449D01*
X71354Y275496D01*
X71285Y275533D01*
X71210Y275558D01*
X71174Y275564D01*
Y332677D01*
G37*
G36*
X68795D02*X71174D01*
Y275564D01*
X71132Y275571D01*
X71053Y275572D01*
X70974Y275561D01*
X70899Y275538D01*
X70828Y275503D01*
X70764Y275457D01*
X70707Y275402D01*
X70660Y275338D01*
X70623Y275268D01*
X70598Y275193D01*
X70584Y275116D01*
X70583Y275036D01*
X70595Y274958D01*
X70620Y274883D01*
X70683Y274707D01*
X70727Y274526D01*
X70753Y274340D01*
X70762Y274153D01*
X70753Y273967D01*
X70727Y273781D01*
X70683Y273600D01*
X70622Y273423D01*
X70597Y273348D01*
X70586Y273270D01*
X70587Y273192D01*
X70600Y273114D01*
X70625Y273040D01*
X70662Y272970D01*
X70709Y272907D01*
X70765Y272852D01*
X70829Y272806D01*
X70900Y272771D01*
X70975Y272748D01*
X71053Y272737D01*
X71132Y272738D01*
X71174Y272745D01*
Y265560D01*
X71141Y265505D01*
X70962Y265074D01*
X70853Y264619D01*
X70816Y264153D01*
X70853Y263688D01*
X70962Y263233D01*
X71141Y262802D01*
X71174Y262747D01*
Y1969D01*
X68795D01*
Y271182D01*
X69076Y271195D01*
X69356Y271235D01*
X69630Y271302D01*
X69897Y271394D01*
X69968Y271429D01*
X70033Y271474D01*
X70089Y271529D01*
X70136Y271593D01*
X70173Y271663D01*
X70198Y271738D01*
X70212Y271816D01*
X70213Y271895D01*
X70201Y271973D01*
X70178Y272048D01*
X70143Y272119D01*
X70097Y272184D01*
X70042Y272240D01*
X69979Y272288D01*
X69909Y272324D01*
X69834Y272350D01*
X69756Y272363D01*
X69677Y272364D01*
X69599Y272353D01*
X69524Y272328D01*
X69348Y272264D01*
X69166Y272220D01*
X68981Y272194D01*
X68795Y272185D01*
Y276122D01*
X68981Y276113D01*
X69166Y276086D01*
X69348Y276042D01*
X69525Y275981D01*
X69599Y275957D01*
X69677Y275945D01*
X69756Y275946D01*
X69833Y275959D01*
X69908Y275985D01*
X69977Y276021D01*
X70041Y276068D01*
X70096Y276125D01*
X70141Y276189D01*
X70176Y276259D01*
X70199Y276335D01*
X70211Y276412D01*
X70210Y276491D01*
X70196Y276569D01*
X70171Y276643D01*
X70134Y276713D01*
X70087Y276776D01*
X70031Y276831D01*
X69967Y276876D01*
X69896Y276910D01*
X69630Y277005D01*
X69356Y277072D01*
X69076Y277112D01*
X68795Y277125D01*
Y332677D01*
G37*
G36*
X66413D02*X68795D01*
Y277125D01*
X68794Y277125D01*
X68512Y277112D01*
X68232Y277072D01*
X67958Y277005D01*
X67691Y276913D01*
X67620Y276878D01*
X67555Y276833D01*
X67499Y276778D01*
X67451Y276714D01*
X67415Y276644D01*
X67389Y276569D01*
X67376Y276491D01*
X67375Y276412D01*
X67386Y276334D01*
X67410Y276259D01*
X67445Y276188D01*
X67490Y276123D01*
X67546Y276067D01*
X67609Y276019D01*
X67679Y275983D01*
X67754Y275957D01*
X67832Y275944D01*
X67911Y275943D01*
X67989Y275954D01*
X68064Y275979D01*
X68240Y276042D01*
X68422Y276086D01*
X68607Y276113D01*
X68794Y276122D01*
X68795Y276122D01*
Y272185D01*
X68794Y272185D01*
X68607Y272194D01*
X68422Y272220D01*
X68240Y272264D01*
X68063Y272326D01*
X67989Y272350D01*
X67911Y272362D01*
X67832Y272361D01*
X67754Y272348D01*
X67680Y272322D01*
X67610Y272286D01*
X67547Y272239D01*
X67492Y272182D01*
X67447Y272118D01*
X67412Y272047D01*
X67388Y271972D01*
X67377Y271894D01*
X67378Y271816D01*
X67391Y271738D01*
X67417Y271664D01*
X67453Y271594D01*
X67500Y271531D01*
X67557Y271476D01*
X67621Y271430D01*
X67692Y271397D01*
X67958Y271302D01*
X68232Y271235D01*
X68512Y271195D01*
X68794Y271182D01*
X68795Y271182D01*
Y1969D01*
X66413D01*
Y8626D01*
X66869Y9160D01*
X67404Y10032D01*
X67795Y10977D01*
X68034Y11972D01*
X68094Y12992D01*
X68034Y14012D01*
X67795Y15007D01*
X67404Y15952D01*
X66869Y16825D01*
X66413Y17359D01*
Y26625D01*
X66733Y26758D01*
X67068Y26963D01*
X67368Y27219D01*
X67623Y27518D01*
X67829Y27854D01*
X67979Y28217D01*
X68071Y28600D01*
X68102Y28992D01*
X68094Y29090D01*
Y36894D01*
X68102Y36992D01*
X68071Y37384D01*
X68071Y37384D01*
X67979Y37767D01*
X67829Y38131D01*
X67623Y38466D01*
X67368Y38765D01*
X67068Y39021D01*
X66733Y39227D01*
X66413Y39359D01*
Y262747D01*
X66447Y262802D01*
X66626Y263233D01*
X66735Y263688D01*
X66762Y264153D01*
X66735Y264619D01*
X66626Y265074D01*
X66447Y265505D01*
X66413Y265560D01*
Y272743D01*
X66456Y272735D01*
X66535Y272734D01*
X66613Y272746D01*
X66689Y272769D01*
X66760Y272804D01*
X66824Y272850D01*
X66881Y272905D01*
X66928Y272969D01*
X66965Y273039D01*
X66990Y273114D01*
X67003Y273191D01*
X67004Y273270D01*
X66993Y273349D01*
X66968Y273424D01*
X66905Y273600D01*
X66861Y273781D01*
X66834Y273967D01*
X66825Y274153D01*
X66834Y274340D01*
X66861Y274526D01*
X66905Y274707D01*
X66966Y274884D01*
X66991Y274959D01*
X67002Y275037D01*
X67001Y275115D01*
X66988Y275193D01*
X66963Y275267D01*
X66926Y275337D01*
X66879Y275400D01*
X66823Y275455D01*
X66758Y275501D01*
X66688Y275535D01*
X66613Y275559D01*
X66535Y275570D01*
X66456Y275569D01*
X66413Y275562D01*
Y332677D01*
G37*
G36*
Y17359D02*X66205Y17602D01*
X65427Y18267D01*
X64555Y18802D01*
X63609Y19193D01*
X62614Y19432D01*
X61594Y19512D01*
X60575Y19432D01*
X59580Y19193D01*
X58929Y18924D01*
Y26492D01*
X65497D01*
X65594Y26484D01*
X65987Y26515D01*
X65987Y26515D01*
X66369Y26607D01*
X66413Y26625D01*
Y17359D01*
G37*
G36*
Y1969D02*X58929D01*
Y7061D01*
X59580Y6791D01*
X60575Y6552D01*
X61594Y6472D01*
X62614Y6552D01*
X63609Y6791D01*
X64555Y7183D01*
X65427Y7717D01*
X66205Y8382D01*
X66413Y8626D01*
Y1969D01*
G37*
G36*
X58929Y332677D02*X66413D01*
Y275562D01*
X66379Y275556D01*
X66304Y275531D01*
X66234Y275494D01*
X66171Y275447D01*
X66116Y275391D01*
X66071Y275326D01*
X66037Y275255D01*
X65942Y274990D01*
X65876Y274715D01*
X65835Y274436D01*
X65822Y274153D01*
X65835Y273871D01*
X65876Y273592D01*
X65942Y273317D01*
X66034Y273050D01*
X66069Y272979D01*
X66115Y272915D01*
X66170Y272858D01*
X66233Y272811D01*
X66303Y272774D01*
X66378Y272749D01*
X66413Y272743D01*
Y265560D01*
X66203Y265904D01*
X65899Y266259D01*
X65544Y266562D01*
X65146Y266807D01*
X64714Y266985D01*
X64260Y267094D01*
X63794Y267131D01*
X63328Y267094D01*
X62874Y266985D01*
X62442Y266807D01*
X62044Y266562D01*
X61688Y266259D01*
X61385Y265904D01*
X61141Y265505D01*
X60962Y265074D01*
X60853Y264619D01*
X60816Y264153D01*
X60853Y263688D01*
X60962Y263233D01*
X61141Y262802D01*
X61385Y262403D01*
X61688Y262048D01*
X62044Y261744D01*
X62442Y261500D01*
X62874Y261322D01*
X63328Y261212D01*
X63794Y261176D01*
X64260Y261212D01*
X64714Y261322D01*
X65146Y261500D01*
X65544Y261744D01*
X65899Y262048D01*
X66203Y262403D01*
X66413Y262747D01*
Y39359D01*
X66369Y39377D01*
X65987Y39469D01*
X65594Y39500D01*
X65496Y39492D01*
X58929D01*
Y126991D01*
X58981Y127051D01*
X59474Y127857D01*
X59836Y128729D01*
X60056Y129648D01*
X60112Y130589D01*
X60056Y131531D01*
X59836Y132449D01*
X59474Y133321D01*
X58981Y134127D01*
X58929Y134187D01*
Y147726D01*
X58986Y147736D01*
X59136Y147786D01*
X59275Y147858D01*
X59402Y147951D01*
X59512Y148064D01*
X59604Y148192D01*
X59672Y148333D01*
X59870Y148877D01*
X60008Y149439D01*
X60091Y150011D01*
X60119Y150589D01*
X60091Y151167D01*
X60008Y151739D01*
X59870Y152301D01*
X59678Y152847D01*
X59608Y152989D01*
X59516Y153118D01*
X59405Y153230D01*
X59278Y153324D01*
X59137Y153397D01*
X58987Y153447D01*
X58929Y153456D01*
Y167726D01*
X58986Y167736D01*
X59136Y167786D01*
X59275Y167858D01*
X59402Y167951D01*
X59512Y168064D01*
X59604Y168192D01*
X59672Y168333D01*
X59870Y168877D01*
X60008Y169439D01*
X60091Y170011D01*
X60119Y170589D01*
X60091Y171167D01*
X60008Y171739D01*
X59870Y172301D01*
X59678Y172847D01*
X59608Y172989D01*
X59516Y173118D01*
X59405Y173230D01*
X59278Y173324D01*
X59137Y173397D01*
X58987Y173447D01*
X58929Y173456D01*
Y186991D01*
X58981Y187051D01*
X59474Y187857D01*
X59836Y188729D01*
X60056Y189648D01*
X60112Y190589D01*
X60056Y191531D01*
X59836Y192449D01*
X59474Y193321D01*
X58981Y194127D01*
X58929Y194187D01*
Y271186D01*
X59260Y271212D01*
X59714Y271322D01*
X60146Y271500D01*
X60544Y271744D01*
X60899Y272048D01*
X61203Y272403D01*
X61447Y272802D01*
X61626Y273233D01*
X61735Y273688D01*
X61762Y274153D01*
X61735Y274619D01*
X61626Y275074D01*
X61447Y275505D01*
X61203Y275904D01*
X60899Y276259D01*
X60544Y276562D01*
X60146Y276807D01*
X59714Y276985D01*
X59260Y277094D01*
X58929Y277120D01*
Y332677D01*
G37*
G36*
Y194187D02*X58367Y194845D01*
X57649Y195458D01*
X56844Y195952D01*
X55972Y196313D01*
X55374Y196457D01*
Y261603D01*
X55563Y261719D01*
X55915Y262032D01*
X55975Y262092D01*
X56065Y262169D01*
X56371Y262528D01*
X56372Y262528D01*
X56618Y262930D01*
X56799Y263367D01*
X56909Y263826D01*
X56946Y264297D01*
X56937Y264414D01*
Y271836D01*
X57044Y271744D01*
X57442Y271500D01*
X57874Y271322D01*
X58328Y271212D01*
X58794Y271176D01*
X58929Y271186D01*
Y194187D01*
G37*
G36*
Y134187D02*X58367Y134845D01*
X57649Y135458D01*
X56844Y135952D01*
X55972Y136313D01*
X55374Y136457D01*
Y144721D01*
X55824Y144831D01*
X56370Y145023D01*
X56512Y145093D01*
X56640Y145185D01*
X56753Y145296D01*
X56847Y145423D01*
X56920Y145563D01*
X56970Y145713D01*
X56995Y145869D01*
X56997Y146028D01*
X56973Y146184D01*
X56925Y146335D01*
X56854Y146476D01*
X56762Y146605D01*
X56651Y146717D01*
X56524Y146811D01*
X56384Y146884D01*
X56234Y146934D01*
X56078Y146960D01*
X55920Y146961D01*
X55763Y146937D01*
X55614Y146887D01*
X55374Y146799D01*
Y154380D01*
X55615Y154296D01*
X55764Y154245D01*
X55920Y154222D01*
X56077Y154223D01*
X56233Y154249D01*
X56382Y154298D01*
X56522Y154371D01*
X56648Y154464D01*
X56759Y154576D01*
X56850Y154704D01*
X56921Y154845D01*
X56968Y154995D01*
X56992Y155151D01*
X56991Y155308D01*
X56965Y155464D01*
X56915Y155613D01*
X56843Y155753D01*
X56749Y155879D01*
X56637Y155990D01*
X56509Y156081D01*
X56367Y156149D01*
X55824Y156347D01*
X55374Y156457D01*
Y164721D01*
X55824Y164831D01*
X56370Y165023D01*
X56512Y165093D01*
X56640Y165185D01*
X56753Y165296D01*
X56847Y165423D01*
X56920Y165563D01*
X56970Y165713D01*
X56995Y165869D01*
X56997Y166028D01*
X56973Y166184D01*
X56925Y166335D01*
X56854Y166476D01*
X56762Y166605D01*
X56651Y166717D01*
X56524Y166811D01*
X56384Y166884D01*
X56234Y166934D01*
X56078Y166960D01*
X55920Y166961D01*
X55763Y166937D01*
X55614Y166887D01*
X55374Y166799D01*
Y174380D01*
X55615Y174296D01*
X55764Y174245D01*
X55920Y174222D01*
X56077Y174223D01*
X56233Y174249D01*
X56382Y174298D01*
X56522Y174371D01*
X56648Y174464D01*
X56759Y174576D01*
X56850Y174704D01*
X56921Y174845D01*
X56968Y174995D01*
X56992Y175151D01*
X56991Y175308D01*
X56965Y175464D01*
X56915Y175613D01*
X56843Y175753D01*
X56749Y175879D01*
X56637Y175990D01*
X56509Y176081D01*
X56367Y176149D01*
X55824Y176347D01*
X55374Y176457D01*
Y184722D01*
X55972Y184865D01*
X56844Y185227D01*
X57649Y185720D01*
X58367Y186333D01*
X58929Y186991D01*
Y173456D01*
X58831Y173473D01*
X58673Y173474D01*
X58517Y173450D01*
X58366Y173402D01*
X58225Y173332D01*
X58096Y173240D01*
X57984Y173129D01*
X57890Y173001D01*
X57817Y172861D01*
X57767Y172711D01*
X57741Y172555D01*
X57740Y172397D01*
X57763Y172241D01*
X57814Y172091D01*
X57946Y171729D01*
X58038Y171355D01*
X58093Y170974D01*
X58112Y170589D01*
X58093Y170204D01*
X58038Y169823D01*
X57946Y169449D01*
X57818Y169085D01*
X57768Y168936D01*
X57744Y168781D01*
X57746Y168623D01*
X57771Y168468D01*
X57821Y168319D01*
X57894Y168179D01*
X57987Y168052D01*
X58099Y167942D01*
X58227Y167850D01*
X58368Y167780D01*
X58518Y167732D01*
X58674Y167709D01*
X58831Y167710D01*
X58929Y167726D01*
Y153456D01*
X58831Y153473D01*
X58673Y153474D01*
X58517Y153450D01*
X58366Y153402D01*
X58225Y153332D01*
X58096Y153240D01*
X57984Y153129D01*
X57890Y153001D01*
X57817Y152861D01*
X57767Y152711D01*
X57741Y152555D01*
X57740Y152397D01*
X57763Y152241D01*
X57814Y152091D01*
X57946Y151729D01*
X58038Y151355D01*
X58093Y150974D01*
X58112Y150589D01*
X58093Y150204D01*
X58038Y149823D01*
X57946Y149449D01*
X57818Y149085D01*
X57768Y148936D01*
X57744Y148781D01*
X57746Y148623D01*
X57771Y148468D01*
X57821Y148319D01*
X57894Y148179D01*
X57987Y148052D01*
X58099Y147942D01*
X58227Y147850D01*
X58368Y147780D01*
X58518Y147732D01*
X58674Y147709D01*
X58831Y147710D01*
X58929Y147726D01*
Y134187D01*
G37*
G36*
Y39492D02*X57692D01*
X57594Y39500D01*
X57202Y39469D01*
X57202Y39469D01*
X56820Y39377D01*
X56456Y39227D01*
X56120Y39021D01*
X55821Y38765D01*
X55566Y38466D01*
X55374Y38153D01*
Y55641D01*
X55652Y56095D01*
X56043Y57040D01*
X56282Y58035D01*
X56343Y59055D01*
X56282Y60075D01*
X56043Y61070D01*
X55652Y62015D01*
X55374Y62469D01*
Y124722D01*
X55972Y124865D01*
X56844Y125227D01*
X57649Y125720D01*
X58367Y126333D01*
X58929Y126991D01*
Y39492D01*
G37*
G36*
Y18924D02*X58634Y18802D01*
X57762Y18267D01*
X56984Y17602D01*
X56320Y16825D01*
X55785Y15952D01*
X55394Y15007D01*
X55374Y14924D01*
Y27832D01*
X55566Y27518D01*
X55821Y27219D01*
X56120Y26963D01*
X56456Y26758D01*
X56820Y26607D01*
X57202Y26515D01*
X57594Y26484D01*
X57692Y26492D01*
X58929D01*
Y18924D01*
G37*
G36*
Y1969D02*X55374D01*
Y11061D01*
X55394Y10977D01*
X55785Y10032D01*
X56320Y9160D01*
X56984Y8382D01*
X57762Y7717D01*
X58634Y7183D01*
X58929Y7061D01*
Y1969D01*
G37*
G36*
X55374Y332677D02*X58929D01*
Y277120D01*
X58794Y277131D01*
X58328Y277094D01*
X57874Y276985D01*
X57442Y276807D01*
X57044Y276562D01*
X56937Y276471D01*
Y285046D01*
X57439Y285475D01*
X57943Y286066D01*
X58349Y286728D01*
X58647Y287446D01*
X58828Y288202D01*
X58874Y288976D01*
X58828Y289751D01*
X58647Y290507D01*
X58349Y291225D01*
X57943Y291887D01*
X57439Y292478D01*
X56848Y292983D01*
X56185Y293389D01*
X55467Y293686D01*
X55374Y293709D01*
Y332677D01*
G37*
G36*
X51606Y52794D02*X51857Y52854D01*
X52803Y53246D01*
X53675Y53780D01*
X54453Y54445D01*
X55117Y55223D01*
X55374Y55641D01*
Y38153D01*
X55360Y38131D01*
X55210Y37767D01*
X55118Y37384D01*
X55087Y36992D01*
X55094Y36894D01*
Y29090D01*
X55087Y28992D01*
X55118Y28600D01*
X55118Y28600D01*
X55210Y28217D01*
X55360Y27854D01*
X55374Y27832D01*
Y14924D01*
X55155Y14012D01*
X55074Y12992D01*
X55155Y11972D01*
X55374Y11061D01*
Y1969D01*
X51606D01*
Y20969D01*
X51763Y20982D01*
X51916Y21018D01*
X52062Y21079D01*
X52196Y21161D01*
X52316Y21263D01*
X52418Y21383D01*
X52500Y21517D01*
X52560Y21662D01*
X52597Y21816D01*
X52606Y21972D01*
Y30783D01*
X52597Y30940D01*
X52560Y31093D01*
X52500Y31239D01*
X52418Y31373D01*
X52316Y31493D01*
X52196Y31595D01*
X52062Y31677D01*
X51916Y31737D01*
X51763Y31774D01*
X51606Y31787D01*
Y52794D01*
G37*
G36*
X49294Y52578D02*X49843Y52535D01*
X50862Y52615D01*
X51606Y52794D01*
Y31787D01*
X51449Y31774D01*
X51296Y31737D01*
X51151Y31677D01*
X51017Y31595D01*
X50897Y31493D01*
X50795Y31373D01*
X50713Y31239D01*
X50652Y31093D01*
X50616Y30940D01*
X50606Y30783D01*
Y21972D01*
X50616Y21816D01*
X50652Y21662D01*
X50713Y21517D01*
X50795Y21383D01*
X50897Y21263D01*
X51017Y21161D01*
X51151Y21079D01*
X51296Y21018D01*
X51449Y20982D01*
X51606Y20969D01*
Y1969D01*
X49294D01*
Y15786D01*
X49637Y15918D01*
X50047Y16121D01*
X50436Y16361D01*
X50802Y16635D01*
X51141Y16942D01*
X51245Y17061D01*
X51328Y17195D01*
X51389Y17340D01*
X51426Y17494D01*
X51439Y17651D01*
X51427Y17809D01*
X51391Y17962D01*
X51331Y18108D01*
X51249Y18243D01*
X51147Y18364D01*
X51027Y18467D01*
X50893Y18550D01*
X50748Y18611D01*
X50594Y18648D01*
X50437Y18661D01*
X50279Y18650D01*
X50126Y18613D01*
X49980Y18554D01*
X49845Y18472D01*
X49726Y18367D01*
X49526Y18182D01*
X49308Y18018D01*
X49294Y18010D01*
Y34746D01*
X49308Y34738D01*
X49526Y34574D01*
X49729Y34391D01*
X49846Y34287D01*
X49981Y34205D01*
X50127Y34145D01*
X50280Y34109D01*
X50437Y34098D01*
X50594Y34111D01*
X50747Y34148D01*
X50892Y34209D01*
X51026Y34292D01*
X51145Y34394D01*
X51247Y34514D01*
X51328Y34649D01*
X51388Y34794D01*
X51424Y34948D01*
X51436Y35105D01*
X51423Y35262D01*
X51386Y35414D01*
X51325Y35560D01*
X51242Y35693D01*
X51137Y35811D01*
X50802Y36121D01*
X50436Y36395D01*
X50047Y36635D01*
X49637Y36838D01*
X49294Y36970D01*
Y52578D01*
G37*
G36*
Y126991D02*X49856Y126333D01*
X50574Y125720D01*
X51379Y125227D01*
X52252Y124865D01*
X53170Y124645D01*
X54112Y124571D01*
X55053Y124645D01*
X55374Y124722D01*
Y62469D01*
X55117Y62888D01*
X54453Y63665D01*
X53675Y64330D01*
X52803Y64865D01*
X51857Y65256D01*
X50862Y65495D01*
X49843Y65575D01*
X49294Y65532D01*
Y114495D01*
X49786Y114915D01*
X50604Y115872D01*
X51262Y116946D01*
X51744Y118109D01*
X52038Y119334D01*
X52112Y120589D01*
X52038Y121844D01*
X51744Y123069D01*
X51262Y124232D01*
X50604Y125306D01*
X49786Y126263D01*
X49294Y126683D01*
Y126991D01*
G37*
G36*
Y186991D02*X49856Y186333D01*
X50574Y185720D01*
X51379Y185227D01*
X52252Y184865D01*
X53170Y184645D01*
X54112Y184571D01*
X55053Y184645D01*
X55374Y184722D01*
Y176457D01*
X55262Y176485D01*
X54690Y176568D01*
X54112Y176596D01*
X53534Y176568D01*
X52961Y176485D01*
X52400Y176347D01*
X51854Y176155D01*
X51712Y176085D01*
X51583Y175993D01*
X51471Y175882D01*
X51377Y175755D01*
X51304Y175615D01*
X51254Y175465D01*
X51228Y175309D01*
X51227Y175151D01*
X51251Y174994D01*
X51298Y174843D01*
X51369Y174702D01*
X51461Y174573D01*
X51572Y174461D01*
X51699Y174367D01*
X51840Y174294D01*
X51990Y174244D01*
X52146Y174218D01*
X52304Y174217D01*
X52460Y174241D01*
X52610Y174291D01*
X52972Y174423D01*
X53346Y174515D01*
X53727Y174570D01*
X54112Y174589D01*
X54497Y174570D01*
X54878Y174515D01*
X55252Y174423D01*
X55374Y174380D01*
Y166799D01*
X55252Y166755D01*
X54878Y166663D01*
X54497Y166608D01*
X54112Y166589D01*
X53727Y166608D01*
X53346Y166663D01*
X52972Y166755D01*
X52608Y166882D01*
X52459Y166933D01*
X52304Y166956D01*
X52146Y166955D01*
X51991Y166929D01*
X51841Y166880D01*
X51702Y166807D01*
X51575Y166714D01*
X51465Y166602D01*
X51373Y166474D01*
X51303Y166333D01*
X51255Y166183D01*
X51232Y166027D01*
X51233Y165870D01*
X51258Y165715D01*
X51308Y165565D01*
X51381Y165425D01*
X51474Y165299D01*
X51586Y165188D01*
X51714Y165097D01*
X51856Y165029D01*
X52400Y164831D01*
X52961Y164693D01*
X53534Y164610D01*
X54112Y164582D01*
X54690Y164610D01*
X55262Y164693D01*
X55374Y164721D01*
Y156457D01*
X55262Y156485D01*
X54690Y156568D01*
X54112Y156596D01*
X53534Y156568D01*
X52961Y156485D01*
X52400Y156347D01*
X51854Y156155D01*
X51712Y156085D01*
X51583Y155993D01*
X51471Y155882D01*
X51377Y155755D01*
X51304Y155615D01*
X51254Y155465D01*
X51228Y155309D01*
X51227Y155151D01*
X51251Y154994D01*
X51298Y154843D01*
X51369Y154702D01*
X51461Y154573D01*
X51572Y154461D01*
X51699Y154367D01*
X51840Y154294D01*
X51990Y154244D01*
X52146Y154218D01*
X52304Y154217D01*
X52460Y154241D01*
X52610Y154291D01*
X52972Y154423D01*
X53346Y154515D01*
X53727Y154570D01*
X54112Y154589D01*
X54497Y154570D01*
X54878Y154515D01*
X55252Y154423D01*
X55374Y154380D01*
Y146799D01*
X55252Y146755D01*
X54878Y146663D01*
X54497Y146608D01*
X54112Y146589D01*
X53727Y146608D01*
X53346Y146663D01*
X52972Y146755D01*
X52608Y146882D01*
X52459Y146933D01*
X52304Y146956D01*
X52146Y146955D01*
X51991Y146929D01*
X51841Y146880D01*
X51702Y146807D01*
X51575Y146714D01*
X51465Y146602D01*
X51373Y146474D01*
X51303Y146333D01*
X51255Y146183D01*
X51232Y146027D01*
X51233Y145870D01*
X51258Y145715D01*
X51308Y145565D01*
X51381Y145425D01*
X51474Y145299D01*
X51586Y145188D01*
X51714Y145097D01*
X51856Y145029D01*
X52400Y144831D01*
X52961Y144693D01*
X53534Y144610D01*
X54112Y144582D01*
X54690Y144610D01*
X55262Y144693D01*
X55374Y144721D01*
Y136457D01*
X55053Y136533D01*
X54112Y136608D01*
X53170Y136533D01*
X52252Y136313D01*
X51379Y135952D01*
X50574Y135458D01*
X49856Y134845D01*
X49294Y134187D01*
Y147722D01*
X49392Y147705D01*
X49550Y147704D01*
X49707Y147728D01*
X49857Y147776D01*
X49999Y147846D01*
X50127Y147938D01*
X50240Y148049D01*
X50334Y148177D01*
X50407Y148317D01*
X50457Y148467D01*
X50483Y148623D01*
X50484Y148781D01*
X50460Y148937D01*
X50409Y149087D01*
X50278Y149449D01*
X50186Y149823D01*
X50130Y150204D01*
X50112Y150589D01*
X50130Y150974D01*
X50186Y151355D01*
X50278Y151729D01*
X50405Y152093D01*
X50456Y152242D01*
X50479Y152397D01*
X50478Y152555D01*
X50452Y152710D01*
X50402Y152859D01*
X50330Y152999D01*
X50236Y153126D01*
X50124Y153236D01*
X49996Y153328D01*
X49856Y153398D01*
X49706Y153446D01*
X49550Y153469D01*
X49393Y153468D01*
X49294Y153452D01*
Y167722D01*
X49392Y167705D01*
X49550Y167704D01*
X49707Y167728D01*
X49857Y167776D01*
X49999Y167846D01*
X50127Y167938D01*
X50240Y168049D01*
X50334Y168177D01*
X50407Y168317D01*
X50457Y168467D01*
X50483Y168623D01*
X50484Y168781D01*
X50460Y168937D01*
X50409Y169087D01*
X50278Y169449D01*
X50186Y169823D01*
X50130Y170204D01*
X50112Y170589D01*
X50130Y170974D01*
X50186Y171355D01*
X50278Y171729D01*
X50405Y172093D01*
X50456Y172242D01*
X50479Y172397D01*
X50478Y172555D01*
X50452Y172710D01*
X50402Y172859D01*
X50330Y172999D01*
X50236Y173126D01*
X50124Y173236D01*
X49996Y173328D01*
X49856Y173398D01*
X49706Y173446D01*
X49550Y173469D01*
X49393Y173468D01*
X49294Y173452D01*
Y186991D01*
G37*
G36*
Y287284D02*X49525Y286728D01*
X49931Y286066D01*
X50435Y285475D01*
X50937Y285046D01*
Y265096D01*
X50932Y265083D01*
X50822Y264624D01*
X50785Y264153D01*
X50822Y263683D01*
X50932Y263224D01*
X51113Y262787D01*
X51359Y262385D01*
X51666Y262026D01*
X52025Y261719D01*
X52428Y261472D01*
X52864Y261291D01*
X53323Y261181D01*
X53794Y261144D01*
X54265Y261181D01*
X54724Y261291D01*
X55160Y261472D01*
X55374Y261603D01*
Y196457D01*
X55053Y196533D01*
X54112Y196608D01*
X53170Y196533D01*
X52252Y196313D01*
X51379Y195952D01*
X50574Y195458D01*
X49856Y194845D01*
X49294Y194187D01*
Y194495D01*
X49786Y194915D01*
X50604Y195872D01*
X51262Y196946D01*
X51744Y198109D01*
X52038Y199334D01*
X52112Y200589D01*
X52038Y201844D01*
X51744Y203069D01*
X51262Y204232D01*
X50604Y205306D01*
X49786Y206263D01*
X49294Y206683D01*
Y287284D01*
G37*
G36*
Y332677D02*X55374D01*
Y293709D01*
X54712Y293868D01*
X53937Y293929D01*
X53162Y293868D01*
X52407Y293686D01*
X51689Y293389D01*
X51026Y292983D01*
X50435Y292478D01*
X49931Y291887D01*
X49525Y291225D01*
X49294Y290669D01*
Y332677D01*
G37*
G36*
X43669Y56973D02*X44033Y56095D01*
X44568Y55223D01*
X45232Y54445D01*
X46010Y53780D01*
X46882Y53246D01*
X47828Y52854D01*
X48823Y52615D01*
X49294Y52578D01*
Y36970D01*
X49211Y37002D01*
X48771Y37126D01*
X48322Y37210D01*
X47866Y37252D01*
X47409D01*
X46954Y37210D01*
X46505Y37126D01*
X46065Y37002D01*
X45638Y36838D01*
X45229Y36635D01*
X44839Y36395D01*
X44474Y36121D01*
X44135Y35814D01*
X44031Y35695D01*
X43948Y35561D01*
X43887Y35415D01*
X43850Y35262D01*
X43837Y35105D01*
X43848Y34947D01*
X43885Y34794D01*
X43944Y34647D01*
X44026Y34512D01*
X44128Y34392D01*
X44248Y34289D01*
X44382Y34206D01*
X44528Y34145D01*
X44681Y34107D01*
X44839Y34094D01*
X44996Y34106D01*
X45150Y34142D01*
X45296Y34202D01*
X45431Y34284D01*
X45549Y34389D01*
X45749Y34574D01*
X45968Y34738D01*
X46200Y34881D01*
X46444Y35002D01*
X46699Y35100D01*
X46962Y35174D01*
X47230Y35224D01*
X47501Y35249D01*
X47774D01*
X48046Y35224D01*
X48314Y35174D01*
X48577Y35100D01*
X48831Y35002D01*
X49076Y34881D01*
X49294Y34746D01*
Y18010D01*
X49076Y17875D01*
X48831Y17754D01*
X48577Y17656D01*
X48314Y17582D01*
X48046Y17532D01*
X47774Y17507D01*
X47501D01*
X47230Y17532D01*
X46962Y17582D01*
X46699Y17656D01*
X46444Y17754D01*
X46200Y17875D01*
X45968Y18018D01*
X45749Y18182D01*
X45547Y18365D01*
X45429Y18469D01*
X45295Y18551D01*
X45149Y18610D01*
X44996Y18647D01*
X44839Y18658D01*
X44682Y18645D01*
X44529Y18608D01*
X44384Y18547D01*
X44250Y18464D01*
X44131Y18362D01*
X44029Y18242D01*
X43947Y18107D01*
X43888Y17961D01*
X43851Y17808D01*
X43840Y17651D01*
X43853Y17494D01*
X43890Y17341D01*
X43951Y17196D01*
X44034Y17062D01*
X44138Y16945D01*
X44474Y16635D01*
X44839Y16361D01*
X45229Y16121D01*
X45638Y15918D01*
X46065Y15754D01*
X46505Y15629D01*
X46954Y15546D01*
X47409Y15504D01*
X47866D01*
X48322Y15546D01*
X48771Y15629D01*
X49211Y15754D01*
X49294Y15786D01*
Y1969D01*
X43669D01*
Y20969D01*
X43826Y20982D01*
X43979Y21018D01*
X44125Y21079D01*
X44259Y21161D01*
X44379Y21263D01*
X44481Y21383D01*
X44563Y21517D01*
X44623Y21662D01*
X44660Y21816D01*
X44669Y21972D01*
Y30783D01*
X44660Y30940D01*
X44623Y31093D01*
X44563Y31239D01*
X44481Y31373D01*
X44379Y31493D01*
X44259Y31595D01*
X44125Y31677D01*
X43979Y31737D01*
X43826Y31774D01*
X43669Y31787D01*
Y56973D01*
G37*
G36*
X49294Y65532D02*X48823Y65495D01*
X47828Y65256D01*
X46882Y64865D01*
X46010Y64330D01*
X45232Y63665D01*
X44568Y62888D01*
X44033Y62015D01*
X43669Y61137D01*
Y112599D01*
X44112Y112564D01*
X45367Y112663D01*
X46592Y112957D01*
X47755Y113439D01*
X48829Y114097D01*
X49294Y114495D01*
Y65532D01*
G37*
G36*
X43669Y61137D02*X43642Y61070D01*
X43403Y60075D01*
X43322Y59055D01*
X43403Y58035D01*
X43642Y57040D01*
X43669Y56973D01*
Y31787D01*
X43512Y31774D01*
X43359Y31737D01*
X43214Y31677D01*
X43080Y31595D01*
X42960Y31493D01*
X42858Y31373D01*
X42776Y31239D01*
X42715Y31093D01*
X42679Y30940D01*
X42669Y30783D01*
Y21972D01*
X42679Y21816D01*
X42715Y21662D01*
X42776Y21517D01*
X42858Y21383D01*
X42960Y21263D01*
X43080Y21161D01*
X43214Y21079D01*
X43359Y21018D01*
X43512Y20982D01*
X43669Y20969D01*
Y1969D01*
X40774D01*
Y113312D01*
X41632Y112957D01*
X42856Y112663D01*
X43669Y112599D01*
Y61137D01*
G37*
G36*
X49294Y194187D02*X49243Y194127D01*
X48749Y193321D01*
X48388Y192449D01*
X48167Y191531D01*
X48093Y190589D01*
X48167Y189648D01*
X48388Y188729D01*
X48749Y187857D01*
X49243Y187051D01*
X49294Y186991D01*
Y173452D01*
X49237Y173442D01*
X49088Y173393D01*
X48948Y173320D01*
X48822Y173227D01*
X48711Y173115D01*
X48619Y172987D01*
X48552Y172845D01*
X48354Y172301D01*
X48216Y171739D01*
X48133Y171167D01*
X48105Y170589D01*
X48133Y170011D01*
X48216Y169439D01*
X48354Y168877D01*
X48545Y168331D01*
X48615Y168189D01*
X48707Y168061D01*
X48818Y167948D01*
X48946Y167854D01*
X49086Y167781D01*
X49236Y167731D01*
X49294Y167722D01*
Y153452D01*
X49237Y153442D01*
X49088Y153393D01*
X48948Y153320D01*
X48822Y153227D01*
X48711Y153115D01*
X48619Y152987D01*
X48552Y152845D01*
X48354Y152301D01*
X48216Y151739D01*
X48133Y151167D01*
X48105Y150589D01*
X48133Y150011D01*
X48216Y149439D01*
X48354Y148877D01*
X48545Y148331D01*
X48615Y148189D01*
X48707Y148061D01*
X48818Y147948D01*
X48946Y147854D01*
X49086Y147781D01*
X49236Y147731D01*
X49294Y147722D01*
Y134187D01*
X49243Y134127D01*
X48749Y133321D01*
X48388Y132449D01*
X48167Y131531D01*
X48093Y130589D01*
X48167Y129648D01*
X48388Y128729D01*
X48749Y127857D01*
X49243Y127051D01*
X49294Y126991D01*
Y126683D01*
X48829Y127081D01*
X47755Y127739D01*
X46592Y128221D01*
X45367Y128515D01*
X44112Y128614D01*
X42856Y128515D01*
X41632Y128221D01*
X40774Y127866D01*
Y193312D01*
X41632Y192957D01*
X42856Y192663D01*
X44112Y192564D01*
X45367Y192663D01*
X46592Y192957D01*
X47755Y193439D01*
X48829Y194097D01*
X49294Y194495D01*
Y194187D01*
G37*
G36*
X40774Y332677D02*X49294D01*
Y290669D01*
X49227Y290507D01*
X49046Y289751D01*
X48985Y288976D01*
X49046Y288202D01*
X49227Y287446D01*
X49294Y287284D01*
Y206683D01*
X48829Y207081D01*
X47755Y207739D01*
X46592Y208221D01*
X45367Y208515D01*
X44112Y208614D01*
X42856Y208515D01*
X41632Y208221D01*
X40774Y207866D01*
Y306210D01*
X40782Y306209D01*
X41557Y306270D01*
X42312Y306451D01*
X43030Y306749D01*
X43693Y307155D01*
X44284Y307660D01*
X44788Y308250D01*
X45194Y308913D01*
X45492Y309631D01*
X45673Y310387D01*
X45719Y311161D01*
X45673Y311936D01*
X45492Y312692D01*
X45194Y313410D01*
X44788Y314072D01*
X44284Y314663D01*
X43693Y315168D01*
X43030Y315574D01*
X42312Y315871D01*
X41557Y316053D01*
X40782Y316114D01*
X40774Y316113D01*
Y332677D01*
G37*
G36*
X24016D02*X40774D01*
Y316113D01*
X40007Y316053D01*
X39252Y315871D01*
X38534Y315574D01*
X37871Y315168D01*
X37280Y314663D01*
X36776Y314072D01*
X36370Y313410D01*
X36072Y312692D01*
X35891Y311936D01*
X35830Y311161D01*
X35891Y310387D01*
X36072Y309631D01*
X36370Y308913D01*
X36776Y308250D01*
X37280Y307660D01*
X37871Y307155D01*
X38534Y306749D01*
X39252Y306451D01*
X40007Y306270D01*
X40774Y306210D01*
Y207866D01*
X40469Y207739D01*
X39395Y207081D01*
X38437Y206263D01*
X37620Y205306D01*
X36962Y204232D01*
X36480Y203069D01*
X36186Y201844D01*
X36087Y200589D01*
X36186Y199334D01*
X36480Y198109D01*
X36962Y196946D01*
X37620Y195872D01*
X38437Y194915D01*
X39395Y194097D01*
X40469Y193439D01*
X40774Y193312D01*
Y127866D01*
X40469Y127739D01*
X39395Y127081D01*
X38437Y126263D01*
X37620Y125306D01*
X36962Y124232D01*
X36480Y123069D01*
X36186Y121844D01*
X36087Y120589D01*
X36186Y119334D01*
X36480Y118109D01*
X36962Y116946D01*
X37620Y115872D01*
X38437Y114915D01*
X39395Y114097D01*
X40469Y113439D01*
X40774Y113312D01*
Y1969D01*
X24016D01*
Y3693D01*
X26892D01*
X27672Y3739D01*
X28432Y3922D01*
X29155Y4221D01*
X29821Y4629D01*
X30416Y5137D01*
X30924Y5732D01*
X31333Y6399D01*
X31632Y7121D01*
X31814Y7882D01*
X31876Y8661D01*
X31814Y9441D01*
X31632Y10202D01*
X31333Y10924D01*
X30924Y11591D01*
X30416Y12186D01*
X29821Y12693D01*
X29155Y13102D01*
X28432Y13401D01*
X27672Y13584D01*
X26892Y13630D01*
X24016D01*
Y16867D01*
X24795Y16928D01*
X25556Y17110D01*
X26278Y17410D01*
X26945Y17818D01*
X27540Y18326D01*
X28048Y18921D01*
X28456Y19588D01*
X28756Y20310D01*
X28938Y21071D01*
X28984Y21850D01*
Y30906D01*
X28938Y31685D01*
X28756Y32446D01*
X28456Y33168D01*
X28048Y33835D01*
X27540Y34430D01*
X26945Y34938D01*
X26278Y35346D01*
X25556Y35645D01*
X24795Y35828D01*
X24016Y35889D01*
Y39126D01*
X26892D01*
X27672Y39172D01*
X28432Y39355D01*
X29155Y39654D01*
X29821Y40062D01*
X30416Y40570D01*
X30924Y41165D01*
X31333Y41832D01*
X31632Y42554D01*
X31814Y43315D01*
X31876Y44094D01*
X31814Y44874D01*
X31632Y45635D01*
X31333Y46357D01*
X30924Y47024D01*
X30416Y47619D01*
X29821Y48126D01*
X29155Y48535D01*
X28432Y48834D01*
X27672Y49017D01*
X26892Y49063D01*
X24016D01*
Y81925D01*
X24209Y82090D01*
X25712Y83850D01*
X26922Y85823D01*
X27807Y87962D01*
X28348Y90212D01*
X28484Y92520D01*
X28348Y94827D01*
X27807Y97078D01*
X26922Y99216D01*
X25712Y101189D01*
X24209Y102949D01*
X24016Y103115D01*
Y137507D01*
X24366Y138965D01*
X24462Y140589D01*
X24366Y142213D01*
X24016Y143671D01*
Y177507D01*
X24366Y178965D01*
X24462Y180589D01*
X24366Y182213D01*
X24016Y183671D01*
Y310271D01*
X24209Y310436D01*
X25712Y312196D01*
X26922Y314170D01*
X27807Y316308D01*
X28348Y318559D01*
X28484Y320866D01*
X28348Y323174D01*
X27807Y325424D01*
X26922Y327562D01*
X25712Y329536D01*
X24209Y331296D01*
X24016Y331461D01*
Y332677D01*
G37*
G36*
Y183671D02*X23986Y183797D01*
X23362Y185302D01*
X22511Y186691D01*
X21453Y187930D01*
X20214Y188988D01*
X18825Y189839D01*
X17320Y190463D01*
X15736Y190843D01*
X14112Y190971D01*
X14096Y190970D01*
Y306141D01*
X16087Y306298D01*
X18337Y306838D01*
X20476Y307724D01*
X22449Y308933D01*
X24016Y310271D01*
Y183671D01*
G37*
G36*
Y143671D02*X23986Y143797D01*
X23362Y145302D01*
X22511Y146691D01*
X21453Y147930D01*
X20214Y148988D01*
X18825Y149839D01*
X17320Y150463D01*
X15736Y150843D01*
X14112Y150971D01*
X14096Y150970D01*
Y170208D01*
X14112Y170207D01*
X15736Y170335D01*
X17320Y170715D01*
X18825Y171339D01*
X20214Y172190D01*
X21453Y173248D01*
X22511Y174487D01*
X23362Y175876D01*
X23986Y177381D01*
X24016Y177507D01*
Y143671D01*
G37*
G36*
Y103115D02*X22449Y104453D01*
X20476Y105662D01*
X18337Y106548D01*
X16087Y107088D01*
X14096Y107245D01*
Y130208D01*
X14112Y130207D01*
X15736Y130335D01*
X17320Y130715D01*
X18825Y131339D01*
X20214Y132190D01*
X21453Y133248D01*
X22511Y134487D01*
X23362Y135876D01*
X23986Y137381D01*
X24016Y137507D01*
Y103115D01*
G37*
G36*
Y49063D02*X17049D01*
X16270Y49017D01*
X15509Y48834D01*
X14787Y48535D01*
X14120Y48126D01*
X14096Y48106D01*
Y55547D01*
X14206Y55419D01*
X14356Y55291D01*
X14523Y55188D01*
X14705Y55113D01*
X14896Y55067D01*
X15093Y55051D01*
X15289Y55067D01*
X15480Y55113D01*
X15662Y55188D01*
X15830Y55291D01*
X15979Y55419D01*
X16107Y55568D01*
X16210Y55736D01*
X16285Y55918D01*
X16331Y56109D01*
X16343Y56305D01*
Y61805D01*
X16331Y62001D01*
X16285Y62193D01*
X16210Y62374D01*
X16107Y62542D01*
X15979Y62692D01*
X15830Y62820D01*
X15662Y62922D01*
X15480Y62998D01*
X15289Y63044D01*
X15093Y63059D01*
X14896Y63044D01*
X14705Y62998D01*
X14523Y62922D01*
X14356Y62820D01*
X14206Y62692D01*
X14096Y62563D01*
Y77795D01*
X16087Y77951D01*
X18337Y78492D01*
X20476Y79377D01*
X22449Y80587D01*
X24016Y81925D01*
Y49063D01*
G37*
G36*
Y13630D02*X17049D01*
X16270Y13584D01*
X15509Y13401D01*
X14787Y13102D01*
X14120Y12693D01*
X14096Y12673D01*
Y40083D01*
X14120Y40062D01*
X14787Y39654D01*
X15509Y39355D01*
X16270Y39172D01*
X17049Y39126D01*
X24016D01*
Y35889D01*
X23236Y35828D01*
X22476Y35645D01*
X21753Y35346D01*
X21086Y34938D01*
X20492Y34430D01*
X19984Y33835D01*
X19575Y33168D01*
X19276Y32446D01*
X19093Y31685D01*
X19047Y30906D01*
Y21850D01*
X19093Y21071D01*
X19276Y20310D01*
X19575Y19588D01*
X19984Y18921D01*
X20492Y18326D01*
X21086Y17818D01*
X21753Y17410D01*
X22476Y17110D01*
X23236Y16928D01*
X24016Y16867D01*
Y13630D01*
G37*
G36*
Y1969D02*X14096D01*
Y4650D01*
X14120Y4629D01*
X14787Y4221D01*
X15509Y3922D01*
X16270Y3739D01*
X17049Y3693D01*
X24016D01*
Y1969D01*
G37*
G36*
X22592Y332677D02*X24016D01*
Y331461D01*
X22592Y332677D01*
G37*
G36*
X14096Y107245D02*X13780Y107270D01*
X11472Y107088D01*
X9222Y106548D01*
X7083Y105662D01*
X5110Y104453D01*
X3350Y102949D01*
X1969Y101332D01*
Y312054D01*
X3350Y310436D01*
X5110Y308933D01*
X7083Y307724D01*
X9222Y306838D01*
X11472Y306298D01*
X13780Y306116D01*
X14096Y306141D01*
Y190970D01*
X12488Y190843D01*
X10904Y190463D01*
X9398Y189839D01*
X8009Y188988D01*
X6771Y187930D01*
X5713Y186691D01*
X4861Y185302D01*
X4238Y183797D01*
X3858Y182213D01*
X3730Y180589D01*
X3858Y178965D01*
X4238Y177381D01*
X4861Y175876D01*
X5713Y174487D01*
X6771Y173248D01*
X8009Y172190D01*
X9398Y171339D01*
X10904Y170715D01*
X12488Y170335D01*
X14096Y170208D01*
Y150970D01*
X12488Y150843D01*
X10904Y150463D01*
X9398Y149839D01*
X8009Y148988D01*
X6771Y147930D01*
X5713Y146691D01*
X4861Y145302D01*
X4238Y143797D01*
X3858Y142213D01*
X3730Y140589D01*
X3858Y138965D01*
X4238Y137381D01*
X4861Y135876D01*
X5713Y134487D01*
X6771Y133248D01*
X8009Y132190D01*
X9398Y131339D01*
X10904Y130715D01*
X12488Y130335D01*
X14096Y130208D01*
Y107245D01*
G37*
G36*
Y1969D02*X1969D01*
Y83707D01*
X3350Y82090D01*
X5110Y80587D01*
X7083Y79377D01*
X9222Y78492D01*
X11472Y77951D01*
X13780Y77770D01*
X14096Y77795D01*
Y62563D01*
X14078Y62542D01*
X13975Y62374D01*
X13900Y62193D01*
X13854Y62001D01*
X13843Y61805D01*
Y63055D01*
X12593D01*
X12789Y63067D01*
X12980Y63113D01*
X13162Y63188D01*
X13330Y63291D01*
X13479Y63419D01*
X13607Y63568D01*
X13710Y63736D01*
X13785Y63918D01*
X13831Y64109D01*
X13846Y64305D01*
X13831Y64501D01*
X13785Y64693D01*
X13710Y64874D01*
X13607Y65042D01*
X13479Y65192D01*
X13330Y65320D01*
X13162Y65422D01*
X12980Y65498D01*
X12789Y65544D01*
X12593Y65555D01*
X7093D01*
X6896Y65544D01*
X6705Y65498D01*
X6523Y65422D01*
X6356Y65320D01*
X6206Y65192D01*
X6078Y65042D01*
X5975Y64874D01*
X5900Y64693D01*
X5854Y64501D01*
X5839Y64305D01*
X5854Y64109D01*
X5900Y63918D01*
X5975Y63736D01*
X6078Y63568D01*
X6206Y63418D01*
X6356Y63291D01*
X6523Y63188D01*
X6705Y63113D01*
X6896Y63067D01*
X7092Y63055D01*
X5843D01*
Y61805D01*
X5831Y62001D01*
X5785Y62193D01*
X5710Y62374D01*
X5607Y62542D01*
X5479Y62692D01*
X5330Y62820D01*
X5162Y62922D01*
X4980Y62998D01*
X4789Y63044D01*
X4593Y63059D01*
X4396Y63044D01*
X4205Y62998D01*
X4023Y62922D01*
X3856Y62820D01*
X3706Y62692D01*
X3578Y62542D01*
X3475Y62374D01*
X3400Y62193D01*
X3354Y62001D01*
X3343Y61805D01*
Y56305D01*
X3354Y56109D01*
X3400Y55918D01*
X3475Y55736D01*
X3578Y55568D01*
X3706Y55418D01*
X3856Y55291D01*
X4023Y55188D01*
X4205Y55113D01*
X4396Y55067D01*
X4593Y55051D01*
X4789Y55067D01*
X4980Y55113D01*
X5162Y55188D01*
X5330Y55291D01*
X5479Y55418D01*
X5607Y55568D01*
X5710Y55736D01*
X5785Y55918D01*
X5831Y56109D01*
X5843Y56305D01*
Y55055D01*
X7092D01*
X6896Y55044D01*
X6705Y54998D01*
X6523Y54922D01*
X6356Y54820D01*
X6206Y54692D01*
X6078Y54542D01*
X5975Y54374D01*
X5900Y54193D01*
X5854Y54001D01*
X5839Y53805D01*
X5854Y53609D01*
X5900Y53418D01*
X5975Y53236D01*
X6078Y53068D01*
X6206Y52919D01*
X6356Y52791D01*
X6523Y52688D01*
X6705Y52613D01*
X6896Y52567D01*
X7093Y52555D01*
X12593D01*
X12789Y52567D01*
X12980Y52613D01*
X13162Y52688D01*
X13330Y52791D01*
X13479Y52919D01*
X13607Y53068D01*
X13710Y53236D01*
X13785Y53418D01*
X13831Y53609D01*
X13846Y53805D01*
X13831Y54001D01*
X13785Y54193D01*
X13710Y54374D01*
X13607Y54542D01*
X13479Y54692D01*
X13330Y54820D01*
X13162Y54922D01*
X12980Y54998D01*
X12789Y55044D01*
X12593Y55055D01*
X13843D01*
Y56305D01*
X13854Y56109D01*
X13900Y55918D01*
X13975Y55736D01*
X14078Y55568D01*
X14096Y55547D01*
Y48106D01*
X13525Y47619D01*
X13017Y47024D01*
X12609Y46357D01*
X12310Y45635D01*
X12127Y44874D01*
X12066Y44094D01*
X12127Y43315D01*
X12310Y42554D01*
X12609Y41832D01*
X13017Y41165D01*
X13525Y40570D01*
X14096Y40083D01*
Y12673D01*
X13525Y12186D01*
X13017Y11591D01*
X12609Y10924D01*
X12310Y10202D01*
X12127Y9441D01*
X12066Y8661D01*
X12127Y7882D01*
X12310Y7121D01*
X12609Y6399D01*
X13017Y5732D01*
X13525Y5137D01*
X14096Y4650D01*
Y1969D01*
G37*
G54D36*X53937Y288976D02*X53794Y288833D01*
G54D37*Y264153D02*X53937Y264297D01*
Y288976D01*
G54D36*X157087Y271654D02*X133071D01*
X187402Y241732D02*X170866D01*
G54D38*X53937Y288976D03*
X101806Y311161D03*
G54D39*X134252Y321260D03*
G54D40*X206693Y320866D03*
G54D35*G36*
X198693Y304693D02*X204693D01*
Y298693D01*
X198693D01*
Y304693D01*
G37*
G54D41*X201693Y291693D03*
X211693Y301693D03*
Y291693D03*
G54D39*X157087Y271654D03*
X133071D03*
X187402Y241732D03*
X170866D03*
G54D41*X201693Y271693D03*
Y261693D03*
Y251693D03*
X211693Y271693D03*
Y261693D03*
Y251693D03*
Y241693D03*
X201693D03*
Y231693D03*
X211693D03*
X201693Y221693D03*
X211693D03*
Y211693D03*
Y201693D03*
Y191693D03*
Y181693D03*
Y171693D03*
Y161693D03*
Y151693D03*
Y141693D03*
Y131693D03*
Y121693D03*
Y111693D03*
X201693Y211693D03*
Y201693D03*
Y191693D03*
Y181693D03*
Y171693D03*
Y161693D03*
Y151693D03*
Y141693D03*
Y131693D03*
Y121693D03*
Y111693D03*
G54D40*X206693Y92520D03*
G54D35*G36*
X135524Y85780D02*Y91780D01*
X141524D01*
Y85780D01*
X135524D01*
G37*
G36*
X126075D02*Y91780D01*
X132075D01*
Y85780D01*
X126075D01*
G37*
G36*
X135524Y12000D02*Y18000D01*
X141524D01*
Y12000D01*
X135524D01*
G37*
G36*
X126075D02*Y18000D01*
X132075D01*
Y12000D01*
X126075D01*
G37*
G36*
X127965Y18890D02*Y24890D01*
X133965D01*
Y18890D01*
X127965D01*
G37*
G36*
Y78890D02*Y84890D01*
X133965D01*
Y78890D01*
X127965D01*
G37*
G54D38*X40782Y311161D03*
G54D40*X13780Y320866D03*
Y92520D03*
G54D42*X14112Y140589D03*
Y180589D03*
G54D35*G36*
X5843Y63055D02*X13843D01*
Y55055D01*
X5843D01*
Y63055D01*
G37*
G54D43*X17049Y44094D02*X26892D01*
X17049Y8661D02*X26892D01*
X24016Y30906D02*Y21850D01*
G54D44*X54112Y170589D03*
Y190589D03*
G54D45*X44112Y200589D03*
G54D44*X54112Y130589D03*
Y150589D03*
G54D45*X44112Y120589D03*
G54D44*X49843Y59055D03*
G54D41*X83406Y88780D03*
X92854D03*
X90965Y81890D03*
G54D35*G36*
X65594Y36992D02*Y28992D01*
X57594D01*
Y36992D01*
X65594D01*
G37*
G54D43*X47638Y20472D02*Y32283D01*
G54D44*X61594Y12992D03*
G54D41*X83406Y15000D03*
X92854D03*
X90965Y21890D03*
G54D46*X88794Y274153D03*
X78794D03*
X68794D03*
X58794D03*
G54D41*X201693Y281693D03*
X211693D03*
G54D46*X83794Y264153D03*
X73794D03*
X63794D03*
X53794D03*
G54D35*G36*
X78290Y243014D02*Y250214D01*
X85490D01*
Y243014D01*
X78290D01*
G37*
G54D47*X81890Y236614D03*
Y226614D03*
G54D37*G54D48*G54D49*G54D50*G54D51*G54D52*G54D50*G54D52*G54D51*G54D53*G54D48*G54D51*G54D54*G54D52*G54D55*G54D49*G54D41*G54D56*G54D41*G54D56*G54D52*G54D53*G54D52*G54D53*G54D57*G54D52*G54D57*G54D58*M02*
