G04 start of page 6 for group 1 layer_idx 12 *
G04 Title: Zuul, top_silk *
G04 Creator: pcb-rnd 2.1.1 *
G04 CreationDate: 2019-04-12 16:05:21 UTC *
G04 For:  *
G04 Format: Gerber/RS-274X *
G04 PCB-Dimensions: 220472 334646 *
G04 PCB-Coordinate-Origin: lower left *
%MOIN*%
%FSLAX25Y25*%
%LNTOP_SILK*%
%ADD85C,0.0070*%
%ADD84C,0.0200*%
%ADD83C,0.0080*%
%ADD82C,0.0100*%
%ADD81C,0.0001*%
G54D81*G36*
X27559Y301181D02*Y281496D01*
X7874D01*
Y301181D01*
X27559D01*
G37*
G36*
Y236220D02*Y216535D01*
X7874D01*
Y236220D01*
X27559D01*
G37*
G36*
Y257874D02*Y238189D01*
X7874D01*
Y257874D01*
X27559D01*
G37*
G36*
Y279528D02*Y259843D01*
X7874D01*
Y279528D01*
X27559D01*
G37*
G54D82*X102416Y330453D02*X40172D01*
Y258445D01*
X102416D01*
Y330453D01*
G54D83*X112402Y302757D02*Y307481D01*
X119882Y302757D02*Y307481D01*
G54D82*X111102Y314855D02*X121102D01*
Y308355D01*
X111102D02*Y314855D01*
G54D83*X118897Y285826D02*Y285040D01*
X113387Y285826D02*Y285040D01*
X124213Y302756D02*Y307480D01*
G54D82*X122913Y308354D02*Y314854D01*
G54D83*X130708Y285826D02*Y285040D01*
X125198Y285826D02*Y285040D01*
X142519Y285826D02*Y285040D01*
X137009Y285826D02*Y285040D01*
X154330Y285826D02*Y285040D01*
X148820Y285826D02*Y285040D01*
X166141Y285826D02*Y285040D01*
X160631Y285826D02*Y285040D01*
X131693Y302756D02*Y307480D01*
X136024Y302756D02*Y307480D01*
X143504Y302756D02*Y307480D01*
X147835Y302756D02*Y307480D01*
X155315Y302756D02*Y307480D01*
X167126D02*Y302756D01*
X159646Y307480D02*Y302756D01*
G54D82*X168426Y295382D02*X158426D01*
Y301882D01*
X168426D02*Y295382D01*
X196693Y301693D02*X191693Y304193D01*
X196693Y301693D02*X191693Y299193D01*
Y304193D02*Y299193D01*
X122913Y314854D02*X132913D01*
X134724D02*X144724D01*
X146535D02*X156535D01*
X132913D02*Y308354D01*
X144724Y314854D02*Y308354D01*
X134724D02*Y314854D01*
X156535D02*Y308354D01*
X146535D02*Y314854D01*
X196693Y306693D02*X216693D01*
G54D84*X29528Y92520D02*X53150D01*
X86614Y125984D01*
X137795D01*
G54D83*X113779Y100984D02*X109055D01*
X113779Y108464D02*X109055D01*
G54D82*X101681Y99684D02*Y109684D01*
X108181D01*
Y99684D02*X101681D01*
G54D84*X137795Y125984D02*X151575Y112205D01*
G54D82*X75531Y97165D02*X146398D01*
X9843Y59055D02*X23176D01*
Y65721D02*Y52389D01*
X21176D01*
X36509Y65721D02*Y52389D01*
Y65721D02*X23176Y59055D01*
X36509Y52389D02*X23176Y59055D01*
Y65721D02*X25176D01*
G54D83*X62992Y50984D02*X67716D01*
G54D82*X36509Y59055D02*X49843D01*
G54D83*X62992Y43504D02*X67716D01*
G54D82*X75531Y6614D02*Y97165D01*
X89311Y42047D02*Y61732D01*
X110965Y83386D02*X99154Y71575D01*
X146398Y97165D02*Y6614D01*
X75531D01*
X132618Y42047D02*Y61732D01*
X124744Y51890D02*X140492D01*
X110965Y20394D02*Y83386D01*
X122776Y71575D01*
X61594Y32992D02*Y27992D01*
X63260D02*X59928D01*
X394Y8661D02*Y44094D01*
X47638D01*
Y8661D01*
X394D01*
X61594Y17992D02*Y12992D01*
X63260Y27992D02*Y17992D01*
X59928D02*Y27992D01*
Y17992D02*X63260D01*
G54D84*X151575Y112205D02*Y1969D01*
G54D83*X100393Y223623D02*X99607D01*
X86417Y181496D02*Y176772D01*
X78937Y181496D02*Y176772D01*
G54D82*X87717Y169398D02*X77717D01*
Y175898D01*
X87717D02*Y169398D01*
G54D83*X100393Y229133D02*X99607D01*
G54D82*X74890Y229614D02*Y243614D01*
G54D83*X57677Y240551D02*Y245275D01*
X65157Y240551D02*Y245275D01*
G54D82*X54112Y110589D02*Y210589D01*
X5712Y110589D02*Y210589D01*
X54112Y110589D02*X5712D01*
X54112Y210589D02*X5712D01*
G54D83*X100393Y233859D02*X99607D01*
X100393Y239369D02*X99607D01*
G54D82*X196693Y306693D02*Y106693D01*
X216693D02*X196693D01*
X216693D02*Y306693D01*
X74819Y229543D02*G75*G03X88961Y243685I7071J7071D01*G01*
X88961Y243685D02*G75*G03X74819Y243685I-7071J-7071D01*G01*
X194489Y320866D02*G75*G03X218897Y320866I12204J0D01*G01*
Y320866D02*G75*G03X194489Y320866I-12204J0D01*G01*
Y92520D02*G75*G03X218897Y92520I12204J0D01*G01*
G75*G03X194489Y92520I-12204J0D01*G01*
X1576Y320866D02*G75*G03X25984Y320866I12204J0D01*G01*
Y320866D02*G75*G03X1576Y320866I-12204J0D01*G01*
Y92520D02*G75*G03X25984Y92520I12204J0D01*G01*
G75*G03X1576Y92520I-12204J0D01*G01*
G54D85*X126209Y249213D02*X125409Y250013D01*
X129409D01*
Y249213D02*Y250713D01*
X125909Y251913D02*X125409Y252413D01*
Y253913D01*
X125909Y254413D01*
X126909D01*
X129409Y251913D02*X126909Y254413D01*
X129409Y251913D02*Y254413D01*
X125409Y255613D02*X129409Y256613D01*
X125409Y257613D01*
X125909Y260613D02*X128909D01*
X125909D02*X125409Y261113D01*
Y262113D01*
X125909Y262613D01*
X128909D01*
X129409Y262113D02*X128909Y262613D01*
X129409Y261113D02*Y262113D01*
X128909Y260613D02*X129409Y261113D01*
X125409Y263813D02*X129409D01*
X127409D02*X125409Y265813D01*
X127409Y263813D02*X129409Y265813D01*
X137614Y249213D02*Y251213D01*
X138114Y251713D01*
X139114D01*
X139614Y251213D02*X139114Y251713D01*
X139614Y249713D02*Y251213D01*
X137614Y249713D02*X141614D01*
X139614Y250513D02*X141614Y251713D01*
X137614Y253413D02*X141614D01*
X137614Y252913D02*Y254913D01*
X138114Y255413D01*
X139114D01*
X139614Y254913D02*X139114Y255413D01*
X139614Y253413D02*Y254913D01*
X137614Y256613D02*Y257613D01*
Y257113D02*X141614D01*
Y256613D02*Y257613D01*
X138114Y260613D02*X141114D01*
X138114D02*X137614Y261113D01*
Y262113D01*
X138114Y262613D01*
X141114D01*
X141614Y262113D02*X141114Y262613D01*
X141614Y261113D02*Y262113D01*
X141114Y260613D02*X141614Y261113D01*
X137614Y263813D02*X141614D01*
X139614D02*X137614Y265813D01*
X139614Y263813D02*X141614Y265813D01*
X125453Y318560D02*X129453D01*
Y320560D01*
X127253Y321760D02*Y323260D01*
X129453Y321760D02*Y323760D01*
X125453Y321760D02*X129453D01*
X125453D02*Y323760D01*
Y325460D02*X129453D01*
X125453Y326760D02*X126153Y327460D01*
X128753D01*
X129453Y326760D02*X128753Y327460D01*
X129453Y324960D02*Y326760D01*
X125453Y324960D02*Y326760D01*
X125953Y328660D02*X125453Y329160D01*
Y330660D01*
X125953Y331160D01*
X126953D01*
X129453Y328660D02*X126953Y331160D01*
X129453Y328660D02*Y331160D01*
X137614Y317968D02*X141614D01*
Y319968D01*
X139414Y321168D02*Y322668D01*
X141614Y321168D02*Y323168D01*
X137614Y321168D02*X141614D01*
X137614D02*Y323168D01*
Y324868D02*X141614D01*
X137614Y326168D02*X138314Y326868D01*
X140914D01*
X141614Y326168D02*X140914Y326868D01*
X141614Y324368D02*Y326168D01*
X137614Y324368D02*Y326168D01*
X138114Y328068D02*X137614Y328568D01*
Y329568D01*
X138114Y330068D01*
X141614Y329568D02*X141114Y330068D01*
X141614Y328568D02*Y329568D01*
X141114Y328068D02*X141614Y328568D01*
X139414D02*Y329568D01*
X138114Y330068D02*X138914D01*
X139914D02*X141114D01*
X139914D02*X139414Y329568D01*
X138914Y330068D02*X139414Y329568D01*
X124624Y275052D02*X126624D01*
X127124Y274552D01*
Y273552D01*
X126624Y273052D02*X127124Y273552D01*
X125124Y273052D02*X126624D01*
X125124Y275052D02*Y271052D01*
X125924Y273052D02*X127124Y271052D01*
X128324Y274552D02*X128824Y275052D01*
X130324D01*
X130824Y274552D01*
Y273552D01*
X128324Y271052D02*X130824Y273552D01*
X128324Y271052D02*X130824D01*
X136587Y275045D02*X138587D01*
X139087Y274545D01*
Y273545D01*
X138587Y273045D02*X139087Y273545D01*
X137087Y273045D02*X138587D01*
X137087Y275045D02*Y271045D01*
X137887Y273045D02*X139087Y271045D01*
X140287Y274545D02*X140787Y275045D01*
X141787D01*
X142287Y274545D01*
X141787Y271045D02*X142287Y271545D01*
X140787Y271045D02*X141787D01*
X140287Y271545D02*X140787Y271045D01*
Y273245D02*X141787D01*
X142287Y274545D02*Y273745D01*
Y272745D02*Y271545D01*
Y272745D02*X141787Y273245D01*
X142287Y273745D02*X141787Y273245D01*
X31996Y89551D02*Y85551D01*
X33296Y89551D02*X33996Y88851D01*
Y86251D01*
X33296Y85551D02*X33996Y86251D01*
X31496Y85551D02*X33296D01*
X31496Y89551D02*X33296D01*
X35196Y87051D02*Y86051D01*
Y87051D02*X35696Y87551D01*
X36696D01*
X37196Y87051D01*
Y86051D01*
X36696Y85551D02*X37196Y86051D01*
X35696Y85551D02*X36696D01*
X35196Y86051D02*X35696Y85551D01*
X40696Y87051D02*Y85551D01*
Y87051D02*X41196Y87551D01*
X41696D01*
X42196Y87051D01*
Y85551D01*
X40196Y87551D02*X40696Y87051D01*
X43396D02*Y86051D01*
Y87051D02*X43896Y87551D01*
X44896D01*
X45396Y87051D01*
Y86051D01*
X44896Y85551D02*X45396Y86051D01*
X43896Y85551D02*X44896D01*
X43396Y86051D02*X43896Y85551D01*
X47096Y89551D02*Y86051D01*
X47596Y85551D01*
X46596Y88051D02*X47596D01*
X50896Y87051D02*Y84051D01*
X50396Y87551D02*X50896Y87051D01*
X51396Y87551D01*
X52396D01*
X52896Y87051D01*
Y86051D01*
X52396Y85551D02*X52896Y86051D01*
X51396Y85551D02*X52396D01*
X50896Y86051D02*X51396Y85551D01*
X54096Y87051D02*Y86051D01*
Y87051D02*X54596Y87551D01*
X55596D01*
X56096Y87051D01*
Y86051D01*
X55596Y85551D02*X56096Y86051D01*
X54596Y85551D02*X55596D01*
X54096Y86051D02*X54596Y85551D01*
X57796Y87051D02*Y84051D01*
X57296Y87551D02*X57796Y87051D01*
X58296Y87551D01*
X59296D01*
X59796Y87051D01*
Y86051D01*
X59296Y85551D02*X59796Y86051D01*
X58296Y85551D02*X59296D01*
X57796Y86051D02*X58296Y85551D01*
X60996Y87551D02*Y86051D01*
X61496Y85551D01*
X62496D01*
X62996Y86051D01*
Y87551D02*Y86051D01*
X64196Y89551D02*Y86051D01*
X64696Y85551D01*
X67196Y87551D02*X67696Y87051D01*
X66196Y87551D02*X67196D01*
X65696Y87051D02*X66196Y87551D01*
X65696Y87051D02*Y86051D01*
X66196Y85551D01*
X67696Y87551D02*Y86051D01*
X68196Y85551D01*
X66196D02*X67196D01*
X67696Y86051D01*
X69896Y89551D02*Y86051D01*
X70396Y85551D01*
X69396Y88051D02*X70396D01*
X71896Y85551D02*X73396D01*
X71396Y86051D02*X71896Y85551D01*
X71396Y87051D02*Y86051D01*
Y87051D02*X71896Y87551D01*
X72896D01*
X73396Y87051D01*
X71396Y86551D02*X73396D01*
Y87051D01*
X31496Y82646D02*Y82546D01*
Y81146D02*Y79646D01*
X32996Y83146D02*Y79646D01*
Y83146D02*X33496Y83646D01*
X33996D01*
X32496Y81646D02*X33496D01*
X37496Y79646D02*X38796D01*
X36796Y80346D02*X37496Y79646D01*
X36796Y82946D02*Y80346D01*
Y82946D02*X37496Y83646D01*
X38796D01*
X39996Y83146D02*Y80146D01*
Y83146D02*X40496Y83646D01*
X41496D01*
X41996Y83146D01*
Y80146D01*
X41496Y79646D02*X41996Y80146D01*
X40496Y79646D02*X41496D01*
X39996Y80146D02*X40496Y79646D01*
X43196Y83646D02*Y79646D01*
Y83646D02*X45696Y79646D01*
Y83646D02*Y79646D01*
X46896Y83646D02*Y79646D01*
Y83646D02*X49396Y79646D01*
Y83646D02*Y79646D01*
X50596Y82846D02*X51396Y83646D01*
Y79646D01*
X50596D02*X52096D01*
X56596Y81646D02*X57096Y81146D01*
X55596Y81646D02*X56596D01*
X55096Y81146D02*X55596Y81646D01*
X55096Y81146D02*Y80146D01*
X55596Y79646D01*
X57096Y81646D02*Y80146D01*
X57596Y79646D01*
X55596D02*X56596D01*
X57096Y80146D01*
X59296Y81146D02*Y79646D01*
Y81146D02*X59796Y81646D01*
X60296D01*
X60796Y81146D01*
Y79646D01*
X58796Y81646D02*X59296Y81146D01*
X63996Y83646D02*Y79646D01*
X63496D02*X63996Y80146D01*
X62496Y79646D02*X63496D01*
X61996Y80146D02*X62496Y79646D01*
X61996Y81146D02*Y80146D01*
Y81146D02*X62496Y81646D01*
X63496D01*
X63996Y81146D01*
X67696Y79646D02*X68996D01*
X66996Y80346D02*X67696Y79646D01*
X66996Y82946D02*Y80346D01*
Y82946D02*X67696Y83646D01*
X68996D01*
X70196Y81146D02*X72196Y83646D01*
X70196Y81146D02*X72696D01*
X72196Y83646D02*Y79646D01*
X32996Y75740D02*X33496Y75240D01*
X31996Y75740D02*X32996D01*
X31496Y75240D02*X31996Y75740D01*
X31496Y75240D02*Y74240D01*
X31996Y73740D01*
X33496Y75740D02*Y74240D01*
X33996Y73740D01*
X31996D02*X32996D01*
X33496Y74240D01*
X35696Y75240D02*Y73740D01*
Y75240D02*X36196Y75740D01*
X37196D01*
X35196D02*X35696Y75240D01*
X38896Y73740D02*X40396D01*
X38396Y74240D02*X38896Y73740D01*
X38396Y75240D02*Y74240D01*
Y75240D02*X38896Y75740D01*
X39896D01*
X40396Y75240D01*
X38396Y74740D02*X40396D01*
Y75240D01*
X43896D02*Y72240D01*
X43396Y75740D02*X43896Y75240D01*
X44396Y75740D01*
X45396D01*
X45896Y75240D01*
Y74240D01*
X45396Y73740D02*X45896Y74240D01*
X44396Y73740D02*X45396D01*
X43896Y74240D02*X44396Y73740D01*
X47096Y75240D02*Y74240D01*
Y75240D02*X47596Y75740D01*
X48596D01*
X49096Y75240D01*
Y74240D01*
X48596Y73740D02*X49096Y74240D01*
X47596Y73740D02*X48596D01*
X47096Y74240D02*X47596Y73740D01*
X50796Y75240D02*Y72240D01*
X50296Y75740D02*X50796Y75240D01*
X51296Y75740D01*
X52296D01*
X52796Y75240D01*
Y74240D01*
X52296Y73740D02*X52796Y74240D01*
X51296Y73740D02*X52296D01*
X50796Y74240D02*X51296Y73740D01*
X53996Y75740D02*Y74240D01*
X54496Y73740D01*
X55496D01*
X55996Y74240D01*
Y75740D02*Y74240D01*
X57196Y77740D02*Y74240D01*
X57696Y73740D01*
X60196Y75740D02*X60696Y75240D01*
X59196Y75740D02*X60196D01*
X58696Y75240D02*X59196Y75740D01*
X58696Y75240D02*Y74240D01*
X59196Y73740D01*
X60696Y75740D02*Y74240D01*
X61196Y73740D01*
X59196D02*X60196D01*
X60696Y74240D01*
X62896Y77740D02*Y74240D01*
X63396Y73740D01*
X62396Y76240D02*X63396D01*
X64896Y73740D02*X66396D01*
X64396Y74240D02*X64896Y73740D01*
X64396Y75240D02*Y74240D01*
Y75240D02*X64896Y75740D01*
X65896D01*
X66396Y75240D01*
X64396Y74740D02*X66396D01*
Y75240D01*
X69596Y77740D02*Y73740D01*
X69096D02*X69596Y74240D01*
X68096Y73740D02*X69096D01*
X67596Y74240D02*X68096Y73740D01*
X67596Y75240D02*Y74240D01*
Y75240D02*X68096Y75740D01*
X69096D01*
X69596Y75240D01*
X15780Y101520D02*X16280Y101020D01*
X14280Y101520D02*X15780D01*
X13780Y101020D02*X14280Y101520D01*
X13780Y101020D02*Y100020D01*
X14280Y99520D01*
X15780D01*
X16280Y99020D01*
Y98020D01*
X15780Y97520D02*X16280Y98020D01*
X14280Y97520D02*X15780D01*
X13780Y98020D02*X14280Y97520D01*
X17480Y100720D02*X18280Y101520D01*
Y97520D01*
X17480D02*X18980D01*
X199287Y74303D02*X195787D01*
X199287D02*X199787Y73803D01*
Y73303D01*
X197787Y74803D02*Y73803D01*
X197287Y72303D02*X196287D01*
X197287D02*X197787Y71803D01*
Y70803D01*
X197287Y70303D01*
X196287D01*
X195787Y70803D02*X196287Y70303D01*
X195787Y71803D02*Y70803D01*
X196287Y72303D02*X195787Y71803D01*
X197287Y68603D02*X195787D01*
X197287D02*X197787Y68103D01*
Y67103D01*
Y69103D02*X197287Y68603D01*
X199787Y64103D02*X195787D01*
X197287D02*X197787Y63603D01*
Y62603D01*
X197287Y62103D01*
X195787D01*
X197787Y59403D02*X197287Y58903D01*
X197787Y60403D02*Y59403D01*
X197287Y60903D02*X197787Y60403D01*
X197287Y60903D02*X196287D01*
X195787Y60403D01*
X197787Y58903D02*X196287D01*
X195787Y58403D01*
Y60403D02*Y59403D01*
X196287Y58903D01*
X197787Y56703D02*Y55203D01*
X197287Y57203D02*X197787Y56703D01*
X197287Y57203D02*X196287D01*
X195787Y56703D01*
Y55203D01*
X199787Y54003D02*X195787D01*
X197287D02*X195787Y52503D01*
X197287Y54003D02*X198287Y53003D01*
X195787Y50803D02*Y49303D01*
X196287Y51303D02*X195787Y50803D01*
X197287Y51303D02*X196287D01*
X197287D02*X197787Y50803D01*
Y49803D01*
X197287Y49303D01*
X196787Y51303D02*Y49303D01*
X197287D01*
Y47603D02*X195787D01*
X197287D02*X197787Y47103D01*
Y46103D01*
Y48103D02*X197287Y47603D01*
X195787Y44403D02*Y42903D01*
X196287Y42403D01*
X196787Y42903D02*X196287Y42403D01*
X196787Y44403D02*Y42903D01*
X197287Y44903D02*X196787Y44403D01*
X197287Y44903D02*X197787Y44403D01*
Y42903D01*
X197287Y42403D01*
X196287Y44903D02*X195787Y44403D01*
X197287Y40703D02*X194287D01*
X197787Y41203D02*X197287Y40703D01*
X197787Y40203D01*
Y39203D01*
X197287Y38703D01*
X196287D01*
X195787Y39203D02*X196287Y38703D01*
X195787Y40203D02*Y39203D01*
X196287Y40703D02*X195787Y40203D01*
X197787Y36003D02*X197287Y35503D01*
X197787Y37003D02*Y36003D01*
X197287Y37503D02*X197787Y37003D01*
X197287Y37503D02*X196287D01*
X195787Y37003D01*
X197787Y35503D02*X196287D01*
X195787Y35003D01*
Y37003D02*Y36003D01*
X196287Y35503D01*
X197787Y33303D02*Y31803D01*
X197287Y33803D02*X197787Y33303D01*
X197287Y33803D02*X196287D01*
X195787Y33303D01*
Y31803D01*
Y30103D02*Y28603D01*
X196287Y30603D02*X195787Y30103D01*
X197287Y30603D02*X196287D01*
X197287D02*X197787Y30103D01*
Y29103D01*
X197287Y28603D01*
X196787Y30603D02*Y28603D01*
X197287D01*
X195787Y27403D02*Y26903D01*
X197787Y24203D02*X197287Y23703D01*
X197787Y25203D02*Y24203D01*
X197287Y25703D02*X197787Y25203D01*
X197287Y25703D02*X196287D01*
X195787Y25203D01*
Y24203D01*
X196287Y23703D01*
X194787Y25703D02*X194287Y25203D01*
Y24203D01*
X194787Y23703D01*
X197787D02*X194787D01*
X195787Y22003D02*Y20503D01*
X196287Y22503D02*X195787Y22003D01*
X197287Y22503D02*X196287D01*
X197287D02*X197787Y22003D01*
Y21003D01*
X197287Y20503D01*
X196787Y22503D02*Y20503D01*
X197287D01*
Y18803D02*X195787D01*
X197287D02*X197787Y18303D01*
Y17803D01*
X197287Y17303D01*
X195787D01*
X197787Y19303D02*X197287Y18803D01*
X199787Y15603D02*X196287D01*
X195787Y15103D01*
X198287Y16103D02*Y15103D01*
X207661Y74303D02*X203661D01*
X207661Y73003D02*X206961Y72303D01*
X204361D01*
X203661Y73003D02*X204361Y72303D01*
X203661Y74803D02*Y73003D01*
X207661Y74803D02*Y73003D01*
X203661Y70603D02*Y69103D01*
X204161Y71103D02*X203661Y70603D01*
X205161Y71103D02*X204161D01*
X205161D02*X205661Y70603D01*
Y69603D01*
X205161Y69103D01*
X204661Y71103D02*Y69103D01*
X205161D01*
X203661Y67403D02*Y65903D01*
X204161Y65403D01*
X204661Y65903D02*X204161Y65403D01*
X204661Y67403D02*Y65903D01*
X205161Y67903D02*X204661Y67403D01*
X205161Y67903D02*X205661Y67403D01*
Y65903D01*
X205161Y65403D01*
X204161Y67903D02*X203661Y67403D01*
X206661Y64203D02*X206561D01*
X205161D02*X203661D01*
X205661Y61703D02*X205161Y61203D01*
X205661Y62703D02*Y61703D01*
X205161Y63203D02*X205661Y62703D01*
X205161Y63203D02*X204161D01*
X203661Y62703D01*
Y61703D01*
X204161Y61203D01*
X202661Y63203D02*X202161Y62703D01*
Y61703D01*
X202661Y61203D01*
X205661D02*X202661D01*
X205161Y59503D02*X203661D01*
X205161D02*X205661Y59003D01*
Y58503D01*
X205161Y58003D01*
X203661D01*
X205661Y60003D02*X205161Y59503D01*
X203661Y56303D02*Y54803D01*
X204161Y56803D02*X203661Y56303D01*
X205161Y56803D02*X204161D01*
X205161D02*X205661Y56303D01*
Y55303D01*
X205161Y54803D01*
X204661Y56803D02*Y54803D01*
X205161D01*
X207661Y51603D02*X203661D01*
Y52103D02*X204161Y51603D01*
X203661Y53103D02*Y52103D01*
X204161Y53603D02*X203661Y53103D01*
X205161Y53603D02*X204161D01*
X205161D02*X205661Y53103D01*
Y52103D01*
X205161Y51603D01*
X207661Y48603D02*X203661D01*
X204161D02*X203661Y48103D01*
Y47103D01*
X204161Y46603D01*
X205161D02*X204161D01*
X205661Y47103D02*X205161Y46603D01*
X205661Y48103D02*Y47103D01*
X205161Y48603D02*X205661Y48103D01*
Y45403D02*X204161D01*
X203661Y44903D01*
X205661Y43403D02*X202661D01*
X202161Y43903D02*X202661Y43403D01*
X202161Y44903D02*Y43903D01*
X202661Y45403D02*X202161Y44903D01*
X203661D02*Y43903D01*
X204161Y43403D01*
X207661Y39903D02*X204161D01*
X203661Y39403D01*
X206161Y40403D02*Y39403D01*
X207661Y38403D02*X203661D01*
X205161D02*X205661Y37903D01*
Y36903D01*
X205161Y36403D01*
X203661D01*
Y34703D02*Y33203D01*
X204161Y35203D02*X203661Y34703D01*
X205161Y35203D02*X204161D01*
X205161D02*X205661Y34703D01*
Y33703D01*
X205161Y33203D01*
X204661Y35203D02*Y33203D01*
X205161D01*
Y30003D02*X202161D01*
X205661Y30503D02*X205161Y30003D01*
X205661Y31503D02*Y30503D01*
X205161Y32003D02*X205661Y31503D01*
X205161Y32003D02*X204161D01*
X203661Y31503D01*
Y30503D01*
X204161Y30003D01*
X205661Y28803D02*X204161D01*
X203661Y28303D01*
Y27303D01*
X204161Y26803D01*
X205661D02*X204161D01*
X205661Y25603D02*X204161D01*
X203661Y25103D01*
Y24103D01*
X204161Y23603D01*
X205661D02*X204161D01*
X205661Y22403D02*X203661Y20403D01*
Y22403D02*X205661Y20403D01*
X208693Y101520D02*X209193Y101020D01*
X207193Y101520D02*X208693D01*
X206693Y101020D02*X207193Y101520D01*
X206693Y101020D02*Y100020D01*
X207193Y99520D01*
X208693D01*
X209193Y99020D01*
Y98020D01*
X208693Y97520D02*X209193Y98020D01*
X207193Y97520D02*X208693D01*
X206693Y98020D02*X207193Y97520D01*
X210393Y100720D02*X211193Y101520D01*
Y97520D01*
X210393D02*X211893D01*
X58923Y122015D02*Y120715D01*
X59623Y122715D02*X58923Y122015D01*
X62223Y122715D02*X59623D01*
X62223D02*X62923Y122015D01*
Y120715D01*
X62423Y119515D02*X59423D01*
X62423D02*X62923Y119015D01*
Y118015D01*
X62423Y117515D01*
X59423D01*
X58923Y118015D02*X59423Y117515D01*
X58923Y119015D02*Y118015D01*
X59423Y119515D02*X58923Y119015D01*
X62923Y116315D02*X58923D01*
X62923D02*X58923Y113815D01*
X62923D02*X58923D01*
X62923Y112615D02*X58923D01*
X62923D02*X58923Y110115D01*
X62923D02*X58923D01*
X62123Y108915D02*X62923Y108115D01*
X58923D01*
Y108915D02*Y107415D01*
X137717Y104965D02*Y101465D01*
X138217Y100965D01*
X139217D01*
X139717Y101465D01*
Y104965D02*Y101465D01*
X140917Y104165D02*X141717Y104965D01*
Y100965D01*
X140917D02*X142417D01*
X62727Y54449D02*X64027D01*
X62027Y55149D02*X62727Y54449D01*
X62027Y57749D02*Y55149D01*
Y57749D02*X62727Y58449D01*
X64027D01*
X65227Y57649D02*X66027Y58449D01*
Y54449D01*
X65227D02*X66727D01*
X67614Y23992D02*Y19992D01*
Y23992D02*X69614D01*
X67614Y22192D02*X69114D01*
X70814Y23192D02*X71614Y23992D01*
Y19992D01*
X70814D02*X72314D01*
X36827Y13098D02*X40827D01*
X36827Y12598D02*Y14598D01*
X37327Y15098D01*
X38327D01*
X38827Y14598D02*X38327Y15098D01*
X38827Y13098D02*Y14598D01*
X36827Y16998D02*Y17798D01*
X40327D01*
X40827Y17298D02*X40327Y17798D01*
X40827Y16798D02*Y17298D01*
X40327Y16298D02*X40827Y16798D01*
X40327Y16298D02*X39827D01*
X38827Y18998D02*Y20998D01*
X40327Y22198D02*X40827Y22698D01*
X37327Y22198D02*X40327D01*
X37327D02*X36827Y22698D01*
Y23698D01*
X37327Y24198D01*
X40327D01*
X40827Y23698D02*X40327Y24198D01*
X40827Y22698D02*Y23698D01*
X39827Y22198D02*X37827Y24198D01*
X36827Y26898D02*X37327Y27398D01*
X36827Y25898D02*Y26898D01*
X37327Y25398D02*X36827Y25898D01*
X37327Y25398D02*X40327D01*
X40827Y25898D01*
X38627Y26898D02*X39127Y27398D01*
X38627Y25398D02*Y26898D01*
X40827Y25898D02*Y26898D01*
X40327Y27398D01*
X39127D02*X40327D01*
X37327Y28598D02*X36827Y29098D01*
Y30098D01*
X37327Y30598D01*
X40827Y30098D02*X40327Y30598D01*
X40827Y29098D02*Y30098D01*
X40327Y28598D02*X40827Y29098D01*
X38627D02*Y30098D01*
X37327Y30598D02*X38127D01*
X39127D02*X40327D01*
X39127D02*X38627Y30098D01*
X38127Y30598D02*X38627Y30098D01*
X37827Y31798D02*X40827D01*
X37827D02*X36827Y32498D01*
Y33598D01*
X37827Y34298D01*
X40827D01*
X38827Y31798D02*Y34298D01*
X36827Y35498D02*X40827D01*
X36827Y37998D02*X40827D01*
X38827Y35498D02*Y37998D01*
X34952Y2874D02*X36252D01*
X34252Y3574D02*X34952Y2874D01*
X34252Y6174D02*Y3574D01*
Y6174D02*X34952Y6874D01*
X36252D01*
X37452Y6374D02*Y3374D01*
Y6374D02*X37952Y6874D01*
X38952D01*
X39452Y6374D01*
Y3374D01*
X38952Y2874D02*X39452Y3374D01*
X37952Y2874D02*X38952D01*
X37452Y3374D02*X37952Y2874D01*
X40652Y6874D02*Y2874D01*
Y6874D02*X43152Y2874D01*
Y6874D02*Y2874D01*
X44352Y6874D02*Y2874D01*
Y6874D02*X46852Y2874D01*
Y6874D02*Y2874D01*
X48052Y6374D02*X48552Y6874D01*
X50052D01*
X50552Y6374D01*
Y5374D01*
X48052Y2874D02*X50552Y5374D01*
X48052Y2874D02*X50552D01*
X14431Y72366D02*X16931D01*
X14431Y68366D02*X16931Y72366D01*
X14431Y68366D02*X16931D01*
X18131Y71566D02*X18931Y72366D01*
Y68366D01*
X18131D02*X19631D01*
X149425Y249244D02*X149925Y249744D01*
X149425Y247744D02*Y249244D01*
X149925Y247244D02*X149425Y247744D01*
X149925Y247244D02*X152925D01*
X153425Y247744D01*
Y249244D01*
X152925Y249744D01*
X151925D02*X152925D01*
X151425Y249244D02*X151925Y249744D01*
X151425Y248244D02*Y249244D01*
X149425Y252944D02*X149925Y253444D01*
X149425Y251444D02*Y252944D01*
X149925Y250944D02*X149425Y251444D01*
X149925Y250944D02*X150925D01*
X151425Y251444D01*
Y252944D01*
X151925Y253444D01*
X152925D01*
X153425Y252944D02*X152925Y253444D01*
X153425Y251444D02*Y252944D01*
X152925Y250944D02*X153425Y251444D01*
X149425Y254644D02*X153425D01*
X149425D02*X151425Y256144D01*
X149425Y257644D01*
X153425D01*
X149925Y260644D02*X152925D01*
X149925D02*X149425Y261144D01*
Y262144D01*
X149925Y262644D01*
X152925D01*
X153425Y262144D02*X152925Y262644D01*
X153425Y261144D02*Y262144D01*
X152925Y260644D02*X153425Y261144D01*
X149425Y263844D02*X153425D01*
X151425D02*X149425Y265844D01*
X151425Y263844D02*X153425Y265844D01*
X149425Y317500D02*X153425D01*
Y319500D01*
X151225Y320700D02*Y322200D01*
X153425Y320700D02*Y322700D01*
X149425Y320700D02*X153425D01*
X149425D02*Y322700D01*
Y324400D02*X153425D01*
X149425Y325700D02*X150125Y326400D01*
X152725D01*
X153425Y325700D02*X152725Y326400D01*
X153425Y323900D02*Y325700D01*
X149425Y323900D02*Y325700D01*
X151925Y327600D02*X149425Y329600D01*
X151925Y327600D02*Y330100D01*
X149425Y329600D02*X153425D01*
X148300Y275041D02*X150300D01*
X150800Y274541D01*
Y273541D01*
X150300Y273041D02*X150800Y273541D01*
X148800Y273041D02*X150300D01*
X148800Y275041D02*Y271041D01*
X149600Y273041D02*X150800Y271041D01*
X152000Y272541D02*X154000Y275041D01*
X152000Y272541D02*X154500D01*
X154000Y275041D02*Y271041D01*
X161736Y253543D02*X164736D01*
X161736D02*X161236Y254043D01*
Y255043D01*
X161736Y255543D01*
X164736D01*
X165236Y255043D02*X164736Y255543D01*
X165236Y254043D02*Y255043D01*
X164736Y253543D02*X165236Y254043D01*
X163736Y257243D02*X166736D01*
X163236Y256743D02*X163736Y257243D01*
X163236Y257743D01*
Y258743D01*
X163736Y259243D01*
X164736D01*
X165236Y258743D02*X164736Y259243D01*
X165236Y257743D02*Y258743D01*
X164736Y257243D02*X165236Y257743D01*
Y260943D02*Y262443D01*
X164736Y260443D02*X165236Y260943D01*
X163736Y260443D02*X164736D01*
X163736D02*X163236Y260943D01*
Y261943D01*
X163736Y262443D01*
X164236Y260443D02*Y262443D01*
X163736D01*
Y264143D02*X165236D01*
X163736D02*X163236Y264643D01*
Y265143D01*
X163736Y265643D01*
X165236D01*
X163236Y263643D02*X163736Y264143D01*
X208693Y329866D02*X209193Y329366D01*
X207193Y329866D02*X208693D01*
X206693Y329366D02*X207193Y329866D01*
X206693Y329366D02*Y328366D01*
X207193Y327866D01*
X208693D01*
X209193Y327366D01*
Y326366D01*
X208693Y325866D02*X209193Y326366D01*
X207193Y325866D02*X208693D01*
X206693Y326366D02*X207193Y325866D01*
X210393Y329066D02*X211193Y329866D01*
Y325866D01*
X210393D02*X211893D01*
X161236Y317968D02*X165236D01*
Y319968D01*
X163036Y321168D02*Y322668D01*
X165236Y321168D02*Y323168D01*
X161236Y321168D02*X165236D01*
X161236D02*Y323168D01*
Y324868D02*X165236D01*
X161236Y326168D02*X161936Y326868D01*
X164536D01*
X165236Y326168D02*X164536Y326868D01*
X165236Y324368D02*Y326168D01*
X161236Y324368D02*Y326168D01*
Y328068D02*Y330068D01*
Y328068D02*X163236D01*
X162736Y328568D01*
Y329568D01*
X163236Y330068D01*
X164736D01*
X165236Y329568D02*X164736Y330068D01*
X165236Y328568D02*Y329568D01*
X164736Y328068D02*X165236Y328568D01*
X160332Y274955D02*X162332D01*
X162832Y274455D01*
Y273455D01*
X162332Y272955D02*X162832Y273455D01*
X160832Y272955D02*X162332D01*
X160832Y274955D02*Y270955D01*
X161632Y272955D02*X162832Y270955D01*
X164032Y274955D02*X166032D01*
X164032D02*Y272955D01*
X164532Y273455D01*
X165532D01*
X166032Y272955D01*
Y271455D01*
X165532Y270955D02*X166032Y271455D01*
X164532Y270955D02*X165532D01*
X164032Y271455D02*X164532Y270955D01*
X185070Y303606D02*X185870D01*
Y300106D01*
X185370Y299606D02*X185870Y300106D01*
X184870Y299606D02*X185370D01*
X184370Y300106D02*X184870Y299606D01*
X184370Y300106D02*Y300606D01*
X187070Y302806D02*X187870Y303606D01*
Y299606D01*
X187070D02*X188570D01*
X113992Y252362D02*Y254362D01*
Y252362D02*X115992D01*
X115492Y252862D01*
Y253862D01*
X115992Y254362D01*
X117492D01*
X117992Y253862D02*X117492Y254362D01*
X117992Y252862D02*Y253862D01*
X117492Y252362D02*X117992Y252862D01*
X113992Y255562D02*X117992Y256562D01*
X113992Y257562D01*
X114492Y260562D02*X117492D01*
X114492D02*X113992Y261062D01*
Y262062D01*
X114492Y262562D01*
X117492D01*
X117992Y262062D02*X117492Y262562D01*
X117992Y261062D02*Y262062D01*
X117492Y260562D02*X117992Y261062D01*
X113992Y263762D02*X117992D01*
X115992D02*X113992Y265762D01*
X115992Y263762D02*X117992Y265762D01*
X109424Y228375D02*X111424D01*
X111924Y227875D01*
Y226875D01*
X111424Y226375D02*X111924Y226875D01*
X109924Y226375D02*X111424D01*
X109924Y228375D02*Y224375D01*
X110724Y226375D02*X111924Y224375D01*
X113624D02*X115624Y228375D01*
X113124D02*X115624D01*
X109291Y238370D02*X111291D01*
X111791Y237870D01*
Y236870D01*
X111291Y236370D02*X111791Y236870D01*
X109791Y236370D02*X111291D01*
X109791Y238370D02*Y234370D01*
X110591Y236370D02*X111791Y234370D01*
X114491Y238370D02*X114991Y237870D01*
X113491Y238370D02*X114491D01*
X112991Y237870D02*X113491Y238370D01*
X112991Y237870D02*Y234870D01*
X113491Y234370D01*
X114491Y236570D02*X114991Y236070D01*
X112991Y236570D02*X114491D01*
X113491Y234370D02*X114491D01*
X114991Y234870D01*
Y236070D02*Y234870D01*
X108751Y112814D02*X110051D01*
X108051Y113514D02*X108751Y112814D01*
X108051Y116114D02*Y113514D01*
Y116114D02*X108751Y116814D01*
X110051D01*
X111251Y116314D02*X111751Y116814D01*
X113251D01*
X113751Y116314D01*
Y115314D01*
X111251Y112814D02*X113751Y115314D01*
X111251Y112814D02*X113751D01*
X113992Y317937D02*X117992D01*
Y319937D01*
X115792Y321137D02*Y322637D01*
X117992Y321137D02*Y323137D01*
X113992Y321137D02*X117992D01*
X113992D02*Y323137D01*
Y324837D02*X117992D01*
X113992Y326137D02*X114692Y326837D01*
X117292D01*
X117992Y326137D02*X117292Y326837D01*
X117992Y324337D02*Y326137D01*
X113992Y324337D02*Y326137D01*
X114792Y328037D02*X113992Y328837D01*
X117992D01*
Y328037D02*Y329537D01*
X113292Y275166D02*X115292D01*
X115792Y274666D01*
Y273666D01*
X115292Y273166D02*X115792Y273666D01*
X113792Y273166D02*X115292D01*
X113792Y275166D02*Y271166D01*
X114592Y273166D02*X115792Y271166D01*
X116992Y274366D02*X117792Y275166D01*
Y271166D01*
X116992D02*X118492D01*
X91414Y250374D02*X92714D01*
X90714Y251074D02*X91414Y250374D01*
X90714Y253674D02*Y251074D01*
Y253674D02*X91414Y254374D01*
X92714D01*
X93914Y253874D02*Y250874D01*
Y253874D02*X94414Y254374D01*
X95414D01*
X95914Y253874D01*
Y250874D01*
X95414Y250374D02*X95914Y250874D01*
X94414Y250374D02*X95414D01*
X93914Y250874D02*X94414Y250374D01*
X97114Y254374D02*Y250374D01*
Y254374D02*X99614Y250374D01*
Y254374D02*Y250374D01*
X100814Y254374D02*Y250374D01*
Y254374D02*X103314Y250374D01*
Y254374D02*Y250374D01*
X104514Y253874D02*X105014Y254374D01*
X106014D01*
X106514Y253874D01*
X106014Y250374D02*X106514Y250874D01*
X105014Y250374D02*X106014D01*
X104514Y250874D02*X105014Y250374D01*
Y252574D02*X106014D01*
X106514Y253874D02*Y253074D01*
Y252074D02*Y250874D01*
Y252074D02*X106014Y252574D01*
X106514Y253074D02*X106014Y252574D01*
X79819Y219531D02*Y216531D01*
Y219531D02*X80319Y220031D01*
X81319D01*
X81819Y219531D01*
Y217031D01*
X80819Y216031D02*X81819Y217031D01*
X80319Y216031D02*X80819D01*
X79819Y216531D02*X80319Y216031D01*
X80819Y217531D02*X81819Y216031D01*
X83019Y219231D02*X83819Y220031D01*
Y216031D01*
X83019D02*X84519D01*
X48337Y239882D02*X49637D01*
X47637Y240582D02*X48337Y239882D01*
X47637Y243182D02*Y240582D01*
Y243182D02*X48337Y243882D01*
X49637D01*
X50837Y243382D02*X51337Y243882D01*
X52337D01*
X52837Y243382D01*
X52337Y239882D02*X52837Y240382D01*
X51337Y239882D02*X52337D01*
X50837Y240382D02*X51337Y239882D01*
Y242082D02*X52337D01*
X52837Y243382D02*Y242582D01*
Y241582D02*Y240382D01*
Y241582D02*X52337Y242082D01*
X52837Y242582D02*X52337Y242082D01*
X15780Y329866D02*X16280Y329366D01*
X14280Y329866D02*X15780D01*
X13780Y329366D02*X14280Y329866D01*
X13780Y329366D02*Y328366D01*
X14280Y327866D01*
X15780D01*
X16280Y327366D01*
Y326366D01*
X15780Y325866D02*X16280Y326366D01*
X14280Y325866D02*X15780D01*
X13780Y326366D02*X14280Y325866D01*
X17480Y329066D02*X18280Y329866D01*
Y325866D01*
X17480D02*X18980D01*
X79054Y163034D02*X80354D01*
X78354Y163734D02*X79054Y163034D01*
X78354Y166334D02*Y163734D01*
Y166334D02*X79054Y167034D01*
X80354D01*
X81554Y164534D02*X83554Y167034D01*
X81554Y164534D02*X84054D01*
X83554Y167034D02*Y163034D01*
M02*
