G04 start of page 15 for group -1 layer_idx 268435461 *
G04 Title: Zuul, <virtual group> *
G04 Creator: pcb-rnd 2.1.1 *
G04 CreationDate: 2019-04-12 16:05:21 UTC *
G04 For:  *
G04 Format: Gerber/RS-274X *
G04 PCB-Dimensions: 220472 334646 *
G04 PCB-Coordinate-Origin: lower left *
%MOIN*%
%FSLAX25Y25*%
%LNFAB*%
%ADD106C,0.0100*%
%ADD105C,0.0075*%
%ADD104C,0.0060*%
%ADD103C,0.0080*%
G54D103*X10512Y144189D02*X17712Y136989D01*
X10512D02*X17712Y144189D01*
X12512Y142189D02*X15712D01*
X12512D02*Y138989D01*
X15712D01*
Y142189D02*Y138989D01*
X10912Y143789D02*X17312D01*
X10912D02*Y137389D01*
X17312D01*
Y143789D02*Y137389D01*
X10512Y184189D02*X17712Y176989D01*
X10512D02*X17712Y184189D01*
X12512Y182189D02*X15712D01*
X12512D02*Y178989D01*
X15712D01*
Y182189D02*Y178989D01*
X10912Y183789D02*X17312D01*
X10912D02*Y177389D01*
X17312D01*
Y183789D02*Y177389D01*
X11400Y349496D02*X18600Y342296D01*
X11400D02*X18600Y349496D01*
X13400Y347496D02*X16600D01*
X13400D02*Y344296D01*
X16600D01*
Y347496D02*Y344296D01*
X11800Y349096D02*X18200D01*
X11800D02*Y342696D01*
X18200D01*
Y349096D02*Y342696D01*
G54D104*X135000Y348146D02*X136500Y345146D01*
X138000Y348146D01*
X136500Y345146D02*Y342146D01*
X139800Y345446D02*X142050D01*
X139800Y342146D02*X142800D01*
X139800Y348146D02*Y342146D01*
Y348146D02*X142800D01*
X147600D02*X148350Y347396D01*
X145350Y348146D02*X147600D01*
X144600Y347396D02*X145350Y348146D01*
X144600Y347396D02*Y345896D01*
X145350Y345146D01*
X147600D01*
X148350Y344396D01*
Y342896D01*
X147600Y342146D02*X148350Y342896D01*
X145350Y342146D02*X147600D01*
X144600Y342896D02*X145350Y342146D01*
X98000Y347396D02*X98750Y348146D01*
X101000D01*
X101750Y347396D01*
Y345896D01*
X98000Y342146D02*X101750Y345896D01*
X98000Y342146D02*X101750D01*
X45000Y347396D02*X45750Y348146D01*
X47250D01*
X48000Y347396D01*
X47250Y342146D02*X48000Y342896D01*
X45750Y342146D02*X47250D01*
X45000Y342896D02*X45750Y342146D01*
Y345446D02*X47250D01*
X48000Y347396D02*Y346196D01*
Y344696D02*Y342896D01*
Y344696D02*X47250Y345446D01*
X48000Y346196D02*X47250Y345446D01*
X49800Y342146D02*X50550D01*
X53100D02*X55350Y345146D01*
Y347396D02*Y345146D01*
X54600Y348146D02*X55350Y347396D01*
X53100Y348146D02*X54600D01*
X52350Y347396D02*X53100Y348146D01*
X52350Y347396D02*Y345896D01*
X53100Y345146D01*
X55350D01*
X57900Y342146D02*X60150Y345146D01*
Y347396D02*Y345146D01*
X59400Y348146D02*X60150Y347396D01*
X57900Y348146D02*X59400D01*
X57150Y347396D02*X57900Y348146D01*
X57150Y347396D02*Y345896D01*
X57900Y345146D01*
X60150D01*
X93794Y303953D02*Y294353D01*
X88994Y299153D02*X98594D01*
X92194Y300753D02*X95394D01*
X92194D02*Y297553D01*
X95394D01*
Y300753D02*Y297553D01*
X90594Y302353D02*X96994D01*
X90594D02*Y295953D01*
X96994D01*
Y302353D02*Y295953D01*
X48794Y303953D02*Y294353D01*
X43994Y299153D02*X53594D01*
X47194Y300753D02*X50394D01*
X47194D02*Y297553D01*
X50394D01*
Y300753D02*Y297553D01*
X45594Y302353D02*X51994D01*
X45594D02*Y295953D01*
X51994D01*
Y302353D02*Y295953D01*
X15000Y365696D02*Y356096D01*
X10200Y360896D02*X19800D01*
X13400Y362496D02*X16600D01*
X13400D02*Y359296D01*
X16600D01*
Y362496D02*Y359296D01*
X11800Y364096D02*X18200D01*
X11800D02*Y357696D01*
X18200D01*
Y364096D02*Y357696D01*
X140000Y363146D02*Y357146D01*
Y363146D02*X143750Y357146D01*
Y363146D02*Y357146D01*
X145550Y362396D02*Y357896D01*
Y362396D02*X146300Y363146D01*
X147800D01*
X148550Y362396D01*
Y357896D01*
X147800Y357146D02*X148550Y357896D01*
X146300Y357146D02*X147800D01*
X145550Y357896D02*X146300Y357146D01*
X98000Y362396D02*X98750Y363146D01*
X101000D01*
X101750Y362396D01*
Y360896D01*
X98000Y357146D02*X101750Y360896D01*
X98000Y357146D02*X101750D01*
X45000Y362396D02*X45750Y363146D01*
X47250D01*
X48000Y362396D01*
X47250Y357146D02*X48000Y357896D01*
X45750Y357146D02*X47250D01*
X45000Y357896D02*X45750Y357146D01*
Y360446D02*X47250D01*
X48000Y362396D02*Y361196D01*
Y359696D02*Y357896D01*
Y359696D02*X47250Y360446D01*
X48000Y361196D02*X47250Y360446D01*
X49800Y357146D02*X50550D01*
X52350Y362396D02*X53100Y363146D01*
X55350D01*
X56100Y362396D01*
Y360896D01*
X52350Y357146D02*X56100Y360896D01*
X52350Y357146D02*X56100D01*
X57900Y357896D02*X58650Y357146D01*
X57900Y362396D02*Y357896D01*
Y362396D02*X58650Y363146D01*
X60150D01*
X60900Y362396D01*
Y357896D01*
X60150Y357146D02*X60900Y357896D01*
X58650Y357146D02*X60150D01*
X57900Y358646D02*X60900Y361646D01*
X206693Y320866D02*Y316066D01*
Y320866D02*X210853Y323266D01*
X206693Y320866D02*X202533Y323266D01*
X205093Y320866D02*G75*G03X208293Y320866I1600J0D01*G01*
G75*G03X205093Y320866I-1600J0D01*G01*
X203493D02*G75*G03X209893Y320866I3200J0D01*G01*
G75*G03X203493Y320866I-3200J0D01*G01*
X206693Y92520D02*Y87720D01*
Y92520D02*X210853Y94920D01*
X206693Y92520D02*X202533Y94920D01*
X205093Y92520D02*G75*G03X208293Y92520I1600J0D01*G01*
G75*G03X205093Y92520I-1600J0D01*G01*
X203493D02*G75*G03X209893Y92520I3200J0D01*G01*
G75*G03X203493Y92520I-3200J0D01*G01*
X13780Y320866D02*Y316066D01*
Y320866D02*X17940Y323266D01*
X13780Y320866D02*X9620Y323266D01*
X12180Y320866D02*G75*G03X15380Y320866I1600J0D01*G01*
G75*G03X12180Y320866I-1600J0D01*G01*
X10580D02*G75*G03X16980Y320866I3200J0D01*G01*
G75*G03X10580Y320866I-3200J0D01*G01*
X13780Y92520D02*Y87720D01*
Y92520D02*X17940Y94920D01*
X13780Y92520D02*X9620Y94920D01*
X12180Y92520D02*G75*G03X15380Y92520I1600J0D01*G01*
G75*G03X12180Y92520I-1600J0D01*G01*
X10580D02*G75*G03X16980Y92520I3200J0D01*G01*
G75*G03X10580Y92520I-3200J0D01*G01*
X15000Y375896D02*Y371096D01*
Y375896D02*X19160Y378296D01*
X15000Y375896D02*X10840Y378296D01*
X13400Y375896D02*G75*G03X16600Y375896I1600J0D01*G01*
G75*G03X13400Y375896I-1600J0D01*G01*
X11800D02*G75*G03X18200Y375896I3200J0D01*G01*
G75*G03X11800Y375896I-3200J0D01*G01*
X135000Y378146D02*X136500Y375146D01*
X138000Y378146D01*
X136500Y375146D02*Y372146D01*
X139800Y375446D02*X142050D01*
X139800Y372146D02*X142800D01*
X139800Y378146D02*Y372146D01*
Y378146D02*X142800D01*
X147600D02*X148350Y377396D01*
X145350Y378146D02*X147600D01*
X144600Y377396D02*X145350Y378146D01*
X144600Y377396D02*Y375896D01*
X145350Y375146D01*
X147600D01*
X148350Y374396D01*
Y372896D01*
X147600Y372146D02*X148350Y372896D01*
X145350Y372146D02*X147600D01*
X144600Y372896D02*X145350Y372146D01*
X98000Y374396D02*X101000Y378146D01*
X98000Y374396D02*X101750D01*
X101000Y378146D02*Y372146D01*
X45000Y377396D02*X45750Y378146D01*
X48000D01*
X48750Y377396D01*
Y375896D01*
X45000Y372146D02*X48750Y375896D01*
X45000Y372146D02*X48750D01*
X50550D02*X51300D01*
X53850D02*X56850Y378146D01*
X53100D02*X56850D01*
X58650D02*X61650D01*
X58650D02*Y375146D01*
X59400Y375896D01*
X60900D01*
X61650Y375146D01*
Y372896D01*
X60900Y372146D02*X61650Y372896D01*
X59400Y372146D02*X60900D01*
X58650Y372896D02*X59400Y372146D01*
X42512Y202189D02*X45712D01*
X42512D02*Y198989D01*
X45712D01*
Y202189D02*Y198989D01*
X40912Y203789D02*X47312D01*
X40912D02*Y197389D01*
X47312D01*
Y203789D02*Y197389D01*
X42512Y122189D02*X45712D01*
X42512D02*Y118989D01*
X45712D01*
Y122189D02*Y118989D01*
X40912Y123789D02*X47312D01*
X40912D02*Y117389D01*
X47312D01*
Y123789D02*Y117389D01*
X13400Y392496D02*X16600D01*
X13400D02*Y389296D01*
X16600D01*
Y392496D02*Y389296D01*
X11800Y394096D02*X18200D01*
X11800D02*Y387696D01*
X18200D01*
Y394096D02*Y387696D01*
X135000Y393146D02*X136500Y390146D01*
X138000Y393146D01*
X136500Y390146D02*Y387146D01*
X139800Y390446D02*X142050D01*
X139800Y387146D02*X142800D01*
X139800Y393146D02*Y387146D01*
Y393146D02*X142800D01*
X147600D02*X148350Y392396D01*
X145350Y393146D02*X147600D01*
X144600Y392396D02*X145350Y393146D01*
X144600Y392396D02*Y390896D01*
X145350Y390146D01*
X147600D01*
X148350Y389396D01*
Y387896D01*
X147600Y387146D02*X148350Y387896D01*
X145350Y387146D02*X147600D01*
X144600Y387896D02*X145350Y387146D01*
X98000Y392396D02*X98750Y393146D01*
X101000D01*
X101750Y392396D01*
Y390896D01*
X98000Y387146D02*X101750Y390896D01*
X98000Y387146D02*X101750D01*
X45000Y392396D02*X45750Y393146D01*
X48000D01*
X48750Y392396D01*
Y390896D01*
X45000Y387146D02*X48750Y390896D01*
X45000Y387146D02*X48750D01*
X50550D02*X51300D01*
X53100Y393146D02*X56100D01*
X53100D02*Y390146D01*
X53850Y390896D01*
X55350D01*
X56100Y390146D01*
Y387896D01*
X55350Y387146D02*X56100Y387896D01*
X53850Y387146D02*X55350D01*
X53100Y387896D02*X53850Y387146D01*
X57900Y389396D02*X60900Y393146D01*
X57900Y389396D02*X61650D01*
X60900Y393146D02*Y387146D01*
X101006Y311161D02*G75*G03X102606Y311161I800J0D01*G01*
G75*G03X101006Y311161I-800J0D01*G01*
X99406D02*G75*G03X104206Y311161I2400J0D01*G01*
G75*G03X99406Y311161I-2400J0D01*G01*
X39982D02*G75*G03X41582Y311161I800J0D01*G01*
G75*G03X39982Y311161I-800J0D01*G01*
X38382D02*G75*G03X43182Y311161I2400J0D01*G01*
G75*G03X38382Y311161I-2400J0D01*G01*
X14200Y405896D02*G75*G03X15800Y405896I800J0D01*G01*
G75*G03X14200Y405896I-800J0D01*G01*
X12600D02*G75*G03X17400Y405896I2400J0D01*G01*
G75*G03X12600Y405896I-2400J0D01*G01*
X135000Y408146D02*X136500Y405146D01*
X138000Y408146D01*
X136500Y405146D02*Y402146D01*
X139800Y405446D02*X142050D01*
X139800Y402146D02*X142800D01*
X139800Y408146D02*Y402146D01*
Y408146D02*X142800D01*
X147600D02*X148350Y407396D01*
X145350Y408146D02*X147600D01*
X144600Y407396D02*X145350Y408146D01*
X144600Y407396D02*Y405896D01*
X145350Y405146D01*
X147600D01*
X148350Y404396D01*
Y402896D01*
X147600Y402146D02*X148350Y402896D01*
X145350Y402146D02*X147600D01*
X144600Y402896D02*X145350Y402146D01*
X98000Y407396D02*X98750Y408146D01*
X101000D01*
X101750Y407396D01*
Y405896D01*
X98000Y402146D02*X101750Y405896D01*
X98000Y402146D02*X101750D01*
X45000Y406946D02*X46200Y408146D01*
Y402146D01*
X45000D02*X47250D01*
X49050D02*X49800D01*
X52350D02*X55350Y408146D01*
X51600D02*X55350D01*
X57150Y402896D02*X57900Y402146D01*
X57150Y407396D02*Y402896D01*
Y407396D02*X57900Y408146D01*
X59400D01*
X60150Y407396D01*
Y402896D01*
X59400Y402146D02*X60150Y402896D01*
X57900Y402146D02*X59400D01*
X57150Y403646D02*X60150Y406646D01*
X9805Y28778D02*X14605Y23978D01*
X9805D02*X14605Y28778D01*
X10605Y27978D02*X13805D01*
X10605D02*Y24778D01*
X13805D01*
Y27978D02*Y24778D01*
X12600Y423296D02*X17400Y418496D01*
X12600D02*X17400Y423296D01*
X13400Y422496D02*X16600D01*
X13400D02*Y419296D01*
X16600D01*
Y422496D02*Y419296D01*
X140000Y423146D02*Y417146D01*
Y423146D02*X143750Y417146D01*
Y423146D02*Y417146D01*
X145550Y422396D02*Y417896D01*
Y422396D02*X146300Y423146D01*
X147800D01*
X148550Y422396D01*
Y417896D01*
X147800Y417146D02*X148550Y417896D01*
X146300Y417146D02*X147800D01*
X145550Y417896D02*X146300Y417146D01*
X98000Y421946D02*X99200Y423146D01*
Y417146D01*
X98000D02*X100250D01*
X45000Y421946D02*X46200Y423146D01*
Y417146D01*
X45000D02*X47250D01*
X49050D02*X49800D01*
X53850Y423146D02*X54600Y422396D01*
X52350Y423146D02*X53850D01*
X51600Y422396D02*X52350Y423146D01*
X51600Y422396D02*Y417896D01*
X52350Y417146D01*
X53850Y420446D02*X54600Y419696D01*
X51600Y420446D02*X53850D01*
X52350Y417146D02*X53850D01*
X54600Y417896D01*
Y419696D02*Y417896D01*
X56400D02*X57150Y417146D01*
X56400Y422396D02*Y417896D01*
Y422396D02*X57150Y423146D01*
X58650D01*
X59400Y422396D01*
Y417896D01*
X58650Y417146D02*X59400Y417896D01*
X57150Y417146D02*X58650D01*
X56400Y418646D02*X59400Y421646D01*
X54112Y173789D02*Y167389D01*
X50912Y170589D02*X57312D01*
X52512Y172189D02*X55712D01*
X52512D02*Y168989D01*
X55712D01*
Y172189D02*Y168989D01*
X54112Y193789D02*Y187389D01*
X50912Y190589D02*X57312D01*
X52512Y192189D02*X55712D01*
X52512D02*Y188989D01*
X55712D01*
Y192189D02*Y188989D01*
X54112Y133789D02*Y127389D01*
X50912Y130589D02*X57312D01*
X52512Y132189D02*X55712D01*
X52512D02*Y128989D01*
X55712D01*
Y132189D02*Y128989D01*
X54112Y153789D02*Y147389D01*
X50912Y150589D02*X57312D01*
X52512Y152189D02*X55712D01*
X52512D02*Y148989D01*
X55712D01*
Y152189D02*Y148989D01*
X15000Y439096D02*Y432696D01*
X11800Y435896D02*X18200D01*
X13400Y437496D02*X16600D01*
X13400D02*Y434296D01*
X16600D01*
Y437496D02*Y434296D01*
X135000Y438146D02*X136500Y435146D01*
X138000Y438146D01*
X136500Y435146D02*Y432146D01*
X139800Y435446D02*X142050D01*
X139800Y432146D02*X142800D01*
X139800Y438146D02*Y432146D01*
Y438146D02*X142800D01*
X147600D02*X148350Y437396D01*
X145350Y438146D02*X147600D01*
X144600Y437396D02*X145350Y438146D01*
X144600Y437396D02*Y435896D01*
X145350Y435146D01*
X147600D01*
X148350Y434396D01*
Y432896D01*
X147600Y432146D02*X148350Y432896D01*
X145350Y432146D02*X147600D01*
X144600Y432896D02*X145350Y432146D01*
X98000Y434396D02*X101000Y438146D01*
X98000Y434396D02*X101750D01*
X101000Y438146D02*Y432146D01*
X45000Y436946D02*X46200Y438146D01*
Y432146D01*
X45000D02*X47250D01*
X49050D02*X49800D01*
X51600Y438146D02*X54600D01*
X51600D02*Y435146D01*
X52350Y435896D01*
X53850D01*
X54600Y435146D01*
Y432896D01*
X53850Y432146D02*X54600Y432896D01*
X52350Y432146D02*X53850D01*
X51600Y432896D02*X52350Y432146D01*
X56400Y437396D02*X57150Y438146D01*
X59400D01*
X60150Y437396D01*
Y435896D01*
X56400Y432146D02*X60150Y435896D01*
X56400Y432146D02*X60150D01*
X81890Y246614D02*Y243414D01*
Y246614D02*X84663Y248214D01*
X81890Y246614D02*X79116Y248214D01*
X80290Y246614D02*G75*G03X83490Y246614I1600J0D01*G01*
G75*G03X80290Y246614I-1600J0D01*G01*
X81890Y236614D02*Y233414D01*
Y236614D02*X84663Y238214D01*
X81890Y236614D02*X79116Y238214D01*
X80290Y236614D02*G75*G03X83490Y236614I1600J0D01*G01*
G75*G03X80290Y236614I-1600J0D01*G01*
X81890Y226614D02*Y223414D01*
Y226614D02*X84663Y228214D01*
X81890Y226614D02*X79116Y228214D01*
X80290Y226614D02*G75*G03X83490Y226614I1600J0D01*G01*
G75*G03X80290Y226614I-1600J0D01*G01*
X15000Y450896D02*Y447696D01*
Y450896D02*X17773Y452496D01*
X15000Y450896D02*X12227Y452496D01*
X13400Y450896D02*G75*G03X16600Y450896I1600J0D01*G01*
G75*G03X13400Y450896I-1600J0D01*G01*
X135000Y453146D02*X136500Y450146D01*
X138000Y453146D01*
X136500Y450146D02*Y447146D01*
X139800Y450446D02*X142050D01*
X139800Y447146D02*X142800D01*
X139800Y453146D02*Y447146D01*
Y453146D02*X142800D01*
X147600D02*X148350Y452396D01*
X145350Y453146D02*X147600D01*
X144600Y452396D02*X145350Y453146D01*
X144600Y452396D02*Y450896D01*
X145350Y450146D01*
X147600D01*
X148350Y449396D01*
Y447896D01*
X147600Y447146D02*X148350Y447896D01*
X145350Y447146D02*X147600D01*
X144600Y447896D02*X145350Y447146D01*
X98000Y452396D02*X98750Y453146D01*
X100250D01*
X101000Y452396D01*
X100250Y447146D02*X101000Y447896D01*
X98750Y447146D02*X100250D01*
X98000Y447896D02*X98750Y447146D01*
Y450446D02*X100250D01*
X101000Y452396D02*Y451196D01*
Y449696D02*Y447896D01*
Y449696D02*X100250Y450446D01*
X101000Y451196D02*X100250Y450446D01*
X45000Y451946D02*X46200Y453146D01*
Y447146D01*
X45000D02*X47250D01*
X49050D02*X49800D01*
X51600Y447896D02*X52350Y447146D01*
X51600Y452396D02*Y447896D01*
Y452396D02*X52350Y453146D01*
X53850D01*
X54600Y452396D01*
Y447896D01*
X53850Y447146D02*X54600Y447896D01*
X52350Y447146D02*X53850D01*
X51600Y448646D02*X54600Y451646D01*
X57150Y447146D02*X60150Y453146D01*
X56400D02*X60150D01*
X200093Y303293D02*X203293D01*
X200093D02*Y300093D01*
X203293D01*
Y303293D02*Y300093D01*
X200093Y293293D02*X203293D01*
X200093D02*Y290093D01*
X203293D01*
Y293293D02*Y290093D01*
X210093Y303293D02*X213293D01*
X210093D02*Y300093D01*
X213293D01*
Y303293D02*Y300093D01*
X210093Y293293D02*X213293D01*
X210093D02*Y290093D01*
X213293D01*
Y293293D02*Y290093D01*
X200093Y273293D02*X203293D01*
X200093D02*Y270093D01*
X203293D01*
Y273293D02*Y270093D01*
X200093Y263293D02*X203293D01*
X200093D02*Y260093D01*
X203293D01*
Y263293D02*Y260093D01*
X200093Y253293D02*X203293D01*
X200093D02*Y250093D01*
X203293D01*
Y253293D02*Y250093D01*
X210093Y273293D02*X213293D01*
X210093D02*Y270093D01*
X213293D01*
Y273293D02*Y270093D01*
X210093Y263293D02*X213293D01*
X210093D02*Y260093D01*
X213293D01*
Y263293D02*Y260093D01*
X210093Y253293D02*X213293D01*
X210093D02*Y250093D01*
X213293D01*
Y253293D02*Y250093D01*
X210093Y243293D02*X213293D01*
X210093D02*Y240093D01*
X213293D01*
Y243293D02*Y240093D01*
X200093Y243293D02*X203293D01*
X200093D02*Y240093D01*
X203293D01*
Y243293D02*Y240093D01*
X200093Y233293D02*X203293D01*
X200093D02*Y230093D01*
X203293D01*
Y233293D02*Y230093D01*
X210093Y233293D02*X213293D01*
X210093D02*Y230093D01*
X213293D01*
Y233293D02*Y230093D01*
X200093Y223293D02*X203293D01*
X200093D02*Y220093D01*
X203293D01*
Y223293D02*Y220093D01*
X210093Y223293D02*X213293D01*
X210093D02*Y220093D01*
X213293D01*
Y223293D02*Y220093D01*
X210093Y213293D02*X213293D01*
X210093D02*Y210093D01*
X213293D01*
Y213293D02*Y210093D01*
X210093Y203293D02*X213293D01*
X210093D02*Y200093D01*
X213293D01*
Y203293D02*Y200093D01*
X210093Y193293D02*X213293D01*
X210093D02*Y190093D01*
X213293D01*
Y193293D02*Y190093D01*
X210093Y183293D02*X213293D01*
X210093D02*Y180093D01*
X213293D01*
Y183293D02*Y180093D01*
X210093Y173293D02*X213293D01*
X210093D02*Y170093D01*
X213293D01*
Y173293D02*Y170093D01*
X210093Y163293D02*X213293D01*
X210093D02*Y160093D01*
X213293D01*
Y163293D02*Y160093D01*
X210093Y153293D02*X213293D01*
X210093D02*Y150093D01*
X213293D01*
Y153293D02*Y150093D01*
X210093Y143293D02*X213293D01*
X210093D02*Y140093D01*
X213293D01*
Y143293D02*Y140093D01*
X210093Y133293D02*X213293D01*
X210093D02*Y130093D01*
X213293D01*
Y133293D02*Y130093D01*
X210093Y123293D02*X213293D01*
X210093D02*Y120093D01*
X213293D01*
Y123293D02*Y120093D01*
X210093Y113293D02*X213293D01*
X210093D02*Y110093D01*
X213293D01*
Y113293D02*Y110093D01*
X200093Y213293D02*X203293D01*
X200093D02*Y210093D01*
X203293D01*
Y213293D02*Y210093D01*
X200093Y203293D02*X203293D01*
X200093D02*Y200093D01*
X203293D01*
Y203293D02*Y200093D01*
X200093Y193293D02*X203293D01*
X200093D02*Y190093D01*
X203293D01*
Y193293D02*Y190093D01*
X200093Y183293D02*X203293D01*
X200093D02*Y180093D01*
X203293D01*
Y183293D02*Y180093D01*
X200093Y173293D02*X203293D01*
X200093D02*Y170093D01*
X203293D01*
Y173293D02*Y170093D01*
X200093Y163293D02*X203293D01*
X200093D02*Y160093D01*
X203293D01*
Y163293D02*Y160093D01*
X200093Y153293D02*X203293D01*
X200093D02*Y150093D01*
X203293D01*
Y153293D02*Y150093D01*
X200093Y143293D02*X203293D01*
X200093D02*Y140093D01*
X203293D01*
Y143293D02*Y140093D01*
X200093Y133293D02*X203293D01*
X200093D02*Y130093D01*
X203293D01*
Y133293D02*Y130093D01*
X200093Y123293D02*X203293D01*
X200093D02*Y120093D01*
X203293D01*
Y123293D02*Y120093D01*
X200093Y113293D02*X203293D01*
X200093D02*Y110093D01*
X203293D01*
Y113293D02*Y110093D01*
X8243Y60655D02*X11443D01*
X8243D02*Y57455D01*
X11443D01*
Y60655D02*Y57455D01*
X48243Y60655D02*X51443D01*
X48243D02*Y57455D01*
X51443D01*
Y60655D02*Y57455D01*
X59994Y34592D02*X63194D01*
X59994D02*Y31392D01*
X63194D01*
Y34592D02*Y31392D01*
X59994Y14592D02*X63194D01*
X59994D02*Y11392D01*
X63194D01*
Y14592D02*Y11392D01*
X200093Y283293D02*X203293D01*
X200093D02*Y280093D01*
X203293D01*
Y283293D02*Y280093D01*
X210093Y283293D02*X213293D01*
X210093D02*Y280093D01*
X213293D01*
Y283293D02*Y280093D01*
X13400Y467496D02*X16600D01*
X13400D02*Y464296D01*
X16600D01*
Y467496D02*Y464296D01*
X135000Y468146D02*X136500Y465146D01*
X138000Y468146D01*
X136500Y465146D02*Y462146D01*
X139800Y465446D02*X142050D01*
X139800Y462146D02*X142800D01*
X139800Y468146D02*Y462146D01*
Y468146D02*X142800D01*
X147600D02*X148350Y467396D01*
X145350Y468146D02*X147600D01*
X144600Y467396D02*X145350Y468146D01*
X144600Y467396D02*Y465896D01*
X145350Y465146D01*
X147600D01*
X148350Y464396D01*
Y462896D01*
X147600Y462146D02*X148350Y462896D01*
X145350Y462146D02*X147600D01*
X144600Y462896D02*X145350Y462146D01*
X98000Y464396D02*X101000Y468146D01*
X98000Y464396D02*X101750D01*
X101000Y468146D02*Y462146D01*
X103550Y464396D02*X106550Y468146D01*
X103550Y464396D02*X107300D01*
X106550Y468146D02*Y462146D01*
X45000Y466946D02*X46200Y468146D01*
Y462146D01*
X45000D02*X47250D01*
X49050D02*X49800D01*
X51600Y462896D02*X52350Y462146D01*
X51600Y467396D02*Y462896D01*
Y467396D02*X52350Y468146D01*
X53850D01*
X54600Y467396D01*
Y462896D01*
X53850Y462146D02*X54600Y462896D01*
X52350Y462146D02*X53850D01*
X51600Y463646D02*X54600Y466646D01*
X56400Y462896D02*X57150Y462146D01*
X56400Y467396D02*Y462896D01*
Y467396D02*X57150Y468146D01*
X58650D01*
X59400Y467396D01*
Y462896D01*
X58650Y462146D02*X59400Y462896D01*
X57150Y462146D02*X58650D01*
X56400Y463646D02*X59400Y466646D01*
X137724Y88780D02*G75*G03X139324Y88780I800J0D01*G01*
G75*G03X137724Y88780I-800J0D01*G01*
X128275D02*G75*G03X129875Y88780I800J0D01*G01*
G75*G03X128275Y88780I-800J0D01*G01*
X137724Y15000D02*G75*G03X139324Y15000I800J0D01*G01*
G75*G03X137724Y15000I-800J0D01*G01*
X128275D02*G75*G03X129875Y15000I800J0D01*G01*
G75*G03X128275Y15000I-800J0D01*G01*
X130165Y21890D02*G75*G03X131765Y21890I800J0D01*G01*
G75*G03X130165Y21890I-800J0D01*G01*
Y81890D02*G75*G03X131765Y81890I800J0D01*G01*
G75*G03X130165Y81890I-800J0D01*G01*
X82606Y88780D02*G75*G03X84206Y88780I800J0D01*G01*
G75*G03X82606Y88780I-800J0D01*G01*
X92054D02*G75*G03X93654Y88780I800J0D01*G01*
G75*G03X92054Y88780I-800J0D01*G01*
X90165Y81890D02*G75*G03X91765Y81890I800J0D01*G01*
G75*G03X90165Y81890I-800J0D01*G01*
X82606Y15000D02*G75*G03X84206Y15000I800J0D01*G01*
G75*G03X82606Y15000I-800J0D01*G01*
X92054D02*G75*G03X93654Y15000I800J0D01*G01*
G75*G03X92054Y15000I-800J0D01*G01*
X90165Y21890D02*G75*G03X91765Y21890I800J0D01*G01*
G75*G03X90165Y21890I-800J0D01*G01*
X14200Y480896D02*G75*G03X15800Y480896I800J0D01*G01*
G75*G03X14200Y480896I-800J0D01*G01*
X135000Y483146D02*X136500Y480146D01*
X138000Y483146D01*
X136500Y480146D02*Y477146D01*
X139800Y480446D02*X142050D01*
X139800Y477146D02*X142800D01*
X139800Y483146D02*Y477146D01*
Y483146D02*X142800D01*
X147600D02*X148350Y482396D01*
X145350Y483146D02*X147600D01*
X144600Y482396D02*X145350Y483146D01*
X144600Y482396D02*Y480896D01*
X145350Y480146D01*
X147600D01*
X148350Y479396D01*
Y477896D01*
X147600Y477146D02*X148350Y477896D01*
X145350Y477146D02*X147600D01*
X144600Y477896D02*X145350Y477146D01*
X98000Y481946D02*X99200Y483146D01*
Y477146D01*
X98000D02*X100250D01*
X102050Y482396D02*X102800Y483146D01*
X105050D01*
X105800Y482396D01*
Y480896D01*
X102050Y477146D02*X105800Y480896D01*
X102050Y477146D02*X105800D01*
X45000Y477896D02*X45750Y477146D01*
X45000Y482396D02*Y477896D01*
Y482396D02*X45750Y483146D01*
X47250D01*
X48000Y482396D01*
Y477896D01*
X47250Y477146D02*X48000Y477896D01*
X45750Y477146D02*X47250D01*
X45000Y478646D02*X48000Y481646D01*
X49800Y477146D02*X50550D01*
X53100D02*X55350Y480146D01*
Y482396D02*Y480146D01*
X54600Y483146D02*X55350Y482396D01*
X53100Y483146D02*X54600D01*
X52350Y482396D02*X53100Y483146D01*
X52350Y482396D02*Y480896D01*
X53100Y480146D01*
X55350D01*
X57900Y477146D02*X60900Y483146D01*
X57150D02*X60900D01*
X87594Y275353D02*X89994Y272953D01*
X87594D02*X89994Y275353D01*
X77594D02*X79994Y272953D01*
X77594D02*X79994Y275353D01*
X67594D02*X69994Y272953D01*
X67594D02*X69994Y275353D01*
X57594D02*X59994Y272953D01*
X57594D02*X59994Y275353D01*
X82594Y265353D02*X84994Y262953D01*
X82594D02*X84994Y265353D01*
X72594D02*X74994Y262953D01*
X72594D02*X74994Y265353D01*
X62594D02*X64994Y262953D01*
X62594D02*X64994Y265353D01*
X52594D02*X54994Y262953D01*
X52594D02*X54994Y265353D01*
X13800Y497096D02*X16200Y494696D01*
X13800D02*X16200Y497096D01*
X135000Y498146D02*X136500Y495146D01*
X138000Y498146D01*
X136500Y495146D02*Y492146D01*
X139800Y495446D02*X142050D01*
X139800Y492146D02*X142800D01*
X139800Y498146D02*Y492146D01*
Y498146D02*X142800D01*
X147600D02*X148350Y497396D01*
X145350Y498146D02*X147600D01*
X144600Y497396D02*X145350Y498146D01*
X144600Y497396D02*Y495896D01*
X145350Y495146D01*
X147600D01*
X148350Y494396D01*
Y492896D01*
X147600Y492146D02*X148350Y492896D01*
X145350Y492146D02*X147600D01*
X144600Y492896D02*X145350Y492146D01*
X98000Y492896D02*X98750Y492146D01*
X98000Y494096D02*Y492896D01*
Y494096D02*X99050Y495146D01*
X99950D01*
X101000Y494096D01*
Y492896D01*
X100250Y492146D02*X101000Y492896D01*
X98750Y492146D02*X100250D01*
X98000Y496196D02*X99050Y495146D01*
X98000Y497396D02*Y496196D01*
Y497396D02*X98750Y498146D01*
X100250D01*
X101000Y497396D01*
Y496196D01*
X99950Y495146D02*X101000Y496196D01*
X45000Y492896D02*X45750Y492146D01*
X45000Y497396D02*Y492896D01*
Y497396D02*X45750Y498146D01*
X47250D01*
X48000Y497396D01*
Y492896D01*
X47250Y492146D02*X48000Y492896D01*
X45750Y492146D02*X47250D01*
X45000Y493646D02*X48000Y496646D01*
X49800Y492146D02*X50550D01*
X53100D02*X55350Y495146D01*
Y497396D02*Y495146D01*
X54600Y498146D02*X55350Y497396D01*
X53100Y498146D02*X54600D01*
X52350Y497396D02*X53100Y498146D01*
X52350Y497396D02*Y495896D01*
X53100Y495146D01*
X55350D01*
X57150Y492896D02*X57900Y492146D01*
X57150Y497396D02*Y492896D01*
Y497396D02*X57900Y498146D01*
X59400D01*
X60150Y497396D01*
Y492896D01*
X59400Y492146D02*X60150Y492896D01*
X57900Y492146D02*X59400D01*
X57150Y493646D02*X60150Y496646D01*
X134252Y322860D02*Y319660D01*
X132652Y321260D02*X135852D01*
X157087Y273254D02*Y270054D01*
X155487Y271654D02*X158687D01*
X133071Y273254D02*Y270054D01*
X131471Y271654D02*X134671D01*
X187402Y243332D02*Y240132D01*
X185802Y241732D02*X189002D01*
X170866Y243332D02*Y240132D01*
X169266Y241732D02*X172466D01*
X15000Y512496D02*Y509296D01*
X13400Y510896D02*X16600D01*
X135000Y513146D02*X136500Y510146D01*
X138000Y513146D01*
X136500Y510146D02*Y507146D01*
X139800Y510446D02*X142050D01*
X139800Y507146D02*X142800D01*
X139800Y513146D02*Y507146D01*
Y513146D02*X142800D01*
X147600D02*X148350Y512396D01*
X145350Y513146D02*X147600D01*
X144600Y512396D02*X145350Y513146D01*
X144600Y512396D02*Y510896D01*
X145350Y510146D01*
X147600D01*
X148350Y509396D01*
Y507896D01*
X147600Y507146D02*X148350Y507896D01*
X145350Y507146D02*X147600D01*
X144600Y507896D02*X145350Y507146D01*
X98000Y513146D02*X101000D01*
X98000D02*Y510146D01*
X98750Y510896D01*
X100250D01*
X101000Y510146D01*
Y507896D01*
X100250Y507146D02*X101000Y507896D01*
X98750Y507146D02*X100250D01*
X98000Y507896D02*X98750Y507146D01*
X45000Y507896D02*X45750Y507146D01*
X45000Y512396D02*Y507896D01*
Y512396D02*X45750Y513146D01*
X47250D01*
X48000Y512396D01*
Y507896D01*
X47250Y507146D02*X48000Y507896D01*
X45750Y507146D02*X47250D01*
X45000Y508646D02*X48000Y511646D01*
X49800Y507146D02*X50550D01*
X53100D02*X56100Y513146D01*
X52350D02*X56100D01*
X60150D02*X60900Y512396D01*
X58650Y513146D02*X60150D01*
X57900Y512396D02*X58650Y513146D01*
X57900Y512396D02*Y507896D01*
X58650Y507146D01*
X60150Y510446D02*X60900Y509696D01*
X57900Y510446D02*X60150D01*
X58650Y507146D02*X60150D01*
X60900Y507896D01*
Y509696D02*Y507896D01*
X53937Y288976D02*Y287376D01*
Y288976D02*X55324Y289776D01*
X53937Y288976D02*X52550Y289776D01*
X15000Y525896D02*Y524296D01*
Y525896D02*X16387Y526696D01*
X15000Y525896D02*X13613Y526696D01*
X135000Y528146D02*X136500Y525146D01*
X138000Y528146D01*
X136500Y525146D02*Y522146D01*
X139800Y525446D02*X142050D01*
X139800Y522146D02*X142800D01*
X139800Y528146D02*Y522146D01*
Y528146D02*X142800D01*
X147600D02*X148350Y527396D01*
X145350Y528146D02*X147600D01*
X144600Y527396D02*X145350Y528146D01*
X144600Y527396D02*Y525896D01*
X145350Y525146D01*
X147600D01*
X148350Y524396D01*
Y522896D01*
X147600Y522146D02*X148350Y522896D01*
X145350Y522146D02*X147600D01*
X144600Y522896D02*X145350Y522146D01*
X98000Y526946D02*X99200Y528146D01*
Y522146D01*
X98000D02*X100250D01*
X45000Y522896D02*X45750Y522146D01*
X45000Y527396D02*Y522896D01*
Y527396D02*X45750Y528146D01*
X47250D01*
X48000Y527396D01*
Y522896D01*
X47250Y522146D02*X48000Y522896D01*
X45750Y522146D02*X47250D01*
X45000Y523646D02*X48000Y526646D01*
X49800Y522146D02*X50550D01*
X52350Y528146D02*X55350D01*
X52350D02*Y525146D01*
X53100Y525896D01*
X54600D01*
X55350Y525146D01*
Y522896D01*
X54600Y522146D02*X55350Y522896D01*
X53100Y522146D02*X54600D01*
X52350Y522896D02*X53100Y522146D01*
X57150Y526946D02*X58350Y528146D01*
Y522146D01*
X57150D02*X59400D01*
X3000Y543146D02*X3750Y542396D01*
X750Y543146D02*X3000D01*
X0Y542396D02*X750Y543146D01*
X0Y542396D02*Y540896D01*
X750Y540146D01*
X3000D01*
X3750Y539396D01*
Y537896D01*
X3000Y537146D02*X3750Y537896D01*
X750Y537146D02*X3000D01*
X0Y537896D02*X750Y537146D01*
X5550Y540146D02*Y537896D01*
X6300Y537146D01*
X8550Y540146D02*Y535646D01*
X7800Y534896D02*X8550Y535646D01*
X6300Y534896D02*X7800D01*
X5550Y535646D02*X6300Y534896D01*
Y537146D02*X7800D01*
X8550Y537896D01*
X11100Y539396D02*Y537146D01*
Y539396D02*X11850Y540146D01*
X12600D01*
X13350Y539396D01*
Y537146D01*
Y539396D02*X14100Y540146D01*
X14850D01*
X15600Y539396D01*
Y537146D01*
X10350Y540146D02*X11100Y539396D01*
X17400Y543146D02*Y537146D01*
Y537896D02*X18150Y537146D01*
X19650D01*
X20400Y537896D01*
Y539396D02*Y537896D01*
X19650Y540146D02*X20400Y539396D01*
X18150Y540146D02*X19650D01*
X17400Y539396D02*X18150Y540146D01*
X22200Y539396D02*Y537896D01*
Y539396D02*X22950Y540146D01*
X24450D01*
X25200Y539396D01*
Y537896D01*
X24450Y537146D02*X25200Y537896D01*
X22950Y537146D02*X24450D01*
X22200Y537896D02*X22950Y537146D01*
X27000Y543146D02*Y537896D01*
X27750Y537146D01*
X0Y535396D02*X29250D01*
X41750Y543146D02*Y537146D01*
X43700Y543146D02*X44750Y542096D01*
Y538196D01*
X43700Y537146D02*X44750Y538196D01*
X41000Y537146D02*X43700D01*
X41000Y543146D02*X43700D01*
G54D105*X46550Y541646D02*Y541496D01*
G54D104*Y539396D02*Y537146D01*
X50300Y540146D02*X51050Y539396D01*
X48800Y540146D02*X50300D01*
X48050Y539396D02*X48800Y540146D01*
X48050Y539396D02*Y537896D01*
X48800Y537146D01*
X51050Y540146D02*Y537896D01*
X51800Y537146D01*
X48800D02*X50300D01*
X51050Y537896D01*
X54350Y539396D02*Y537146D01*
Y539396D02*X55100Y540146D01*
X55850D01*
X56600Y539396D01*
Y537146D01*
Y539396D02*X57350Y540146D01*
X58100D01*
X58850Y539396D01*
Y537146D01*
X53600Y540146D02*X54350Y539396D01*
X60650Y537146D02*X61400D01*
X65900Y537896D02*X66650Y537146D01*
X65900Y542396D02*X66650Y543146D01*
X65900Y542396D02*Y537896D01*
X69200Y539396D02*Y537146D01*
Y539396D02*X69950Y540146D01*
X70700D01*
X71450Y539396D01*
Y537146D01*
Y539396D02*X72200Y540146D01*
X72950D01*
X73700Y539396D01*
Y537146D01*
X68450Y540146D02*X69200Y539396D01*
X76250D02*Y537146D01*
Y539396D02*X77000Y540146D01*
X77750D01*
X78500Y539396D01*
Y537146D01*
Y539396D02*X79250Y540146D01*
X80000D01*
X80750Y539396D01*
Y537146D01*
X75500Y540146D02*X76250Y539396D01*
X82550Y543146D02*X83300Y542396D01*
Y537896D01*
X82550Y537146D02*X83300Y537896D01*
X41000Y535396D02*X85100D01*
X96050Y537146D02*X98000D01*
X95000Y538196D02*X96050Y537146D01*
X95000Y542096D02*Y538196D01*
Y542096D02*X96050Y543146D01*
X98000D01*
X99800Y539396D02*Y537896D01*
Y539396D02*X100550Y540146D01*
X102050D01*
X102800Y539396D01*
Y537896D01*
X102050Y537146D02*X102800Y537896D01*
X100550Y537146D02*X102050D01*
X99800Y537896D02*X100550Y537146D01*
X104600Y540146D02*Y537896D01*
X105350Y537146D01*
X106850D01*
X107600Y537896D01*
Y540146D02*Y537896D01*
X110150Y539396D02*Y537146D01*
Y539396D02*X110900Y540146D01*
X111650D01*
X112400Y539396D01*
Y537146D01*
X109400Y540146D02*X110150Y539396D01*
X114950Y543146D02*Y537896D01*
X115700Y537146D01*
X114200Y540896D02*X115700D01*
X95000Y535396D02*X117200D01*
X130750Y543146D02*Y537146D01*
X130000Y543146D02*X133000D01*
X133750Y542396D01*
Y540896D01*
X133000Y540146D02*X133750Y540896D01*
X130750Y540146D02*X133000D01*
X135550Y543146D02*Y537896D01*
X136300Y537146D01*
X140050Y540146D02*X140800Y539396D01*
X138550Y540146D02*X140050D01*
X137800Y539396D02*X138550Y540146D01*
X137800Y539396D02*Y537896D01*
X138550Y537146D01*
X140800Y540146D02*Y537896D01*
X141550Y537146D01*
X138550D02*X140050D01*
X140800Y537896D01*
X144100Y543146D02*Y537896D01*
X144850Y537146D01*
X143350Y540896D02*X144850D01*
X147100Y537146D02*X149350D01*
X146350Y537896D02*X147100Y537146D01*
X146350Y539396D02*Y537896D01*
Y539396D02*X147100Y540146D01*
X148600D01*
X149350Y539396D01*
X146350Y538646D02*X149350D01*
Y539396D01*
X154150Y543146D02*Y537146D01*
X153400D02*X154150Y537896D01*
X151900Y537146D02*X153400D01*
X151150Y537896D02*X151900Y537146D01*
X151150Y539396D02*Y537896D01*
Y539396D02*X151900Y540146D01*
X153400D01*
X154150Y539396D01*
X157450Y540146D02*Y539396D01*
Y537896D02*Y537146D01*
X155950Y542396D02*Y541646D01*
Y542396D02*X156700Y543146D01*
X158200D01*
X158950Y542396D01*
Y541646D01*
X157450Y540146D02*X158950Y541646D01*
X130000Y535396D02*X160750D01*
X0Y558146D02*X3000D01*
X1500D02*Y552146D01*
X4800Y558146D02*Y552146D01*
Y554396D02*X5550Y555146D01*
X7050D01*
X7800Y554396D01*
Y552146D01*
X10350D02*X12600D01*
X9600Y552896D02*X10350Y552146D01*
X9600Y554396D02*Y552896D01*
Y554396D02*X10350Y555146D01*
X11850D01*
X12600Y554396D01*
X9600Y553646D02*X12600D01*
Y554396D01*
X15150D02*Y552146D01*
Y554396D02*X15900Y555146D01*
X17400D01*
X14400D02*X15150Y554396D01*
X19950Y552146D02*X22200D01*
X19200Y552896D02*X19950Y552146D01*
X19200Y554396D02*Y552896D01*
Y554396D02*X19950Y555146D01*
X21450D01*
X22200Y554396D01*
X19200Y553646D02*X22200D01*
Y554396D01*
X28950Y555146D02*X29700Y554396D01*
X27450Y555146D02*X28950D01*
X26700Y554396D02*X27450Y555146D01*
X26700Y554396D02*Y552896D01*
X27450Y552146D01*
X29700Y555146D02*Y552896D01*
X30450Y552146D01*
X27450D02*X28950D01*
X29700Y552896D01*
X33000Y554396D02*Y552146D01*
Y554396D02*X33750Y555146D01*
X35250D01*
X32250D02*X33000Y554396D01*
X37800Y552146D02*X40050D01*
X37050Y552896D02*X37800Y552146D01*
X37050Y554396D02*Y552896D01*
Y554396D02*X37800Y555146D01*
X39300D01*
X40050Y554396D01*
X37050Y553646D02*X40050D01*
Y554396D01*
X44550Y556946D02*X45750Y558146D01*
Y552146D01*
X44550D02*X46800D01*
X48600Y557396D02*X49350Y558146D01*
X50850D01*
X51600Y557396D01*
X50850Y552146D02*X51600Y552896D01*
X49350Y552146D02*X50850D01*
X48600Y552896D02*X49350Y552146D01*
Y555446D02*X50850D01*
X51600Y557396D02*Y556196D01*
Y554696D02*Y552896D01*
Y554696D02*X50850Y555446D01*
X51600Y556196D02*X50850Y555446D01*
X59100Y558146D02*Y552146D01*
X58350D02*X59100Y552896D01*
X56850Y552146D02*X58350D01*
X56100Y552896D02*X56850Y552146D01*
X56100Y554396D02*Y552896D01*
Y554396D02*X56850Y555146D01*
X58350D01*
X59100Y554396D01*
G54D105*X60900Y556646D02*Y556496D01*
G54D104*Y554396D02*Y552146D01*
X63150Y557396D02*Y552146D01*
Y557396D02*X63900Y558146D01*
X64650D01*
X62400Y555146D02*X63900D01*
X66900Y557396D02*Y552146D01*
Y557396D02*X67650Y558146D01*
X68400D01*
X66150Y555146D02*X67650D01*
X70650Y552146D02*X72900D01*
X69900Y552896D02*X70650Y552146D01*
X69900Y554396D02*Y552896D01*
Y554396D02*X70650Y555146D01*
X72150D01*
X72900Y554396D01*
X69900Y553646D02*X72900D01*
Y554396D01*
X75450D02*Y552146D01*
Y554396D02*X76200Y555146D01*
X77700D01*
X74700D02*X75450Y554396D01*
X80250Y552146D02*X82500D01*
X79500Y552896D02*X80250Y552146D01*
X79500Y554396D02*Y552896D01*
Y554396D02*X80250Y555146D01*
X81750D01*
X82500Y554396D01*
X79500Y553646D02*X82500D01*
Y554396D01*
X85050D02*Y552146D01*
Y554396D02*X85800Y555146D01*
X86550D01*
X87300Y554396D01*
Y552146D01*
X84300Y555146D02*X85050Y554396D01*
X89850Y558146D02*Y552896D01*
X90600Y552146D01*
X89100Y555896D02*X90600D01*
X97800Y558146D02*Y552146D01*
X97050D02*X97800Y552896D01*
X95550Y552146D02*X97050D01*
X94800Y552896D02*X95550Y552146D01*
X94800Y554396D02*Y552896D01*
Y554396D02*X95550Y555146D01*
X97050D01*
X97800Y554396D01*
X100350D02*Y552146D01*
Y554396D02*X101100Y555146D01*
X102600D01*
X99600D02*X100350Y554396D01*
G54D105*X104400Y556646D02*Y556496D01*
G54D104*Y554396D02*Y552146D01*
X105900Y558146D02*Y552896D01*
X106650Y552146D01*
X108150Y558146D02*Y552896D01*
X108900Y552146D01*
X113850D02*X116100D01*
X116850Y552896D01*
X116100Y553646D02*X116850Y552896D01*
X113850Y553646D02*X116100D01*
X113100Y554396D02*X113850Y553646D01*
X113100Y554396D02*X113850Y555146D01*
X116100D01*
X116850Y554396D01*
X113100Y552896D02*X113850Y552146D01*
G54D105*X118650Y556646D02*Y556496D01*
G54D104*Y554396D02*Y552146D01*
X120150Y555146D02*X123150D01*
X120150Y552146D02*X123150Y555146D01*
X120150Y552146D02*X123150D01*
X125700D02*X127950D01*
X124950Y552896D02*X125700Y552146D01*
X124950Y554396D02*Y552896D01*
Y554396D02*X125700Y555146D01*
X127200D01*
X127950Y554396D01*
X124950Y553646D02*X127950D01*
Y554396D01*
X130500Y552146D02*X132750D01*
X133500Y552896D01*
X132750Y553646D02*X133500Y552896D01*
X130500Y553646D02*X132750D01*
X129750Y554396D02*X130500Y553646D01*
X129750Y554396D02*X130500Y555146D01*
X132750D01*
X133500Y554396D01*
X129750Y552896D02*X130500Y552146D01*
X138000Y555146D02*Y552896D01*
X138750Y552146D01*
X140250D01*
X141000Y552896D01*
Y555146D02*Y552896D01*
X143550Y552146D02*X145800D01*
X146550Y552896D01*
X145800Y553646D02*X146550Y552896D01*
X143550Y553646D02*X145800D01*
X142800Y554396D02*X143550Y553646D01*
X142800Y554396D02*X143550Y555146D01*
X145800D01*
X146550Y554396D01*
X142800Y552896D02*X143550Y552146D01*
X149100D02*X151350D01*
X148350Y552896D02*X149100Y552146D01*
X148350Y554396D02*Y552896D01*
Y554396D02*X149100Y555146D01*
X150600D01*
X151350Y554396D01*
X148350Y553646D02*X151350D01*
Y554396D01*
X156150Y558146D02*Y552146D01*
X155400D02*X156150Y552896D01*
X153900Y552146D02*X155400D01*
X153150Y552896D02*X153900Y552146D01*
X153150Y554396D02*Y552896D01*
Y554396D02*X153900Y555146D01*
X155400D01*
X156150Y554396D01*
G54D105*X160650Y556646D02*Y556496D01*
G54D104*Y554396D02*Y552146D01*
X162900Y554396D02*Y552146D01*
Y554396D02*X163650Y555146D01*
X164400D01*
X165150Y554396D01*
Y552146D01*
X162150Y555146D02*X162900Y554396D01*
X170400Y558146D02*Y552896D01*
X171150Y552146D01*
X169650Y555896D02*X171150D01*
X172650Y558146D02*Y552146D01*
Y554396D02*X173400Y555146D01*
X174900D01*
X175650Y554396D01*
Y552146D01*
G54D105*X177450Y556646D02*Y556496D01*
G54D104*Y554396D02*Y552146D01*
X179700D02*X181950D01*
X182700Y552896D01*
X181950Y553646D02*X182700Y552896D01*
X179700Y553646D02*X181950D01*
X178950Y554396D02*X179700Y553646D01*
X178950Y554396D02*X179700Y555146D01*
X181950D01*
X182700Y554396D01*
X178950Y552896D02*X179700Y552146D01*
X187200Y558146D02*Y552896D01*
X187950Y552146D01*
X191700Y555146D02*X192450Y554396D01*
X190200Y555146D02*X191700D01*
X189450Y554396D02*X190200Y555146D01*
X189450Y554396D02*Y552896D01*
X190200Y552146D01*
X192450Y555146D02*Y552896D01*
X193200Y552146D01*
X190200D02*X191700D01*
X192450Y552896D01*
X195000Y555146D02*Y552896D01*
X195750Y552146D01*
X198000Y555146D02*Y550646D01*
X197250Y549896D02*X198000Y550646D01*
X195750Y549896D02*X197250D01*
X195000Y550646D02*X195750Y549896D01*
Y552146D02*X197250D01*
X198000Y552896D01*
X199800Y554396D02*Y552896D01*
Y554396D02*X200550Y555146D01*
X202050D01*
X202800Y554396D01*
Y552896D01*
X202050Y552146D02*X202800Y552896D01*
X200550Y552146D02*X202050D01*
X199800Y552896D02*X200550Y552146D01*
X204600Y555146D02*Y552896D01*
X205350Y552146D01*
X206850D01*
X207600Y552896D01*
Y555146D02*Y552896D01*
X210150Y558146D02*Y552896D01*
X210900Y552146D01*
X209400Y555896D02*X210900D01*
X212400Y550646D02*X213900Y552146D01*
X219150D02*X221400Y555146D01*
Y557396D02*Y555146D01*
X220650Y558146D02*X221400Y557396D01*
X219150Y558146D02*X220650D01*
X218400Y557396D02*X219150Y558146D01*
X218400Y557396D02*Y555896D01*
X219150Y555146D01*
X221400D01*
X223200Y552896D02*X223950Y552146D01*
X223200Y557396D02*Y552896D01*
Y557396D02*X223950Y558146D01*
X225450D01*
X226200Y557396D01*
Y552896D01*
X225450Y552146D02*X226200Y552896D01*
X223950Y552146D02*X225450D01*
X223200Y553646D02*X226200Y556646D01*
X230700Y558146D02*Y552146D01*
Y554396D02*X231450Y555146D01*
X232950D01*
X233700Y554396D01*
Y552146D01*
X235500Y554396D02*Y552896D01*
Y554396D02*X236250Y555146D01*
X237750D01*
X238500Y554396D01*
Y552896D01*
X237750Y552146D02*X238500Y552896D01*
X236250Y552146D02*X237750D01*
X235500Y552896D02*X236250Y552146D01*
X240300Y558146D02*Y552896D01*
X241050Y552146D01*
X243300D02*X245550D01*
X242550Y552896D02*X243300Y552146D01*
X242550Y554396D02*Y552896D01*
Y554396D02*X243300Y555146D01*
X244800D01*
X245550Y554396D01*
X242550Y553646D02*X245550D01*
Y554396D01*
X248100Y552146D02*X250350D01*
X251100Y552896D01*
X250350Y553646D02*X251100Y552896D01*
X248100Y553646D02*X250350D01*
X247350Y554396D02*X248100Y553646D01*
X247350Y554396D02*X248100Y555146D01*
X250350D01*
X251100Y554396D01*
X247350Y552896D02*X248100Y552146D01*
X256350Y558146D02*Y552896D01*
X257100Y552146D01*
X255600Y555896D02*X257100D01*
X258600Y554396D02*Y552896D01*
Y554396D02*X259350Y555146D01*
X260850D01*
X261600Y554396D01*
Y552896D01*
X260850Y552146D02*X261600Y552896D01*
X259350Y552146D02*X260850D01*
X258600Y552896D02*X259350Y552146D01*
X264150Y558146D02*Y552896D01*
X264900Y552146D01*
X263400Y555896D02*X264900D01*
X268650Y555146D02*X269400Y554396D01*
X267150Y555146D02*X268650D01*
X266400Y554396D02*X267150Y555146D01*
X266400Y554396D02*Y552896D01*
X267150Y552146D01*
X269400Y555146D02*Y552896D01*
X270150Y552146D01*
X267150D02*X268650D01*
X269400Y552896D01*
X271950Y558146D02*Y552896D01*
X272700Y552146D01*
G54D106*X0Y334646D02*X220472D01*
X0D02*Y0D01*
X220472Y334646D02*Y0D01*
X0D02*X220472D01*
G54D104*X200000Y348146D02*Y342146D01*
Y348146D02*X202250Y345146D01*
X204500Y348146D01*
Y342146D01*
X208550Y345146D02*X209300Y344396D01*
X207050Y345146D02*X208550D01*
X206300Y344396D02*X207050Y345146D01*
X206300Y344396D02*Y342896D01*
X207050Y342146D01*
X209300Y345146D02*Y342896D01*
X210050Y342146D01*
X207050D02*X208550D01*
X209300Y342896D01*
X211850Y345146D02*X214850Y342146D01*
X211850D02*X214850Y345146D01*
G54D105*X216650Y346646D02*Y346496D01*
G54D104*Y344396D02*Y342146D01*
X218900Y344396D02*Y342146D01*
Y344396D02*X219650Y345146D01*
X220400D01*
X221150Y344396D01*
Y342146D01*
Y344396D02*X221900Y345146D01*
X222650D01*
X223400Y344396D01*
Y342146D01*
X218150Y345146D02*X218900Y344396D01*
X225200Y345146D02*Y342896D01*
X225950Y342146D01*
X227450D01*
X228200Y342896D01*
Y345146D02*Y342896D01*
X230750Y344396D02*Y342146D01*
Y344396D02*X231500Y345146D01*
X232250D01*
X233000Y344396D01*
Y342146D01*
Y344396D02*X233750Y345146D01*
X234500D01*
X235250Y344396D01*
Y342146D01*
X230000Y345146D02*X230750Y344396D01*
X240500Y348146D02*Y342146D01*
X242450Y348146D02*X243500Y347096D01*
Y343196D01*
X242450Y342146D02*X243500Y343196D01*
X239750Y342146D02*X242450D01*
X239750Y348146D02*X242450D01*
G54D105*X245300Y346646D02*Y346496D01*
G54D104*Y344396D02*Y342146D01*
X247550Y344396D02*Y342146D01*
Y344396D02*X248300Y345146D01*
X249050D01*
X249800Y344396D01*
Y342146D01*
Y344396D02*X250550Y345146D01*
X251300D01*
X252050Y344396D01*
Y342146D01*
X246800Y345146D02*X247550Y344396D01*
X254600Y342146D02*X256850D01*
X253850Y342896D02*X254600Y342146D01*
X253850Y344396D02*Y342896D01*
Y344396D02*X254600Y345146D01*
X256100D01*
X256850Y344396D01*
X253850Y343646D02*X256850D01*
Y344396D01*
X259400D02*Y342146D01*
Y344396D02*X260150Y345146D01*
X260900D01*
X261650Y344396D01*
Y342146D01*
X258650Y345146D02*X259400Y344396D01*
X264200Y342146D02*X266450D01*
X267200Y342896D01*
X266450Y343646D02*X267200Y342896D01*
X264200Y343646D02*X266450D01*
X263450Y344396D02*X264200Y343646D01*
X263450Y344396D02*X264200Y345146D01*
X266450D01*
X267200Y344396D01*
X263450Y342896D02*X264200Y342146D01*
G54D105*X269000Y346646D02*Y346496D01*
G54D104*Y344396D02*Y342146D01*
X270500Y344396D02*Y342896D01*
Y344396D02*X271250Y345146D01*
X272750D01*
X273500Y344396D01*
Y342896D01*
X272750Y342146D02*X273500Y342896D01*
X271250Y342146D02*X272750D01*
X270500Y342896D02*X271250Y342146D01*
X276050Y344396D02*Y342146D01*
Y344396D02*X276800Y345146D01*
X277550D01*
X278300Y344396D01*
Y342146D01*
X275300Y345146D02*X276050Y344396D01*
X280850Y342146D02*X283100D01*
X283850Y342896D01*
X283100Y343646D02*X283850Y342896D01*
X280850Y343646D02*X283100D01*
X280100Y344396D02*X280850Y343646D01*
X280100Y344396D02*X280850Y345146D01*
X283100D01*
X283850Y344396D01*
X280100Y342896D02*X280850Y342146D01*
X285650Y345896D02*X286400D01*
X285650Y344396D02*X286400D01*
X290900Y347396D02*X291650Y348146D01*
X293900D01*
X294650Y347396D01*
Y345896D01*
X290900Y342146D02*X294650Y345896D01*
X290900Y342146D02*X294650D01*
X296450Y347396D02*X297200Y348146D01*
X299450D01*
X300200Y347396D01*
Y345896D01*
X296450Y342146D02*X300200Y345896D01*
X296450Y342146D02*X300200D01*
X302000Y342896D02*X302750Y342146D01*
X302000Y347396D02*Y342896D01*
Y347396D02*X302750Y348146D01*
X304250D01*
X305000Y347396D01*
Y342896D01*
X304250Y342146D02*X305000Y342896D01*
X302750Y342146D02*X304250D01*
X302000Y343646D02*X305000Y346646D01*
X306800Y344396D02*X309800Y348146D01*
X306800Y344396D02*X310550D01*
X309800Y348146D02*Y342146D01*
X312350D02*X313100D01*
X315650D02*X318650Y348146D01*
X314900D02*X318650D01*
X320450Y347396D02*X321200Y348146D01*
X323450D01*
X324200Y347396D01*
Y345896D01*
X320450Y342146D02*X324200Y345896D01*
X320450Y342146D02*X324200D01*
X326000Y344396D02*X329000Y348146D01*
X326000Y344396D02*X329750D01*
X329000Y348146D02*Y342146D01*
X331550Y344396D02*X334550Y348146D01*
X331550Y344396D02*X335300D01*
X334550Y348146D02*Y342146D01*
X337100Y342896D02*X337850Y342146D01*
X337100Y347396D02*Y342896D01*
Y347396D02*X337850Y348146D01*
X339350D01*
X340100Y347396D01*
Y342896D01*
X339350Y342146D02*X340100Y342896D01*
X337850Y342146D02*X339350D01*
X337100Y343646D02*X340100Y346646D01*
X342650Y342146D02*X344900Y345146D01*
Y347396D02*Y345146D01*
X344150Y348146D02*X344900Y347396D01*
X342650Y348146D02*X344150D01*
X341900Y347396D02*X342650Y348146D01*
X341900Y347396D02*Y345896D01*
X342650Y345146D01*
X344900D01*
X350150Y344396D02*Y342146D01*
Y344396D02*X350900Y345146D01*
X351650D01*
X352400Y344396D01*
Y342146D01*
Y344396D02*X353150Y345146D01*
X353900D01*
X354650Y344396D01*
Y342146D01*
X349400Y345146D02*X350150Y344396D01*
G54D105*X356450Y346646D02*Y346496D01*
G54D104*Y344396D02*Y342146D01*
X357950Y348146D02*Y342896D01*
X358700Y342146D01*
X360950D02*X363200D01*
X363950Y342896D01*
X363200Y343646D02*X363950Y342896D01*
X360950Y343646D02*X363200D01*
X360200Y344396D02*X360950Y343646D01*
X360200Y344396D02*X360950Y345146D01*
X363200D01*
X363950Y344396D01*
X360200Y342896D02*X360950Y342146D01*
X368450Y345146D02*Y342896D01*
X369200Y342146D01*
X369950D01*
X370700Y342896D01*
Y345146D02*Y342896D01*
X371450Y342146D01*
X372200D01*
X372950Y342896D01*
Y345146D02*Y342896D01*
G54D105*X374750Y346646D02*Y346496D01*
G54D104*Y344396D02*Y342146D01*
X379250Y348146D02*Y342146D01*
X378500D02*X379250Y342896D01*
X377000Y342146D02*X378500D01*
X376250Y342896D02*X377000Y342146D01*
X376250Y344396D02*Y342896D01*
Y344396D02*X377000Y345146D01*
X378500D01*
X379250Y344396D01*
X381800Y342146D02*X384050D01*
X381050Y342896D02*X381800Y342146D01*
X381050Y344396D02*Y342896D01*
Y344396D02*X381800Y345146D01*
X383300D01*
X384050Y344396D01*
X381050Y343646D02*X384050D01*
Y344396D01*
X385850Y340646D02*X387350Y342146D01*
X391850Y347396D02*X392600Y348146D01*
X394100D01*
X394850Y347396D01*
X394100Y342146D02*X394850Y342896D01*
X392600Y342146D02*X394100D01*
X391850Y342896D02*X392600Y342146D01*
Y345446D02*X394100D01*
X394850Y347396D02*Y346196D01*
Y344696D02*Y342896D01*
Y344696D02*X394100Y345446D01*
X394850Y346196D02*X394100Y345446D01*
X396650Y347396D02*X397400Y348146D01*
X398900D01*
X399650Y347396D01*
X398900Y342146D02*X399650Y342896D01*
X397400Y342146D02*X398900D01*
X396650Y342896D02*X397400Y342146D01*
Y345446D02*X398900D01*
X399650Y347396D02*Y346196D01*
Y344696D02*Y342896D01*
Y344696D02*X398900Y345446D01*
X399650Y346196D02*X398900Y345446D01*
X401450Y344396D02*X404450Y348146D01*
X401450Y344396D02*X405200D01*
X404450Y348146D02*Y342146D01*
X409250Y348146D02*X410000Y347396D01*
X407750Y348146D02*X409250D01*
X407000Y347396D02*X407750Y348146D01*
X407000Y347396D02*Y342896D01*
X407750Y342146D01*
X409250Y345446D02*X410000Y344696D01*
X407000Y345446D02*X409250D01*
X407750Y342146D02*X409250D01*
X410000Y342896D01*
Y344696D02*Y342896D01*
X411800Y342146D02*X412550D01*
X414350Y344396D02*X417350Y348146D01*
X414350Y344396D02*X418100D01*
X417350Y348146D02*Y342146D01*
X419900Y348146D02*X422900D01*
X419900D02*Y345146D01*
X420650Y345896D01*
X422150D01*
X422900Y345146D01*
Y342896D01*
X422150Y342146D02*X422900Y342896D01*
X420650Y342146D02*X422150D01*
X419900Y342896D02*X420650Y342146D01*
X426950Y348146D02*X427700Y347396D01*
X425450Y348146D02*X426950D01*
X424700Y347396D02*X425450Y348146D01*
X424700Y347396D02*Y342896D01*
X425450Y342146D01*
X426950Y345446D02*X427700Y344696D01*
X424700Y345446D02*X426950D01*
X425450Y342146D02*X426950D01*
X427700Y342896D01*
Y344696D02*Y342896D01*
X431750Y348146D02*X432500Y347396D01*
X430250Y348146D02*X431750D01*
X429500Y347396D02*X430250Y348146D01*
X429500Y347396D02*Y342896D01*
X430250Y342146D01*
X431750Y345446D02*X432500Y344696D01*
X429500Y345446D02*X431750D01*
X430250Y342146D02*X431750D01*
X432500Y342896D01*
Y344696D02*Y342896D01*
X435050Y342146D02*X437300Y345146D01*
Y347396D02*Y345146D01*
X436550Y348146D02*X437300Y347396D01*
X435050Y348146D02*X436550D01*
X434300Y347396D02*X435050Y348146D01*
X434300Y347396D02*Y345896D01*
X435050Y345146D01*
X437300D01*
X439100Y347396D02*X439850Y348146D01*
X441350D01*
X442100Y347396D01*
X441350Y342146D02*X442100Y342896D01*
X439850Y342146D02*X441350D01*
X439100Y342896D02*X439850Y342146D01*
Y345446D02*X441350D01*
X442100Y347396D02*Y346196D01*
Y344696D02*Y342896D01*
Y344696D02*X441350Y345446D01*
X442100Y346196D02*X441350Y345446D01*
X447350Y344396D02*Y342146D01*
Y344396D02*X448100Y345146D01*
X448850D01*
X449600Y344396D01*
Y342146D01*
Y344396D02*X450350Y345146D01*
X451100D01*
X451850Y344396D01*
Y342146D01*
X446600Y345146D02*X447350Y344396D01*
G54D105*X453650Y346646D02*Y346496D01*
G54D104*Y344396D02*Y342146D01*
X455150Y348146D02*Y342896D01*
X455900Y342146D01*
X458150D02*X460400D01*
X461150Y342896D01*
X460400Y343646D02*X461150Y342896D01*
X458150Y343646D02*X460400D01*
X457400Y344396D02*X458150Y343646D01*
X457400Y344396D02*X458150Y345146D01*
X460400D01*
X461150Y344396D01*
X457400Y342896D02*X458150Y342146D01*
X465650Y348146D02*Y342146D01*
Y344396D02*X466400Y345146D01*
X467900D01*
X468650Y344396D01*
Y342146D01*
G54D105*X470450Y346646D02*Y346496D01*
G54D104*Y344396D02*Y342146D01*
X474200Y345146D02*X474950Y344396D01*
X472700Y345146D02*X474200D01*
X471950Y344396D02*X472700Y345146D01*
X471950Y344396D02*Y342896D01*
X472700Y342146D01*
X474200D01*
X474950Y342896D01*
X471950Y340646D02*X472700Y339896D01*
X474200D01*
X474950Y340646D01*
Y345146D02*Y340646D01*
X476750Y348146D02*Y342146D01*
Y344396D02*X477500Y345146D01*
X479000D01*
X479750Y344396D01*
Y342146D01*
X0Y-9500D02*X3000D01*
X3750Y-8750D01*
Y-6950D02*Y-8750D01*
X3000Y-6200D02*X3750Y-6950D01*
X750Y-6200D02*X3000D01*
X750Y-3500D02*Y-9500D01*
X0Y-3500D02*X3000D01*
X3750Y-4250D01*
Y-5450D01*
X3000Y-6200D02*X3750Y-5450D01*
X5550Y-7250D02*Y-8750D01*
Y-7250D02*X6300Y-6500D01*
X7800D01*
X8550Y-7250D01*
Y-8750D01*
X7800Y-9500D02*X8550Y-8750D01*
X6300Y-9500D02*X7800D01*
X5550Y-8750D02*X6300Y-9500D01*
X12600Y-6500D02*X13350Y-7250D01*
X11100Y-6500D02*X12600D01*
X10350Y-7250D02*X11100Y-6500D01*
X10350Y-7250D02*Y-8750D01*
X11100Y-9500D01*
X13350Y-6500D02*Y-8750D01*
X14100Y-9500D01*
X11100D02*X12600D01*
X13350Y-8750D01*
X16650Y-7250D02*Y-9500D01*
Y-7250D02*X17400Y-6500D01*
X18900D01*
X15900D02*X16650Y-7250D01*
X23700Y-3500D02*Y-9500D01*
X22950D02*X23700Y-8750D01*
X21450Y-9500D02*X22950D01*
X20700Y-8750D02*X21450Y-9500D01*
X20700Y-7250D02*Y-8750D01*
Y-7250D02*X21450Y-6500D01*
X22950D01*
X23700Y-7250D01*
X28200D02*Y-8750D01*
Y-7250D02*X28950Y-6500D01*
X30450D01*
X31200Y-7250D01*
Y-8750D01*
X30450Y-9500D02*X31200Y-8750D01*
X28950Y-9500D02*X30450D01*
X28200Y-8750D02*X28950Y-9500D01*
X33000Y-6500D02*Y-8750D01*
X33750Y-9500D01*
X35250D01*
X36000Y-8750D01*
Y-6500D02*Y-8750D01*
X38550Y-3500D02*Y-8750D01*
X39300Y-9500D01*
X37800Y-5750D02*X39300D01*
X40800Y-3500D02*Y-8750D01*
X41550Y-9500D01*
G54D105*X43050Y-5000D02*Y-5150D01*
G54D104*Y-7250D02*Y-9500D01*
X45300Y-7250D02*Y-9500D01*
Y-7250D02*X46050Y-6500D01*
X46800D01*
X47550Y-7250D01*
Y-9500D01*
X44550Y-6500D02*X45300Y-7250D01*
X50100Y-9500D02*X52350D01*
X49350Y-8750D02*X50100Y-9500D01*
X49350Y-7250D02*Y-8750D01*
Y-7250D02*X50100Y-6500D01*
X51600D01*
X52350Y-7250D01*
X49350Y-8000D02*X52350D01*
Y-7250D01*
G54D105*X56850Y-5000D02*Y-5150D01*
G54D104*Y-7250D02*Y-9500D01*
X59100D02*X61350D01*
X62100Y-8750D01*
X61350Y-8000D02*X62100Y-8750D01*
X59100Y-8000D02*X61350D01*
X58350Y-7250D02*X59100Y-8000D01*
X58350Y-7250D02*X59100Y-6500D01*
X61350D01*
X62100Y-7250D01*
X58350Y-8750D02*X59100Y-9500D01*
X67350Y-3500D02*Y-8750D01*
X68100Y-9500D01*
X66600Y-5750D02*X68100D01*
X69600Y-3500D02*Y-9500D01*
Y-7250D02*X70350Y-6500D01*
X71850D01*
X72600Y-7250D01*
Y-9500D01*
X75150D02*X77400D01*
X74400Y-8750D02*X75150Y-9500D01*
X74400Y-7250D02*Y-8750D01*
Y-7250D02*X75150Y-6500D01*
X76650D01*
X77400Y-7250D01*
X74400Y-8000D02*X77400D01*
Y-7250D01*
X82650Y-6500D02*X84900D01*
X81900Y-7250D02*X82650Y-6500D01*
X81900Y-7250D02*Y-8750D01*
X82650Y-9500D01*
X84900D01*
X87450D02*X89700D01*
X86700Y-8750D02*X87450Y-9500D01*
X86700Y-7250D02*Y-8750D01*
Y-7250D02*X87450Y-6500D01*
X88950D01*
X89700Y-7250D01*
X86700Y-8000D02*X89700D01*
Y-7250D01*
X92250D02*Y-9500D01*
Y-7250D02*X93000Y-6500D01*
X93750D01*
X94500Y-7250D01*
Y-9500D01*
X91500Y-6500D02*X92250Y-7250D01*
X97050Y-3500D02*Y-8750D01*
X97800Y-9500D01*
X96300Y-5750D02*X97800D01*
X100050Y-9500D02*X102300D01*
X99300Y-8750D02*X100050Y-9500D01*
X99300Y-7250D02*Y-8750D01*
Y-7250D02*X100050Y-6500D01*
X101550D01*
X102300Y-7250D01*
X99300Y-8000D02*X102300D01*
Y-7250D01*
X104850D02*Y-9500D01*
Y-7250D02*X105600Y-6500D01*
X107100D01*
X104100D02*X104850Y-7250D01*
X108900Y-3500D02*Y-8750D01*
X109650Y-9500D01*
G54D105*X111150Y-5000D02*Y-5150D01*
G54D104*Y-7250D02*Y-9500D01*
X113400Y-7250D02*Y-9500D01*
Y-7250D02*X114150Y-6500D01*
X114900D01*
X115650Y-7250D01*
Y-9500D01*
X112650Y-6500D02*X113400Y-7250D01*
X118200Y-9500D02*X120450D01*
X117450Y-8750D02*X118200Y-9500D01*
X117450Y-7250D02*Y-8750D01*
Y-7250D02*X118200Y-6500D01*
X119700D01*
X120450Y-7250D01*
X117450Y-8000D02*X120450D01*
Y-7250D01*
X124950D02*Y-8750D01*
Y-7250D02*X125700Y-6500D01*
X127200D01*
X127950Y-7250D01*
Y-8750D01*
X127200Y-9500D02*X127950Y-8750D01*
X125700Y-9500D02*X127200D01*
X124950Y-8750D02*X125700Y-9500D01*
X130500Y-4250D02*Y-9500D01*
Y-4250D02*X131250Y-3500D01*
X132000D01*
X129750Y-6500D02*X131250D01*
X136950Y-3500D02*Y-8750D01*
X137700Y-9500D01*
X136200Y-5750D02*X137700D01*
X139200Y-3500D02*Y-9500D01*
Y-7250D02*X139950Y-6500D01*
X141450D01*
X142200Y-7250D01*
Y-9500D01*
G54D105*X144000Y-5000D02*Y-5150D01*
G54D104*Y-7250D02*Y-9500D01*
X146250D02*X148500D01*
X149250Y-8750D01*
X148500Y-8000D02*X149250Y-8750D01*
X146250Y-8000D02*X148500D01*
X145500Y-7250D02*X146250Y-8000D01*
X145500Y-7250D02*X146250Y-6500D01*
X148500D01*
X149250Y-7250D01*
X145500Y-8750D02*X146250Y-9500D01*
X153750Y-8750D02*X154500Y-9500D01*
X153750Y-7550D02*Y-8750D01*
Y-7550D02*X154800Y-6500D01*
X155700D01*
X156750Y-7550D01*
Y-8750D01*
X156000Y-9500D02*X156750Y-8750D01*
X154500Y-9500D02*X156000D01*
X153750Y-5450D02*X154800Y-6500D01*
X153750Y-4250D02*Y-5450D01*
Y-4250D02*X154500Y-3500D01*
X156000D01*
X156750Y-4250D01*
Y-5450D01*
X155700Y-6500D02*X156750Y-5450D01*
X158550Y-9500D02*X159300D01*
X161100Y-8750D02*X161850Y-9500D01*
X161100Y-4250D02*Y-8750D01*
Y-4250D02*X161850Y-3500D01*
X163350D01*
X164100Y-4250D01*
Y-8750D01*
X163350Y-9500D02*X164100Y-8750D01*
X161850Y-9500D02*X163350D01*
X161100Y-8000D02*X164100Y-5000D01*
X165900Y-8750D02*X166650Y-9500D01*
X165900Y-4250D02*Y-8750D01*
Y-4250D02*X166650Y-3500D01*
X168150D01*
X168900Y-4250D01*
Y-8750D01*
X168150Y-9500D02*X168900Y-8750D01*
X166650Y-9500D02*X168150D01*
X165900Y-8000D02*X168900Y-5000D01*
X170700Y-8750D02*X171450Y-9500D01*
X170700Y-4250D02*Y-8750D01*
Y-4250D02*X171450Y-3500D01*
X172950D01*
X173700Y-4250D01*
Y-8750D01*
X172950Y-9500D02*X173700Y-8750D01*
X171450Y-9500D02*X172950D01*
X170700Y-8000D02*X173700Y-5000D01*
X175500Y-8750D02*X176250Y-9500D01*
X175500Y-4250D02*Y-8750D01*
Y-4250D02*X176250Y-3500D01*
X177750D01*
X178500Y-4250D01*
Y-8750D01*
X177750Y-9500D02*X178500Y-8750D01*
X176250Y-9500D02*X177750D01*
X175500Y-8000D02*X178500Y-5000D01*
X180300Y-8750D02*X181050Y-9500D01*
X180300Y-4250D02*Y-8750D01*
Y-4250D02*X181050Y-3500D01*
X182550D01*
X183300Y-4250D01*
Y-8750D01*
X182550Y-9500D02*X183300Y-8750D01*
X181050Y-9500D02*X182550D01*
X180300Y-8000D02*X183300Y-5000D01*
X185100Y-8750D02*X185850Y-9500D01*
X185100Y-4250D02*Y-8750D01*
Y-4250D02*X185850Y-3500D01*
X187350D01*
X188100Y-4250D01*
Y-8750D01*
X187350Y-9500D02*X188100Y-8750D01*
X185850Y-9500D02*X187350D01*
X185100Y-8000D02*X188100Y-5000D01*
X193350Y-7250D02*Y-9500D01*
Y-7250D02*X194100Y-6500D01*
X194850D01*
X195600Y-7250D01*
Y-9500D01*
Y-7250D02*X196350Y-6500D01*
X197100D01*
X197850Y-7250D01*
Y-9500D01*
X192600Y-6500D02*X193350Y-7250D01*
G54D105*X199650Y-5000D02*Y-5150D01*
G54D104*Y-7250D02*Y-9500D01*
X201150Y-3500D02*Y-8750D01*
X201900Y-9500D01*
X206850Y-7250D02*Y-9500D01*
Y-7250D02*X207600Y-6500D01*
X209100D01*
X206100D02*X206850Y-7250D01*
X211650Y-9500D02*X213900D01*
X210900Y-8750D02*X211650Y-9500D01*
X210900Y-7250D02*Y-8750D01*
Y-7250D02*X211650Y-6500D01*
X213150D01*
X213900Y-7250D01*
X210900Y-8000D02*X213900D01*
Y-7250D01*
X216450Y-6500D02*X218700D01*
X215700Y-7250D02*X216450Y-6500D01*
X215700Y-7250D02*Y-8750D01*
X216450Y-9500D01*
X218700D01*
X221250Y-3500D02*Y-8750D01*
X222000Y-9500D01*
X220500Y-5750D02*X222000D01*
X225750Y-6500D02*X226500Y-7250D01*
X224250Y-6500D02*X225750D01*
X223500Y-7250D02*X224250Y-6500D01*
X223500Y-7250D02*Y-8750D01*
X224250Y-9500D01*
X226500Y-6500D02*Y-8750D01*
X227250Y-9500D01*
X224250D02*X225750D01*
X226500Y-8750D01*
X229800Y-7250D02*Y-9500D01*
Y-7250D02*X230550Y-6500D01*
X231300D01*
X232050Y-7250D01*
Y-9500D01*
X229050Y-6500D02*X229800Y-7250D01*
X236100Y-6500D02*X236850Y-7250D01*
X234600Y-6500D02*X236100D01*
X233850Y-7250D02*X234600Y-6500D01*
X233850Y-7250D02*Y-8750D01*
X234600Y-9500D01*
X236100D01*
X236850Y-8750D01*
X233850Y-11000D02*X234600Y-11750D01*
X236100D01*
X236850Y-11000D01*
Y-6500D02*Y-11000D01*
X238650Y-3500D02*Y-8750D01*
X239400Y-9500D01*
X241650D02*X243900D01*
X240900Y-8750D02*X241650Y-9500D01*
X240900Y-7250D02*Y-8750D01*
Y-7250D02*X241650Y-6500D01*
X243150D01*
X243900Y-7250D01*
X240900Y-8000D02*X243900D01*
Y-7250D01*
X248400Y-6500D02*X251400D01*
X255900Y-8750D02*X256650Y-9500D01*
X255900Y-4250D02*Y-8750D01*
Y-4250D02*X256650Y-3500D01*
X258150D01*
X258900Y-4250D01*
Y-8750D01*
X258150Y-9500D02*X258900Y-8750D01*
X256650Y-9500D02*X258150D01*
X255900Y-8000D02*X258900Y-5000D01*
X260700Y-11000D02*X262200Y-9500D01*
X264000Y-8750D02*X264750Y-9500D01*
X264000Y-4250D02*Y-8750D01*
Y-4250D02*X264750Y-3500D01*
X266250D01*
X267000Y-4250D01*
Y-8750D01*
X266250Y-9500D02*X267000Y-8750D01*
X264750Y-9500D02*X266250D01*
X264000Y-8000D02*X267000Y-5000D01*
X272250Y-3500D02*Y-8750D01*
X273000Y-9500D01*
X271500Y-5750D02*X273000D01*
X274500Y-7250D02*Y-8750D01*
Y-7250D02*X275250Y-6500D01*
X276750D01*
X277500Y-7250D01*
Y-8750D01*
X276750Y-9500D02*X277500Y-8750D01*
X275250Y-9500D02*X276750D01*
X274500Y-8750D02*X275250Y-9500D01*
X282000Y-4250D02*X282750Y-3500D01*
X285000D01*
X285750Y-4250D01*
Y-5750D01*
X282000Y-9500D02*X285750Y-5750D01*
X282000Y-9500D02*X285750D01*
X287550Y-4250D02*X288300Y-3500D01*
X290550D01*
X291300Y-4250D01*
Y-5750D01*
X287550Y-9500D02*X291300Y-5750D01*
X287550Y-9500D02*X291300D01*
X293100Y-8750D02*X293850Y-9500D01*
X293100Y-4250D02*Y-8750D01*
Y-4250D02*X293850Y-3500D01*
X295350D01*
X296100Y-4250D01*
Y-8750D01*
X295350Y-9500D02*X296100Y-8750D01*
X293850Y-9500D02*X295350D01*
X293100Y-8000D02*X296100Y-5000D01*
X297900Y-7250D02*X300900Y-3500D01*
X297900Y-7250D02*X301650D01*
X300900Y-3500D02*Y-9500D01*
X303450D02*X304200D01*
X306750D02*X309750Y-3500D01*
X306000D02*X309750D01*
X311550Y-4250D02*X312300Y-3500D01*
X314550D01*
X315300Y-4250D01*
Y-5750D01*
X311550Y-9500D02*X315300Y-5750D01*
X311550Y-9500D02*X315300D01*
X317100Y-7250D02*X320100Y-3500D01*
X317100Y-7250D02*X320850D01*
X320100Y-3500D02*Y-9500D01*
X322650Y-7250D02*X325650Y-3500D01*
X322650Y-7250D02*X326400D01*
X325650Y-3500D02*Y-9500D01*
X328200Y-8750D02*X328950Y-9500D01*
X328200Y-4250D02*Y-8750D01*
Y-4250D02*X328950Y-3500D01*
X330450D01*
X331200Y-4250D01*
Y-8750D01*
X330450Y-9500D02*X331200Y-8750D01*
X328950Y-9500D02*X330450D01*
X328200Y-8000D02*X331200Y-5000D01*
X333750Y-9500D02*X336000Y-6500D01*
Y-4250D02*Y-6500D01*
X335250Y-3500D02*X336000Y-4250D01*
X333750Y-3500D02*X335250D01*
X333000Y-4250D02*X333750Y-3500D01*
X333000Y-4250D02*Y-5750D01*
X333750Y-6500D01*
X336000D01*
X337800Y-11000D02*X339300Y-9500D01*
X341100Y-4250D02*X341850Y-3500D01*
X343350D01*
X344100Y-4250D01*
X343350Y-9500D02*X344100Y-8750D01*
X341850Y-9500D02*X343350D01*
X341100Y-8750D02*X341850Y-9500D01*
Y-6200D02*X343350D01*
X344100Y-4250D02*Y-5450D01*
Y-6950D02*Y-8750D01*
Y-6950D02*X343350Y-6200D01*
X344100Y-5450D02*X343350Y-6200D01*
X345900Y-4250D02*X346650Y-3500D01*
X348150D01*
X348900Y-4250D01*
X348150Y-9500D02*X348900Y-8750D01*
X346650Y-9500D02*X348150D01*
X345900Y-8750D02*X346650Y-9500D01*
Y-6200D02*X348150D01*
X348900Y-4250D02*Y-5450D01*
Y-6950D02*Y-8750D01*
Y-6950D02*X348150Y-6200D01*
X348900Y-5450D02*X348150Y-6200D01*
X350700Y-7250D02*X353700Y-3500D01*
X350700Y-7250D02*X354450D01*
X353700Y-3500D02*Y-9500D01*
X358500Y-3500D02*X359250Y-4250D01*
X357000Y-3500D02*X358500D01*
X356250Y-4250D02*X357000Y-3500D01*
X356250Y-4250D02*Y-8750D01*
X357000Y-9500D01*
X358500Y-6200D02*X359250Y-6950D01*
X356250Y-6200D02*X358500D01*
X357000Y-9500D02*X358500D01*
X359250Y-8750D01*
Y-6950D02*Y-8750D01*
X361050Y-9500D02*X361800D01*
X363600Y-7250D02*X366600Y-3500D01*
X363600Y-7250D02*X367350D01*
X366600Y-3500D02*Y-9500D01*
X369150Y-3500D02*X372150D01*
X369150D02*Y-6500D01*
X369900Y-5750D01*
X371400D01*
X372150Y-6500D01*
Y-8750D01*
X371400Y-9500D02*X372150Y-8750D01*
X369900Y-9500D02*X371400D01*
X369150Y-8750D02*X369900Y-9500D01*
X376200Y-3500D02*X376950Y-4250D01*
X374700Y-3500D02*X376200D01*
X373950Y-4250D02*X374700Y-3500D01*
X373950Y-4250D02*Y-8750D01*
X374700Y-9500D01*
X376200Y-6200D02*X376950Y-6950D01*
X373950Y-6200D02*X376200D01*
X374700Y-9500D02*X376200D01*
X376950Y-8750D01*
Y-6950D02*Y-8750D01*
X381000Y-3500D02*X381750Y-4250D01*
X379500Y-3500D02*X381000D01*
X378750Y-4250D02*X379500Y-3500D01*
X378750Y-4250D02*Y-8750D01*
X379500Y-9500D01*
X381000Y-6200D02*X381750Y-6950D01*
X378750Y-6200D02*X381000D01*
X379500Y-9500D02*X381000D01*
X381750Y-8750D01*
Y-6950D02*Y-8750D01*
X384300Y-9500D02*X386550Y-6500D01*
Y-4250D02*Y-6500D01*
X385800Y-3500D02*X386550Y-4250D01*
X384300Y-3500D02*X385800D01*
X383550Y-4250D02*X384300Y-3500D01*
X383550Y-4250D02*Y-5750D01*
X384300Y-6500D01*
X386550D01*
X388350Y-4250D02*X389100Y-3500D01*
X390600D01*
X391350Y-4250D01*
X390600Y-9500D02*X391350Y-8750D01*
X389100Y-9500D02*X390600D01*
X388350Y-8750D02*X389100Y-9500D01*
Y-6200D02*X390600D01*
X391350Y-4250D02*Y-5450D01*
Y-6950D02*Y-8750D01*
Y-6950D02*X390600Y-6200D01*
X391350Y-5450D02*X390600Y-6200D01*
X396600Y-7250D02*Y-9500D01*
Y-7250D02*X397350Y-6500D01*
X398100D01*
X398850Y-7250D01*
Y-9500D01*
Y-7250D02*X399600Y-6500D01*
X400350D01*
X401100Y-7250D01*
Y-9500D01*
X395850Y-6500D02*X396600Y-7250D01*
G54D105*X402900Y-5000D02*Y-5150D01*
G54D104*Y-7250D02*Y-9500D01*
X404400Y-3500D02*Y-8750D01*
X405150Y-9500D01*
X407401D02*X409651D01*
X410401Y-8750D01*
X409651Y-8000D02*X410401Y-8750D01*
X407401Y-8000D02*X409651D01*
X406651Y-7250D02*X407401Y-8000D01*
X406651Y-7250D02*X407401Y-6500D01*
X409651D01*
X410401Y-7250D01*
X406651Y-8750D02*X407401Y-9500D01*
X200750Y363146D02*Y357146D01*
X202700Y363146D02*X203750Y362096D01*
Y358196D01*
X202700Y357146D02*X203750Y358196D01*
X200000Y357146D02*X202700D01*
X200000Y363146D02*X202700D01*
X207800Y360146D02*X208550Y359396D01*
X206300Y360146D02*X207800D01*
X205550Y359396D02*X206300Y360146D01*
X205550Y359396D02*Y357896D01*
X206300Y357146D01*
X208550Y360146D02*Y357896D01*
X209300Y357146D01*
X206300D02*X207800D01*
X208550Y357896D01*
X211850Y363146D02*Y357896D01*
X212600Y357146D01*
X211100Y360896D02*X212600D01*
X214850Y357146D02*X217100D01*
X214100Y357896D02*X214850Y357146D01*
X214100Y359396D02*Y357896D01*
Y359396D02*X214850Y360146D01*
X216350D01*
X217100Y359396D01*
X214100Y358646D02*X217100D01*
Y359396D01*
X218900Y360896D02*X219650D01*
X218900Y359396D02*X219650D01*
X224150Y362396D02*X224900Y363146D01*
X227150D01*
X227900Y362396D01*
Y360896D01*
X224150Y357146D02*X227900Y360896D01*
X224150Y357146D02*X227900D01*
X229700Y357896D02*X230450Y357146D01*
X229700Y362396D02*Y357896D01*
Y362396D02*X230450Y363146D01*
X231950D01*
X232700Y362396D01*
Y357896D01*
X231950Y357146D02*X232700Y357896D01*
X230450Y357146D02*X231950D01*
X229700Y358646D02*X232700Y361646D01*
X234500Y361946D02*X235700Y363146D01*
Y357146D01*
X234500D02*X236750D01*
X239300D02*X241550Y360146D01*
Y362396D02*Y360146D01*
X240800Y363146D02*X241550Y362396D01*
X239300Y363146D02*X240800D01*
X238550Y362396D02*X239300Y363146D01*
X238550Y362396D02*Y360896D01*
X239300Y360146D01*
X241550D01*
X243350D02*X246350D01*
X248150Y357896D02*X248900Y357146D01*
X248150Y362396D02*Y357896D01*
Y362396D02*X248900Y363146D01*
X250400D01*
X251150Y362396D01*
Y357896D01*
X250400Y357146D02*X251150Y357896D01*
X248900Y357146D02*X250400D01*
X248150Y358646D02*X251150Y361646D01*
X252950Y359396D02*X255950Y363146D01*
X252950Y359396D02*X256700D01*
X255950Y363146D02*Y357146D01*
X258500Y360146D02*X261500D01*
X263300Y361946D02*X264500Y363146D01*
Y357146D01*
X263300D02*X265550D01*
X267350Y362396D02*X268100Y363146D01*
X270350D01*
X271100Y362396D01*
Y360896D01*
X267350Y357146D02*X271100Y360896D01*
X267350Y357146D02*X271100D01*
X275600Y361946D02*X276800Y363146D01*
Y357146D01*
X275600D02*X277850D01*
X281900Y363146D02*X282650Y362396D01*
X280400Y363146D02*X281900D01*
X279650Y362396D02*X280400Y363146D01*
X279650Y362396D02*Y357896D01*
X280400Y357146D01*
X281900Y360446D02*X282650Y359696D01*
X279650Y360446D02*X281900D01*
X280400Y357146D02*X281900D01*
X282650Y357896D01*
Y359696D02*Y357896D01*
X284450Y360896D02*X285200D01*
X284450Y359396D02*X285200D01*
X287000Y357896D02*X287750Y357146D01*
X287000Y362396D02*Y357896D01*
Y362396D02*X287750Y363146D01*
X289250D01*
X290000Y362396D01*
Y357896D01*
X289250Y357146D02*X290000Y357896D01*
X287750Y357146D02*X289250D01*
X287000Y358646D02*X290000Y361646D01*
X291800Y363146D02*X294800D01*
X291800D02*Y360146D01*
X292550Y360896D01*
X294050D01*
X294800Y360146D01*
Y357896D01*
X294050Y357146D02*X294800Y357896D01*
X292550Y357146D02*X294050D01*
X291800Y357896D02*X292550Y357146D01*
X296600Y360896D02*X297350D01*
X296600Y359396D02*X297350D01*
X299150Y362396D02*X299900Y363146D01*
X302150D01*
X302900Y362396D01*
Y360896D01*
X299150Y357146D02*X302900Y360896D01*
X299150Y357146D02*X302900D01*
X304700Y361946D02*X305900Y363146D01*
Y357146D01*
X304700D02*X306950D01*
X311450Y363146D02*Y357896D01*
X312200Y357146D01*
X313700D01*
X314450Y357896D01*
Y363146D02*Y357896D01*
X316250Y363146D02*X319250D01*
X317750D02*Y357146D01*
X322100D02*X324050D01*
X321050Y358196D02*X322100Y357146D01*
X321050Y362096D02*Y358196D01*
Y362096D02*X322100Y363146D01*
X324050D01*
X200000Y376646D02*Y372146D01*
Y376646D02*X201050Y378146D01*
X202700D01*
X203750Y376646D01*
Y372146D01*
X200000Y375146D02*X203750D01*
X205550D02*Y372896D01*
X206300Y372146D01*
X207800D01*
X208550Y372896D01*
Y375146D02*Y372896D01*
X211100Y378146D02*Y372896D01*
X211850Y372146D01*
X210350Y375896D02*X211850D01*
X213350Y378146D02*Y372146D01*
Y374396D02*X214100Y375146D01*
X215600D01*
X216350Y374396D01*
Y372146D01*
X218150Y374396D02*Y372896D01*
Y374396D02*X218900Y375146D01*
X220400D01*
X221150Y374396D01*
Y372896D01*
X220400Y372146D02*X221150Y372896D01*
X218900Y372146D02*X220400D01*
X218150Y372896D02*X218900Y372146D01*
X223700Y374396D02*Y372146D01*
Y374396D02*X224450Y375146D01*
X225950D01*
X222950D02*X223700Y374396D01*
X227750Y375896D02*X228500D01*
X227750Y374396D02*X228500D01*
X200000Y393146D02*X203000D01*
X201500D02*Y387146D01*
G54D105*X204800Y391646D02*Y391496D01*
G54D104*Y389396D02*Y387146D01*
X207050Y393146D02*Y387896D01*
X207800Y387146D01*
X206300Y390896D02*X207800D01*
X209300Y393146D02*Y387896D01*
X210050Y387146D01*
X212300D02*X214550D01*
X211550Y387896D02*X212300Y387146D01*
X211550Y389396D02*Y387896D01*
Y389396D02*X212300Y390146D01*
X213800D01*
X214550Y389396D01*
X211550Y388646D02*X214550D01*
Y389396D01*
X216350Y390896D02*X217100D01*
X216350Y389396D02*X217100D01*
X221600Y393146D02*X225350D01*
X221600Y387146D02*X225350Y393146D01*
X221600Y387146D02*X225350D01*
X227150Y390146D02*Y387896D01*
X227900Y387146D01*
X229400D01*
X230150Y387896D01*
Y390146D02*Y387896D01*
X231950Y390146D02*Y387896D01*
X232700Y387146D01*
X234200D01*
X234950Y387896D01*
Y390146D02*Y387896D01*
X236750Y393146D02*Y387896D01*
X237500Y387146D01*
X241700Y390146D02*X244700D01*
X249200Y393146D02*Y387146D01*
Y393146D02*X252200D01*
X249200Y390446D02*X251450D01*
X256250Y390146D02*X257000Y389396D01*
X254750Y390146D02*X256250D01*
X254000Y389396D02*X254750Y390146D01*
X254000Y389396D02*Y387896D01*
X254750Y387146D01*
X257000Y390146D02*Y387896D01*
X257750Y387146D01*
X254750D02*X256250D01*
X257000Y387896D01*
X259550Y393146D02*Y387146D01*
Y387896D02*X260300Y387146D01*
X261800D01*
X262550Y387896D01*
Y389396D02*Y387896D01*
X261800Y390146D02*X262550Y389396D01*
X260300Y390146D02*X261800D01*
X259550Y389396D02*X260300Y390146D01*
X265100Y389396D02*Y387146D01*
Y389396D02*X265850Y390146D01*
X267350D01*
X264350D02*X265100Y389396D01*
G54D105*X269150Y391646D02*Y391496D01*
G54D104*Y389396D02*Y387146D01*
X271400Y390146D02*X273650D01*
X270650Y389396D02*X271400Y390146D01*
X270650Y389396D02*Y387896D01*
X271400Y387146D01*
X273650D01*
X277700Y390146D02*X278450Y389396D01*
X276200Y390146D02*X277700D01*
X275450Y389396D02*X276200Y390146D01*
X275450Y389396D02*Y387896D01*
X276200Y387146D01*
X278450Y390146D02*Y387896D01*
X279200Y387146D01*
X276200D02*X277700D01*
X278450Y387896D01*
X281750Y393146D02*Y387896D01*
X282500Y387146D01*
X281000Y390896D02*X282500D01*
G54D105*X284000Y391646D02*Y391496D01*
G54D104*Y389396D02*Y387146D01*
X285500Y389396D02*Y387896D01*
Y389396D02*X286250Y390146D01*
X287750D01*
X288500Y389396D01*
Y387896D01*
X287750Y387146D02*X288500Y387896D01*
X286250Y387146D02*X287750D01*
X285500Y387896D02*X286250Y387146D01*
X291050Y389396D02*Y387146D01*
Y389396D02*X291800Y390146D01*
X292550D01*
X293300Y389396D01*
Y387146D01*
X290300Y390146D02*X291050Y389396D01*
X298550Y393146D02*Y387146D01*
X300500Y393146D02*X301550Y392096D01*
Y388196D01*
X300500Y387146D02*X301550Y388196D01*
X297800Y387146D02*X300500D01*
X297800Y393146D02*X300500D01*
X304100Y389396D02*Y387146D01*
Y389396D02*X304850Y390146D01*
X306350D01*
X303350D02*X304100Y389396D01*
X310400Y390146D02*X311150Y389396D01*
X308900Y390146D02*X310400D01*
X308150Y389396D02*X308900Y390146D01*
X308150Y389396D02*Y387896D01*
X308900Y387146D01*
X311150Y390146D02*Y387896D01*
X311900Y387146D01*
X308900D02*X310400D01*
X311150Y387896D01*
X313700Y390146D02*Y387896D01*
X314450Y387146D01*
X315200D01*
X315950Y387896D01*
Y390146D02*Y387896D01*
X316700Y387146D01*
X317450D01*
X318200Y387896D01*
Y390146D02*Y387896D01*
G54D105*X320000Y391646D02*Y391496D01*
G54D104*Y389396D02*Y387146D01*
X322250Y389396D02*Y387146D01*
Y389396D02*X323000Y390146D01*
X323750D01*
X324500Y389396D01*
Y387146D01*
X321500Y390146D02*X322250Y389396D01*
X328550Y390146D02*X329300Y389396D01*
X327050Y390146D02*X328550D01*
X326300Y389396D02*X327050Y390146D01*
X326300Y389396D02*Y387896D01*
X327050Y387146D01*
X328550D01*
X329300Y387896D01*
X326300Y385646D02*X327050Y384896D01*
X328550D01*
X329300Y385646D01*
Y390146D02*Y385646D01*
M02*
