M48
INCH
T116C0.042
T115C0.035
T114C0.100
T113C0.060
T112C0.157
T111C0.038
T110C0.108
T109C0.030
T108C0.067
T107C0.020
T101C0.039
%
T107
G05
X005394Y028898
T109
X013425Y032126
X015709Y027165
X013307Y027165
X018740Y024173
X017087Y024173
T115
X008879Y027415
X007879Y027415
X006879Y027415
X005879Y027415
X008379Y026415
X007379Y026415
X006379Y026415
X005379Y026415
T111
X013852Y008878
X012907Y008878
X013852Y001500
X012907Y001500
X013096Y002189
X013096Y008189
X008341Y008878
X009285Y008878
X009096Y008189
X008341Y001500
X009285Y001500
X009096Y002189
T101
X020169Y030169
X020169Y029169
X021169Y030169
X021169Y029169
X020169Y027169
X020169Y026169
X020169Y025169
X021169Y027169
X021169Y026169
X021169Y025169
X021169Y024169
X020169Y024169
X020169Y023169
X021169Y023169
X020169Y022169
X021169Y022169
X021169Y021169
X021169Y020169
X021169Y019169
X021169Y018169
X021169Y017169
X021169Y016169
X021169Y015169
X021169Y014169
X021169Y013169
X021169Y012169
X021169Y011169
X020169Y021169
X020169Y020169
X020169Y019169
X020169Y018169
X020169Y017169
X020169Y016169
X020169Y015169
X020169Y014169
X020169Y013169
X020169Y012169
X020169Y011169
X000984Y005906
X004984Y005906
X006159Y003299
X006159Y001299
X020169Y028169
X021169Y028169
T116
X008189Y024661
X008189Y023661
X008189Y022661
T113
X005411Y017059
X005411Y019059
X005411Y013059
X005411Y015059
T108
X010181Y031116
X004078Y031116
T114
X004411Y020059
X004411Y012059
T110
X020669Y032087
X020669Y009252
X001378Y032087
X001378Y009252
T112
X001411Y014059
X001411Y018059
T101
G00X001705Y004409
M15
G01X002689Y004409
M17
G00X001705Y000866
M15
G01X002689Y000866
M17
G00X002402Y003091
M15
G01X002402Y002185
M17
G00X004764Y002047
M15
G01X004764Y003228
M17
M30
