G04 start of page 9 for group 0 layer_idx 7 *
G04 Title: Zuul, top_paste *
G04 Creator: pcb-rnd 2.1.1 *
G04 CreationDate: 2019-04-12 16:05:21 UTC *
G04 For:  *
G04 Format: Gerber/RS-274X *
G04 PCB-Dimensions: 220472 334646 *
G04 PCB-Coordinate-Origin: lower left *
%MOIN*%
%FSLAX25Y25*%
%LNTOP_PASTE*%
%ADD99C,0.0001*%
G54D99*G36*
X112402Y301773D02*Y296655D01*
X119882D01*
Y301773D01*
X112402D01*
G37*
G36*
Y313583D02*Y308465D01*
X119882D01*
Y313583D01*
X112402D01*
G37*
G36*
X124213Y301772D02*Y296654D01*
X131693D01*
Y301772D01*
X124213D01*
G37*
G36*
Y313582D02*Y308464D01*
X131693D01*
Y313582D01*
X124213D01*
G37*
G36*
X119094Y286417D02*Y291535D01*
X113190D01*
Y286417D01*
X119094D01*
G37*
G36*
X130905Y286417D02*Y291535D01*
X125001D01*
Y286417D01*
X130905D01*
G37*
G36*
X136024Y301772D02*Y296654D01*
X143504D01*
Y301772D01*
X136024D01*
G37*
G36*
X142716Y286417D02*Y291535D01*
X136812D01*
Y286417D01*
X142716D01*
G37*
G36*
X154527D02*Y291535D01*
X148623D01*
Y286417D01*
X154527D01*
G37*
G36*
X166338D02*Y291535D01*
X160434D01*
Y286417D01*
X166338D01*
G37*
G36*
X136024Y313582D02*Y308464D01*
X143504D01*
Y313582D01*
X136024D01*
G37*
G36*
X147835Y301772D02*Y296654D01*
X155315D01*
Y301772D01*
X147835D01*
G37*
G36*
X167126Y296654D02*Y301772D01*
X159646D01*
Y296654D01*
X167126D01*
G37*
G36*
X147835Y313582D02*Y308464D01*
X155315D01*
Y313582D01*
X147835D01*
G37*
G36*
X167126Y308464D02*Y313582D01*
X159646D01*
Y308464D01*
X167126D01*
G37*
G36*
X114763Y100984D02*X119881D01*
Y108464D01*
X114763D01*
Y100984D01*
G37*
G36*
X102953D02*X108071D01*
Y108464D01*
X102953D01*
Y100984D01*
G37*
G36*
X86417Y182480D02*Y187598D01*
X78937D01*
Y182480D01*
X86417D01*
G37*
G36*
Y170670D02*Y175788D01*
X78937D01*
Y170670D01*
X86417D01*
G37*
G36*
X62008Y50984D02*X56890D01*
Y43504D01*
X62008D01*
Y50984D01*
G37*
G36*
X73818D02*X68700D01*
Y43504D01*
X73818D01*
Y50984D01*
G37*
G36*
X119094Y279331D02*Y284449D01*
X113190D01*
Y279331D01*
X119094D01*
G37*
G36*
X130905Y279331D02*Y284449D01*
X125001D01*
Y279331D01*
X130905D01*
G37*
G36*
X142716D02*Y284449D01*
X136812D01*
Y279331D01*
X142716D01*
G37*
G36*
X154527D02*Y284449D01*
X148623D01*
Y279331D01*
X154527D01*
G37*
G36*
X166338D02*Y284449D01*
X160434D01*
Y279331D01*
X166338D01*
G37*
G36*
X57677Y251377D02*Y246259D01*
X65157D01*
Y251377D01*
X57677D01*
G37*
G36*
X100984Y223426D02*X106102D01*
Y229330D01*
X100984D01*
Y223426D01*
G37*
G36*
X93898D02*X99016D01*
Y229330D01*
X93898D01*
Y223426D01*
G37*
G36*
X57677Y239567D02*Y234449D01*
X65157D01*
Y239567D01*
X57677D01*
G37*
G36*
X100984Y233662D02*X106102D01*
Y239566D01*
X100984D01*
Y233662D01*
G37*
G36*
X93898D02*X99016D01*
Y239566D01*
X93898D01*
Y233662D01*
G37*
M02*
